SplineFontDB: 1.0
FontName: ArialNarrow-Italic
FullName: Arial Narrow Italic
FamilyName: Arial Narrow
Weight: Book
Copyright: Typeface © The Monotype Corporation plc. Data © The Monotype Corporation plc / Type Solutions Inc. 19-1991 All Rights Reserved.
Version: 2.30
ItalicAngle: -9.7
UnderlinePosition: -217
UnderlineWidth: 150
Ascent: 1917
Descent: 131
NeedsXUIDChange: 1
FSType: 0
PfmFamily: 17
TTFWeight: 400
TTFWidth: 3
Panose: 2 11 5 6 2 2 2 10 2 4
LineGap: 275
VLineGap: 0

StartChar: .notdef
Encoding: 0 -1
Width: 466
Flags: HW
Fore
43 0 m 1
 43 1280 l 1
 434 1280 l 1
 434 0 l 1
 43 0 l 1
90 53 m 1
 387 53 l 1
 387 1237 l 1
 90 1237 l 1
 90 53 l 1
EndSplineSet
EndChar
StartChar: exclam
Encoding: 33 33
Width: 466
Flags: HW
Fore
188 371 m 1
 279 1165 l 1
 332 1466 l 1
 512 1466 l 1
 455 1141 l 1
 281 371 l 1
 188 371 l 1
94 0 m 1
 129 205 l 1
 299 205 l 1
 262 0 l 1
 94 0 l 1
EndSplineSet
EndChar
StartChar: quotedbl
Encoding: 34 34
Width: 595
Flags: HW
Fore
219 946 m 1
 227 1227 l 1
 268 1466 l 1
 436 1466 l 1
 395 1227 l 1
 309 946 l 1
 219 946 l 1
489 946 m 1
 500 1227 l 1
 541 1466 l 1
 709 1466 l 1
 668 1227 l 1
 580 946 l 1
 489 946 l 1
EndSplineSet
EndChar
StartChar: numbersign
Encoding: 35 35
Width: 933
Flags: HW
Fore
82 -25 m 1
 154 401 l 1
 14 401 l 1
 14 551 l 1
 178 551 l 1
 240 913 l 1
 14 913 l 1
 14 1063 l 1
 262 1063 l 1
 336 1491 l 1
 459 1491 l 1
 385 1063 l 1
 645 1063 l 1
 717 1491 l 1
 840 1491 l 1
 768 1063 l 1
 911 1063 l 1
 911 913 l 1
 743 913 l 1
 682 551 l 1
 911 551 l 1
 911 401 l 1
 657 401 l 1
 588 -25 l 1
 463 -25 l 1
 535 401 l 1
 276 401 l 1
 205 -25 l 1
 82 -25 l 1
301 551 m 1
 559 551 l 1
 621 913 l 1
 362 913 l 1
 301 551 l 1
EndSplineSet
EndChar
StartChar: dollar
Encoding: 36 36
Width: 933
Flags: HW
Fore
373 -12 m 1
 295 6 229 55 174 133 c 0
 121 211 92 307 86 424 c 1
 236 434 l 1
 240 354 256 291 287 240 c 0
 317 188 354 156 397 135 c 1
 492 688 l 1
 424 725 373 762 338 797 c 0
 305 834 279 877 258 928 c 0
 238 979 227 1032 227 1087 c 0
 227 1198 264 1292 338 1370 c 0
 412 1448 498 1487 598 1487 c 2
 629 1487 l 1
 641 1565 l 1
 725 1565 l 1
 709 1473 l 1
 858 1427 942 1309 961 1112 c 1
 819 1104 l 1
 811 1165 797 1214 774 1249 c 0
 752 1282 721 1307 682 1323 c 1
 598 821 l 1
 702 768 776 711 821 645 c 0
 864 582 887 506 887 422 c 0
 887 305 850 201 778 111 c 0
 707 20 606 -27 475 -27 c 2
 453 -25 l 1
 424 -197 l 1
 342 -197 l 1
 373 -12 l 1
522 860 m 1
 604 1341 l 1
 539 1343 483 1323 440 1278 c 0
 395 1233 375 1174 375 1100 c 0
 375 1047 385 1001 406 965 c 0
 428 930 467 895 522 860 c 1
567 649 m 1
 477 119 l 1
 489 119 l 2
 555 119 612 145 664 201 c 0
 713 256 737 324 737 401 c 0
 737 457 725 504 702 541 c 0
 678 580 633 614 567 649 c 1
EndSplineSet
EndChar
StartChar: percent
Encoding: 37 37
Width: 1492
Flags: HW
Fore
236 -53 m 1
 1229 1491 l 1
 1362 1491 l 1
 373 -53 l 1
 236 -53 l 1
164 1016 m 0
 164 1073 174 1143 199 1227 c 0
 223 1311 258 1372 303 1415 c 0
 348 1456 401 1479 465 1479 c 0
 539 1479 596 1454 637 1409 c 0
 678 1364 698 1292 698 1196 c 0
 698 1102 682 1012 651 930 c 0
 618 848 582 788 537 756 c 0
 492 723 442 707 385 707 c 0
 315 707 260 731 221 780 c 0
 182 827 164 907 164 1016 c 0
289 981 m 0
 289 926 297 885 315 862 c 0
 334 840 356 827 385 827 c 0
 414 827 440 838 461 856 c 0
 489 883 514 932 537 1001 c 0
 559 1071 569 1143 569 1219 c 0
 569 1264 559 1298 541 1323 c 0
 522 1346 498 1358 469 1358 c 0
 442 1358 418 1348 397 1327 c 0
 369 1300 342 1253 322 1188 c 0
 299 1120 289 1051 289 981 c 0
897 254 m 0
 897 311 907 381 932 465 c 0
 956 549 991 610 1036 653 c 0
 1081 696 1135 717 1196 717 c 0
 1272 717 1329 694 1370 647 c 0
 1411 602 1432 530 1432 436 c 0
 1432 340 1415 252 1384 170 c 0
 1352 86 1315 29 1270 -4 c 0
 1225 -37 1176 -53 1118 -53 c 0
 1049 -53 993 -31 954 18 c 0
 915 66 897 145 897 254 c 0
1022 219 m 0
 1022 164 1030 125 1049 100 c 0
 1067 78 1090 66 1118 66 c 0
 1147 66 1171 76 1194 94 c 0
 1223 121 1247 170 1270 240 c 0
 1290 309 1303 379 1303 453 c 0
 1303 502 1292 539 1274 561 c 0
 1255 584 1231 596 1202 596 c 0
 1176 596 1151 586 1130 567 c 0
 1100 541 1075 492 1055 426 c 0
 1032 358 1022 291 1022 219 c 0
EndSplineSet
EndChar
StartChar: ampersand
Encoding: 38 38
Width: 1118
Flags: HW
Fore
834 143 m 1
 762 74 702 27 653 2 c 0
 606 -20 553 -33 496 -33 c 0
 391 -33 305 6 236 82 c 0
 166 158 131 256 131 381 c 0
 131 494 158 588 211 664 c 0
 264 739 342 805 449 862 c 1
 420 938 401 991 395 1018 c 0
 387 1057 385 1096 385 1137 c 0
 385 1227 412 1309 469 1382 c 0
 524 1454 596 1491 686 1491 c 0
 760 1491 821 1464 870 1411 c 0
 918 1360 942 1292 942 1208 c 0
 942 1139 922 1071 879 1008 c 0
 836 942 756 877 643 807 c 1
 715 649 782 520 850 418 c 1
 891 477 930 547 965 627 c 1
 1094 547 l 1
 1057 453 1008 362 944 274 c 1
 981 215 1028 150 1083 74 c 1
 971 -35 l 1
 915 25 868 84 834 143 c 1
590 942 m 1
 729 1028 799 1116 799 1206 c 0
 799 1247 786 1280 764 1307 c 0
 741 1333 715 1346 684 1346 c 0
 647 1346 612 1327 584 1290 c 0
 553 1253 539 1208 539 1155 c 0
 539 1092 555 1020 590 942 c 1
748 283 m 1
 645 442 567 590 510 721 c 1
 432 678 379 635 346 596 c 0
 305 539 283 473 283 401 c 0
 283 324 305 258 348 207 c 0
 391 156 442 131 502 131 c 0
 584 131 666 182 748 283 c 1
EndSplineSet
EndChar
StartChar: quotesingle
Encoding: 39 39
Width: 321
Flags: HW
Fore
213 946 m 1
 223 1221 l 1
 266 1466 l 1
 434 1466 l 1
 391 1221 l 1
 305 946 l 1
 213 946 l 1
EndSplineSet
EndChar
StartChar: parenleft
Encoding: 40 40
Width: 557
Flags: HW
Fore
270 -430 m 1
 184 -201 141 35 141 272 c 0
 141 440 160 594 197 735 c 0
 231 877 287 1014 358 1151 c 0
 403 1235 477 1348 578 1491 c 1
 694 1491 l 1
 625 1401 555 1278 485 1126 c 0
 416 973 365 825 334 684 c 0
 303 543 287 397 287 252 c 0
 287 33 319 -195 383 -430 c 1
 270 -430 l 1
EndSplineSet
EndChar
StartChar: parenright
Encoding: 41 41
Width: 557
Flags: HW
Fore
332 1491 m 1
 418 1264 463 1028 463 786 c 0
 463 621 444 467 408 328 c 0
 373 186 317 47 244 -90 c 0
 197 -178 125 -293 25 -430 c 1
 -90 -430 l 1
 -20 -342 49 -219 119 -66 c 0
 188 86 240 233 270 377 c 0
 301 518 315 662 315 807 c 0
 315 1028 285 1255 221 1491 c 1
 332 1491 l 1
EndSplineSet
EndChar
StartChar: asterisk
Encoding: 42 42
Width: 651
Flags: HW
Fore
190 1194 m 1
 227 1337 l 1
 313 1300 377 1268 418 1241 c 1
 406 1358 399 1440 399 1491 c 1
 518 1491 l 1
 518 1421 512 1339 500 1241 c 1
 555 1276 618 1309 694 1339 c 1
 731 1196 l 1
 664 1169 594 1151 528 1141 c 1
 561 1104 610 1040 670 952 c 1
 571 866 l 1
 541 918 502 989 459 1081 c 1
 416 985 381 913 352 866 c 1
 256 950 l 1
 315 1042 360 1106 391 1141 c 1
 317 1157 250 1176 190 1194 c 1
EndSplineSet
EndChar
StartChar: plus
Encoding: 43 43
Width: 980
Flags: HW
Fore
420 238 m 1
 420 639 l 1
 92 639 l 1
 92 807 l 1
 420 807 l 1
 420 1206 l 1
 559 1206 l 1
 559 807 l 1
 887 807 l 1
 887 639 l 1
 559 639 l 1
 559 238 l 1
 420 238 l 1
EndSplineSet
EndChar
StartChar: comma
Encoding: 44 44
Width: 466
Flags: HW
Fore
92 0 m 1
 127 205 l 1
 297 205 l 1
 266 27 l 1
 231 -172 158 -279 41 -297 c 1
 55 -217 l 1
 119 -195 162 -123 184 0 c 1
 92 0 l 1
EndSplineSet
EndChar
StartChar: hyphen
Encoding: 45 45
Width: 557
Flags: HW
Fore
78 440 m 1
 109 621 l 1
 561 621 l 1
 530 440 l 1
 78 440 l 1
EndSplineSet
EndChar
StartChar: period
Encoding: 46 46
Width: 466
Flags: HW
Fore
96 0 m 1
 131 205 l 1
 299 205 l 1
 264 0 l 1
 96 0 l 1
EndSplineSet
EndChar
StartChar: slash
Encoding: 47 47
Width: 466
Flags: HW
Fore
-86 -25 m 1
 559 1491 l 1
 688 1491 l 1
 43 -25 l 1
 -86 -25 l 1
EndSplineSet
EndChar
StartChar: zero
Encoding: 48 48
Width: 933
Flags: HW
Fore
119 481 m 0
 119 666 150 844 209 1016 c 0
 268 1188 340 1313 424 1386 c 0
 485 1444 555 1473 627 1473 c 0
 717 1473 793 1432 856 1350 c 0
 920 1268 950 1147 950 987 c 0
 950 831 930 676 891 520 c 0
 840 326 768 180 676 84 c 0
 608 10 528 -25 440 -25 c 0
 352 -25 276 18 213 102 c 0
 150 188 119 313 119 481 c 0
262 434 m 0
 262 326 281 246 315 195 c 0
 350 143 395 119 449 119 c 0
 504 119 553 147 598 205 c 0
 670 297 725 432 758 608 c 0
 793 784 809 924 809 1030 c 0
 809 1137 793 1212 758 1257 c 0
 725 1305 682 1327 627 1327 c 0
 569 1327 516 1298 471 1243 c 0
 408 1163 356 1032 319 852 c 0
 283 672 262 532 262 434 c 0
EndSplineSet
EndChar
StartChar: one
Encoding: 49 49
Width: 933
Flags: HW
Fore
406 0 m 1
 596 1108 l 1
 514 1028 397 965 250 918 c 1
 276 1081 l 1
 373 1128 467 1194 563 1280 c 0
 635 1346 688 1409 719 1473 c 1
 807 1473 l 1
 555 0 l 1
 406 0 l 1
EndSplineSet
EndChar
StartChar: two
Encoding: 50 50
Width: 933
Flags: HW
Fore
98 0 m 1
 121 125 160 229 215 313 c 0
 256 377 362 492 528 653 c 0
 631 754 700 834 739 895 c 0
 778 956 797 1020 797 1085 c 0
 797 1155 776 1212 737 1260 c 0
 696 1305 649 1327 594 1327 c 0
 539 1327 489 1303 446 1255 c 0
 406 1208 375 1133 356 1026 c 1
 213 1053 l 1
 227 1186 268 1290 338 1364 c 0
 408 1436 492 1473 592 1473 c 0
 700 1473 786 1434 850 1360 c 0
 911 1284 944 1190 944 1079 c 0
 944 979 915 885 856 797 c 0
 821 739 719 631 551 469 c 0
 426 346 344 246 305 166 c 1
 844 166 l 1
 815 0 l 1
 98 0 l 1
EndSplineSet
EndChar
StartChar: three
Encoding: 51 51
Width: 933
Flags: HW
Fore
92 385 m 1
 238 406 l 1
 248 301 272 227 309 184 c 0
 348 141 397 119 457 119 c 0
 526 119 588 150 643 213 c 0
 698 274 725 348 725 432 c 0
 725 510 705 571 664 616 c 0
 623 662 569 684 506 684 c 0
 498 684 481 682 459 680 c 1
 483 831 l 1
 498 827 510 827 524 827 c 0
 604 827 668 852 717 899 c 0
 764 948 788 1012 788 1090 c 0
 788 1159 768 1214 729 1260 c 0
 692 1305 647 1327 598 1327 c 0
 543 1327 496 1305 453 1257 c 0
 410 1210 383 1145 371 1057 c 1
 223 1094 l 1
 248 1217 295 1311 365 1376 c 0
 434 1440 514 1473 604 1473 c 0
 698 1473 778 1438 842 1366 c 0
 905 1296 936 1206 936 1094 c 0
 936 1018 920 950 887 893 c 0
 854 836 803 786 737 750 c 1
 784 715 819 674 842 625 c 0
 866 575 877 520 877 457 c 0
 877 322 836 209 754 115 c 0
 670 23 575 -25 467 -25 c 0
 365 -25 276 10 209 82 c 0
 139 154 100 254 92 385 c 1
EndSplineSet
EndChar
StartChar: four
Encoding: 52 52
Width: 933
Flags: HW
Fore
504 0 m 1
 567 375 l 1
 78 375 l 1
 109 553 l 1
 780 1466 l 1
 903 1466 l 1
 743 535 l 1
 911 535 l 1
 885 375 l 1
 715 375 l 1
 651 0 l 1
 504 0 l 1
596 535 m 1
 698 1147 l 1
 252 535 l 1
 596 535 l 1
EndSplineSet
EndChar
StartChar: five
Encoding: 53 53
Width: 933
Flags: HW
Fore
119 420 m 1
 268 436 l 1
 266 389 l 1
 266 342 276 295 297 250 c 0
 317 205 344 172 373 152 c 0
 403 129 436 119 469 119 c 0
 512 119 555 137 602 172 c 0
 647 207 688 262 721 336 c 0
 754 410 768 487 768 565 c 0
 768 651 750 717 709 766 c 0
 668 813 616 838 555 838 c 0
 467 838 391 786 324 684 c 1
 195 696 l 1
 375 1446 l 1
 961 1446 l 1
 934 1280 l 1
 475 1280 l 1
 385 907 l 1
 453 967 524 997 600 997 c 0
 690 997 764 961 825 889 c 0
 885 817 915 715 915 582 c 0
 915 399 868 250 770 129 c 0
 686 27 584 -25 459 -25 c 0
 395 -25 338 -8 289 23 c 0
 238 55 197 104 166 172 c 0
 133 238 117 309 117 387 c 1
 119 420 l 1
EndSplineSet
EndChar
StartChar: six
Encoding: 54 54
Width: 933
Flags: HW
Fore
338 850 m 1
 381 893 422 924 463 944 c 0
 504 965 545 977 584 977 c 0
 674 977 748 938 809 864 c 0
 870 791 899 686 899 555 c 0
 899 385 854 240 762 123 c 0
 686 25 594 -25 489 -25 c 0
 393 -25 309 18 242 106 c 0
 174 193 139 319 139 489 c 0
 139 639 164 801 211 969 c 0
 258 1139 326 1270 412 1360 c 0
 485 1436 569 1473 664 1473 c 0
 743 1473 811 1442 862 1380 c 0
 915 1321 946 1231 954 1110 c 1
 815 1096 l 1
 801 1245 745 1321 653 1321 c 0
 612 1321 573 1305 539 1274 c 0
 485 1229 442 1163 408 1079 c 0
 375 995 350 920 338 850 c 1
287 412 m 0
 287 328 307 258 350 203 c 0
 393 147 440 119 492 119 c 0
 553 119 608 156 662 229 c 0
 727 317 760 422 760 539 c 0
 760 627 739 698 698 752 c 0
 657 805 610 831 555 831 c 0
 489 831 428 793 371 715 c 0
 313 639 287 537 287 412 c 0
EndSplineSet
EndChar
StartChar: seven
Encoding: 55 55
Width: 933
Flags: HW
Fore
244 0 m 1
 262 127 299 276 356 444 c 0
 414 614 481 770 559 915 c 0
 637 1059 719 1180 805 1280 c 1
 205 1280 l 1
 233 1446 l 1
 1001 1446 l 1
 973 1280 l 1
 846 1145 737 975 643 768 c 0
 524 506 442 250 399 0 c 1
 244 0 l 1
EndSplineSet
EndChar
StartChar: eight
Encoding: 56 56
Width: 933
Flags: HW
Fore
379 807 m 1
 334 836 299 872 276 918 c 0
 256 963 244 1014 244 1073 c 0
 244 1167 276 1257 340 1343 c 0
 403 1430 494 1473 608 1473 c 0
 709 1473 788 1440 852 1372 c 0
 915 1307 946 1221 946 1114 c 0
 946 1040 930 975 897 920 c 0
 862 862 811 819 743 784 c 1
 795 745 831 702 854 655 c 0
 877 606 889 549 889 485 c 0
 889 334 848 211 766 117 c 0
 682 20 584 -27 469 -27 c 0
 371 -27 291 10 223 84 c 0
 158 158 125 254 125 373 c 0
 125 442 137 510 160 573 c 0
 182 637 211 688 246 723 c 0
 281 760 326 786 379 807 c 1
389 1065 m 0
 389 999 408 948 440 911 c 0
 475 874 520 856 575 856 c 0
 641 856 694 881 739 930 c 0
 782 977 805 1040 805 1116 c 0
 805 1182 788 1233 754 1270 c 0
 719 1309 674 1327 618 1327 c 0
 578 1327 541 1317 506 1294 c 0
 471 1272 442 1241 422 1198 c 0
 401 1157 389 1112 389 1065 c 0
274 358 m 0
 274 287 293 227 334 184 c 0
 373 141 424 119 483 119 c 0
 559 119 621 158 668 238 c 0
 715 317 737 399 737 487 c 0
 737 559 719 616 682 659 c 0
 645 700 598 723 541 723 c 0
 469 723 406 688 352 623 c 0
 301 557 274 469 274 358 c 0
EndSplineSet
EndChar
StartChar: nine
Encoding: 57 57
Width: 933
Flags: HW
Fore
113 336 m 1
 252 352 l 1
 270 201 324 127 414 127 c 0
 471 127 526 158 573 219 c 0
 645 309 696 434 729 596 c 1
 676 547 631 514 592 496 c 0
 553 477 516 469 479 469 c 0
 395 469 324 506 260 582 c 0
 199 657 168 762 168 897 c 0
 168 1042 207 1176 283 1294 c 0
 358 1413 457 1473 580 1473 c 0
 678 1473 760 1427 825 1339 c 0
 893 1251 926 1124 926 958 c 0
 926 762 897 582 838 416 c 0
 780 250 713 135 639 70 c 0
 565 6 485 -25 406 -25 c 0
 326 -25 258 6 205 68 c 0
 150 129 119 217 113 336 c 1
311 915 m 0
 311 821 332 748 373 694 c 0
 412 641 461 614 514 614 c 0
 588 614 653 662 709 754 c 0
 760 840 784 930 784 1028 c 0
 784 1087 774 1139 754 1188 c 0
 733 1235 707 1270 674 1292 c 0
 641 1315 610 1327 575 1327 c 0
 539 1327 500 1311 459 1280 c 0
 418 1247 383 1196 354 1128 c 0
 326 1059 311 987 311 915 c 0
EndSplineSet
EndChar
StartChar: colon
Encoding: 58 58
Width: 466
Flags: HW
Fore
244 856 m 1
 279 1063 l 1
 446 1063 l 1
 412 856 l 1
 244 856 l 1
96 0 m 1
 131 205 l 1
 299 205 l 1
 264 0 l 1
 96 0 l 1
EndSplineSet
EndChar
StartChar: semicolon
Encoding: 59 59
Width: 466
Flags: HW
Fore
240 856 m 1
 274 1063 l 1
 440 1063 l 1
 406 856 l 1
 240 856 l 1
92 0 m 1
 127 205 l 1
 297 205 l 1
 266 27 l 1
 231 -172 158 -279 41 -297 c 1
 55 -217 l 1
 119 -195 162 -123 184 0 c 1
 92 0 l 1
EndSplineSet
EndChar
StartChar: less
Encoding: 60 60
Width: 980
Flags: HW
Fore
90 641 m 1
 90 809 l 1
 887 1219 l 1
 887 1040 l 1
 256 725 l 1
 887 406 l 1
 887 225 l 1
 90 641 l 1
EndSplineSet
EndChar
StartChar: equal
Encoding: 61 61
Width: 980
Flags: HW
Fore
887 862 m 1
 92 862 l 1
 92 1030 l 1
 887 1030 l 1
 887 862 l 1
887 418 m 1
 92 418 l 1
 92 586 l 1
 887 586 l 1
 887 418 l 1
EndSplineSet
EndChar
StartChar: greater
Encoding: 62 62
Width: 980
Flags: HW
Fore
887 641 m 1
 90 225 l 1
 90 406 l 1
 723 725 l 1
 90 1040 l 1
 90 1219 l 1
 887 809 l 1
 887 641 l 1
EndSplineSet
EndChar
StartChar: question
Encoding: 63 63
Width: 933
Flags: HW
Fore
352 367 m 1
 358 426 369 479 385 524 c 0
 401 569 422 612 451 651 c 0
 477 690 528 748 602 821 c 0
 682 899 733 963 758 1010 c 0
 782 1057 795 1102 795 1145 c 0
 795 1200 776 1249 737 1288 c 0
 700 1327 653 1346 600 1346 c 0
 539 1346 487 1323 446 1276 c 0
 406 1229 377 1149 362 1034 c 1
 213 1065 l 1
 238 1210 283 1317 352 1386 c 0
 420 1456 502 1491 596 1491 c 0
 694 1491 776 1458 844 1389 c 0
 909 1321 942 1235 942 1130 c 0
 942 1055 920 981 877 913 c 0
 846 864 780 791 680 690 c 0
 608 623 563 567 541 526 c 0
 518 487 502 434 494 367 c 1
 352 367 l 1
281 0 m 1
 315 205 l 1
 483 205 l 1
 446 0 l 1
 281 0 l 1
EndSplineSet
EndChar
StartChar: at
Encoding: 64 64
Width: 1703
Flags: HW
Fore
952 164 m 1
 913 109 868 63 819 33 c 0
 780 8 741 -2 700 -2 c 0
 653 -2 608 14 561 47 c 0
 516 82 479 133 449 205 c 0
 420 276 403 354 403 442 c 0
 403 555 428 666 475 772 c 0
 522 879 578 956 641 1008 c 0
 707 1059 770 1083 829 1083 c 0
 883 1083 928 1069 971 1038 c 0
 1012 1008 1047 961 1077 899 c 1
 1106 1055 l 1
 1253 1055 l 1
 1135 385 l 1
 1118 291 1110 240 1110 229 c 0
 1110 209 1116 195 1128 182 c 0
 1139 170 1153 164 1167 164 c 0
 1196 164 1237 186 1292 233 c 0
 1346 281 1391 348 1427 436 c 0
 1464 526 1483 621 1483 719 c 0
 1483 838 1458 946 1407 1042 c 0
 1354 1139 1284 1212 1194 1266 c 0
 1104 1321 1004 1348 897 1348 c 0
 772 1348 659 1313 557 1245 c 0
 457 1178 373 1077 309 942 c 0
 246 809 213 655 213 485 c 0
 213 322 242 180 299 66 c 0
 356 -47 438 -135 545 -195 c 0
 651 -254 778 -283 924 -283 c 0
 1055 -283 1171 -256 1270 -201 c 0
 1370 -145 1446 -72 1497 18 c 1
 1645 18 l 1
 1612 -61 1559 -139 1483 -213 c 0
 1409 -287 1325 -342 1235 -377 c 0
 1145 -414 1040 -430 922 -430 c 0
 750 -430 602 -395 481 -326 c 0
 360 -256 266 -154 197 -20 c 0
 127 115 92 279 92 471 c 0
 92 672 131 854 207 1018 c 0
 285 1182 381 1300 498 1378 c 0
 614 1454 750 1493 903 1493 c 0
 1036 1493 1155 1460 1260 1397 c 0
 1364 1333 1448 1239 1511 1116 c 0
 1573 995 1606 858 1606 709 c 0
 1606 512 1546 340 1430 186 c 0
 1331 59 1227 -4 1112 -4 c 0
 1057 -4 1018 10 995 37 c 0
 971 63 958 106 952 164 c 1
555 434 m 0
 555 342 573 270 610 219 c 0
 647 170 688 145 735 145 c 0
 772 145 815 164 860 203 c 0
 907 242 948 303 981 385 c 0
 1014 467 1030 555 1030 645 c 0
 1030 739 1012 813 975 862 c 0
 938 911 893 936 840 936 c 0
 799 936 758 918 717 883 c 0
 676 848 639 786 606 696 c 0
 573 608 555 520 555 434 c 0
EndSplineSet
EndChar
StartChar: A
Encoding: 65 65
Width: 1118
Flags: HW
Fore
-33 0 m 1
 647 1466 l 1
 838 1466 l 1
 1036 0 l 1
 881 0 l 1
 821 422 l 1
 336 422 l 1
 143 0 l 1
 -33 0 l 1
406 573 m 1
 803 573 l 1
 756 940 l 2
 737 1085 727 1208 723 1307 c 1
 696 1223 655 1122 602 1008 c 2
 406 573 l 1
EndSplineSet
EndChar
StartChar: B
Encoding: 66 66
Width: 1118
Flags: HW
Fore
74 0 m 1
 324 1466 l 1
 696 1466 l 2
 788 1466 854 1458 899 1442 c 0
 963 1419 1012 1380 1047 1325 c 0
 1083 1270 1100 1200 1100 1116 c 0
 1100 1034 1081 963 1044 903 c 0
 1008 842 952 797 879 766 c 1
 942 739 989 700 1024 649 c 0
 1057 598 1073 537 1073 465 c 0
 1073 381 1053 301 1012 225 c 0
 973 152 922 94 858 57 c 0
 797 18 729 0 655 0 c 2
 74 0 l 1
379 840 m 1
 623 840 l 2
 739 840 821 860 866 901 c 1
 922 952 948 1022 948 1108 c 0
 948 1151 940 1188 924 1217 c 0
 905 1247 883 1270 856 1280 c 0
 829 1292 782 1298 713 1298 c 2
 457 1298 l 1
 379 840 l 1
262 166 m 1
 537 166 l 2
 608 166 655 168 680 174 c 0
 723 184 762 199 795 221 c 0
 827 244 854 276 877 319 c 0
 897 362 907 412 907 463 c 0
 907 535 889 590 852 623 c 0
 815 655 750 674 655 674 c 2
 348 674 l 1
 262 166 l 1
EndSplineSet
EndChar
StartChar: C
Encoding: 67 67
Width: 1210
Flags: HW
Fore
1012 516 m 1
 1171 489 l 1
 1120 317 1047 188 948 102 c 0
 850 18 743 -25 629 -25 c 0
 485 -25 371 29 283 133 c 0
 197 240 152 397 152 604 c 0
 152 846 207 1051 317 1219 c 0
 436 1401 590 1491 780 1491 c 0
 901 1491 1004 1450 1085 1370 c 0
 1165 1290 1212 1176 1227 1030 c 1
 1075 1014 l 1
 1044 1223 948 1329 786 1329 c 0
 645 1329 530 1257 442 1112 c 0
 356 969 311 797 311 600 c 0
 311 446 342 332 406 254 c 0
 467 176 545 137 639 137 c 0
 721 137 793 166 854 225 c 0
 930 297 981 393 1012 516 c 1
EndSplineSet
EndChar
StartChar: D
Encoding: 68 68
Width: 1210
Flags: HW
Fore
74 0 m 1
 326 1466 l 1
 688 1466 l 2
 770 1466 831 1460 874 1448 c 0
 936 1430 993 1395 1042 1346 c 0
 1090 1296 1128 1231 1155 1149 c 0
 1182 1067 1194 973 1194 866 c 0
 1194 725 1174 596 1130 479 c 0
 1085 365 1032 268 967 193 c 0
 903 117 827 66 741 35 c 0
 676 12 598 0 508 0 c 2
 74 0 l 1
262 166 m 1
 455 166 l 2
 543 166 618 176 682 195 c 0
 743 213 799 250 850 305 c 0
 899 360 942 438 977 537 c 0
 1014 637 1032 750 1032 877 c 0
 1032 987 1016 1075 985 1141 c 0
 952 1206 909 1251 854 1274 c 0
 815 1290 754 1298 670 1298 c 2
 457 1298 l 1
 262 166 l 1
EndSplineSet
EndChar
StartChar: E
Encoding: 69 69
Width: 1118
Flags: HW
Fore
76 0 m 1
 328 1466 l 1
 1194 1466 l 1
 1167 1298 l 1
 459 1298 l 1
 381 844 l 1
 1069 844 l 1
 1040 676 l 1
 352 676 l 1
 264 166 l 1
 1022 166 l 1
 993 0 l 1
 76 0 l 1
EndSplineSet
EndChar
StartChar: F
Encoding: 70 70
Width: 1024
Flags: HW
Fore
76 0 m 1
 328 1466 l 1
 1108 1466 l 1
 1079 1298 l 1
 459 1298 l 1
 379 831 l 1
 1012 831 l 1
 983 666 l 1
 350 666 l 1
 238 0 l 1
 76 0 l 1
EndSplineSet
EndChar
StartChar: G
Encoding: 71 71
Width: 1306
Flags: HW
Fore
688 578 m 1
 717 743 l 1
 1243 743 l 1
 1141 147 l 1
 1071 94 995 51 909 20 c 0
 825 -10 743 -25 664 -25 c 0
 494 -25 369 33 287 150 c 0
 205 264 164 410 164 588 c 0
 164 766 195 926 260 1071 c 0
 326 1214 406 1321 502 1389 c 0
 598 1456 707 1491 823 1491 c 4
 963 1491 1075 1442 1161 1346 c 0
 1223 1278 1266 1174 1286 1036 c 1
 1128 1016 l 1
 1112 1120 1075 1198 1022 1249 c 0
 967 1303 899 1327 817 1327 c 0
 733 1327 653 1300 580 1245 c 0
 506 1190 444 1104 397 989 c 0
 350 874 326 739 326 584 c 0
 326 432 356 319 418 246 c 0
 479 174 561 137 664 137 c 0
 768 137 879 178 999 262 c 1
 1055 578 l 1
 688 578 l 1
EndSplineSet
EndChar
StartChar: H
Encoding: 72 72
Width: 1210
Flags: HW
Fore
70 0 m 1
 322 1466 l 1
 481 1466 l 1
 379 856 l 1
 1001 856 l 1
 1106 1466 l 1
 1266 1466 l 1
 1016 0 l 1
 854 0 l 1
 973 690 l 1
 348 690 l 1
 231 0 l 1
 70 0 l 1
EndSplineSet
EndChar
StartChar: I
Encoding: 73 73
Width: 466
Flags: HW
Fore
96 0 m 1
 346 1466 l 1
 508 1466 l 1
 256 0 l 1
 96 0 l 1
EndSplineSet
EndChar
StartChar: J
Encoding: 74 74
Width: 839
Flags: HW
Fore
68 426 m 1
 217 440 l 1
 207 383 203 342 203 313 c 0
 203 258 217 215 246 184 c 0
 276 152 313 137 360 137 c 0
 393 137 422 145 449 164 c 0
 475 180 496 207 512 242 c 0
 530 279 545 340 559 426 c 1
 737 1466 l 1
 899 1466 l 1
 717 395 l 2
 690 242 647 135 586 70 c 0
 526 6 449 -25 356 -25 c 0
 262 -25 188 2 135 55 c 0
 82 109 55 188 55 295 c 0
 55 340 59 383 68 426 c 1
EndSplineSet
EndChar
StartChar: K
Encoding: 75 75
Width: 1118
Flags: HW
Fore
76 0 m 1
 326 1466 l 1
 487 1466 l 1
 367 760 l 1
 1020 1466 l 1
 1245 1466 l 1
 686 868 l 1
 1096 0 l 1
 918 0 l 1
 569 743 l 1
 317 475 l 1
 236 0 l 1
 76 0 l 1
EndSplineSet
EndChar
StartChar: L
Encoding: 76 76
Width: 933
Flags: HW
Fore
68 0 m 1
 317 1466 l 1
 479 1466 l 1
 256 166 l 1
 881 166 l 1
 852 0 l 1
 68 0 l 1
EndSplineSet
EndChar
StartChar: M
Encoding: 77 77
Width: 1398
Flags: HW
Fore
74 0 m 1
 326 1466 l 1
 522 1466 l 1
 643 516 l 1
 659 389 670 270 676 158 c 1
 709 256 764 389 842 557 c 1
 1264 1466 l 1
 1464 1466 l 1
 1214 0 l 1
 1057 0 l 1
 1182 713 l 1
 1210 879 1251 1063 1307 1268 c 1
 1272 1171 1229 1069 1178 958 c 2
 729 0 l 1
 575 0 l 1
 455 940 l 2
 442 1022 436 1122 430 1241 c 1
 418 1116 403 1014 391 936 c 1
 229 0 l 1
 74 0 l 1
EndSplineSet
EndChar
StartChar: N
Encoding: 78 78
Width: 1210
Flags: HW
Fore
82 0 m 1
 332 1466 l 1
 489 1466 l 1
 690 915 l 1
 752 754 799 618 831 510 c 0
 856 434 883 338 909 221 c 1
 926 348 944 475 967 604 c 2
 1114 1466 l 1
 1270 1466 l 1
 1020 0 l 1
 860 0 l 1
 561 848 l 1
 508 997 467 1128 436 1241 c 1
 430 1147 414 1030 389 891 c 2
 238 0 l 1
 82 0 l 1
EndSplineSet
EndChar
StartChar: O
Encoding: 79 79
Width: 1306
Flags: HW
Fore
154 614 m 0
 154 883 221 1100 354 1268 c 0
 475 1417 621 1491 791 1491 c 0
 936 1491 1055 1434 1153 1317 c 0
 1249 1200 1298 1040 1298 834 c 0
 1298 668 1266 516 1202 381 c 0
 1139 246 1059 145 963 78 c 0
 866 8 764 -25 657 -25 c 0
 565 -25 481 0 408 49 c 0
 334 98 272 172 225 272 c 0
 178 373 154 487 154 614 c 0
311 604 m 0
 311 463 348 348 418 264 c 0
 489 180 571 137 670 137 c 0
 741 137 815 164 885 217 c 0
 956 272 1016 356 1065 473 c 0
 1114 588 1139 715 1139 852 c 0
 1139 999 1104 1116 1034 1200 c 0
 965 1286 883 1327 784 1327 c 0
 670 1327 569 1272 477 1161 c 0
 367 1024 311 840 311 604 c 0
EndSplineSet
EndChar
StartChar: P
Encoding: 80 80
Width: 1118
Flags: HW
Fore
74 0 m 1
 324 1466 l 1
 827 1466 l 2
 913 1466 979 1454 1020 1430 c 0
 1063 1407 1100 1366 1128 1309 c 0
 1159 1249 1174 1182 1174 1106 c 0
 1174 1008 1149 913 1102 825 c 0
 1055 735 991 676 915 643 c 0
 838 610 745 596 637 596 c 2
 336 596 l 1
 233 0 l 1
 74 0 l 1
365 762 m 1
 629 762 l 2
 725 762 797 772 846 797 c 0
 893 819 934 860 965 915 c 0
 997 973 1014 1034 1014 1100 c 0
 1014 1151 1006 1192 989 1223 c 0
 973 1253 950 1276 922 1288 c 0
 893 1300 840 1307 766 1307 c 2
 459 1307 l 1
 365 762 l 1
EndSplineSet
EndChar
StartChar: Q
Encoding: 81 81
Width: 1306
Flags: HW
Fore
1016 119 m 1
 1055 61 1110 4 1180 -51 c 1
 1110 -168 l 1
 1034 -109 969 -39 913 43 c 1
 838 -2 754 -27 662 -27 c 0
 518 -27 399 33 301 150 c 0
 205 266 156 430 156 639 c 0
 156 803 186 954 250 1090 c 0
 311 1225 391 1325 485 1393 c 0
 580 1458 682 1491 793 1491 c 0
 938 1491 1059 1434 1155 1317 c 0
 1251 1200 1300 1040 1300 834 c 0
 1300 682 1274 545 1223 420 c 0
 1169 295 1102 195 1016 119 c 1
918 244 m 1
 981 303 1034 387 1075 496 c 0
 1118 606 1141 721 1141 842 c 0
 1141 995 1106 1114 1036 1200 c 0
 969 1286 885 1327 786 1327 c 0
 713 1327 639 1300 565 1245 c 0
 492 1190 432 1106 385 995 c 0
 338 885 313 760 313 621 c 0
 313 469 350 350 420 264 c 0
 492 180 578 137 678 137 c 0
 723 137 768 150 811 170 c 1
 762 227 711 270 659 303 c 1
 717 426 l 1
 784 391 852 330 918 244 c 1
EndSplineSet
EndChar
StartChar: R
Encoding: 82 82
Width: 1210
Flags: HW
Fore
80 0 m 1
 330 1466 l 1
 836 1466 l 2
 944 1466 1024 1454 1071 1432 c 0
 1120 1407 1155 1374 1180 1327 c 0
 1210 1266 1227 1194 1227 1110 c 0
 1227 981 1194 881 1126 805 c 0
 1059 731 956 682 821 659 c 1
 866 618 901 578 926 535 c 0
 973 449 1012 362 1040 276 c 2
 1133 0 l 1
 952 0 l 1
 866 272 l 2
 834 377 797 465 758 537 c 0
 731 582 705 612 676 629 c 0
 647 643 602 651 539 651 c 2
 352 651 l 1
 240 0 l 1
 80 0 l 1
379 811 m 1
 600 811 l 2
 723 811 807 815 850 823 c 0
 895 831 932 850 965 877 c 0
 999 903 1024 936 1044 977 c 0
 1063 1018 1073 1063 1073 1112 c 0
 1073 1157 1065 1194 1049 1225 c 0
 1032 1255 1012 1276 987 1288 c 0
 963 1298 920 1305 856 1305 c 2
 463 1305 l 1
 379 811 l 1
EndSplineSet
EndChar
StartChar: S
Encoding: 83 83
Width: 1118
Flags: HW
Fore
119 473 m 1
 276 492 l 1
 274 442 l 1
 274 377 289 319 315 268 c 0
 336 229 369 199 416 174 c 0
 465 150 520 137 588 137 c 0
 678 137 752 162 805 211 c 0
 858 258 885 319 885 391 c 0
 885 442 868 485 840 522 c 0
 809 559 735 608 621 670 c 0
 530 717 469 752 438 776 c 0
 381 819 338 866 309 920 c 0
 283 973 268 1032 268 1100 c 0
 268 1217 305 1311 381 1382 c 0
 455 1454 559 1491 688 1491 c 0
 778 1491 856 1475 920 1440 c 0
 983 1407 1034 1356 1073 1290 c 0
 1110 1225 1128 1155 1128 1081 c 1
 1128 1051 l 1
 973 1034 l 1
 973 1067 l 1
 973 1116 961 1159 938 1200 c 0
 913 1241 881 1272 836 1294 c 0
 793 1317 741 1327 684 1327 c 0
 602 1327 539 1309 492 1268 c 0
 446 1229 424 1176 424 1110 c 0
 424 1051 440 1006 475 973 c 0
 510 940 596 889 731 815 c 0
 831 762 899 717 934 684 c 0
 971 649 997 610 1018 563 c 0
 1036 516 1047 463 1047 403 c 0
 1047 281 1004 178 918 98 c 0
 831 16 719 -25 580 -25 c 0
 430 -25 315 14 238 96 c 0
 160 176 119 301 119 473 c 1
EndSplineSet
EndChar
StartChar: T
Encoding: 84 84
Width: 1024
Flags: HW
Fore
381 0 m 5
 604 1298 l 1
 209 1298 l 1
 238 1466 l 1
 1184 1466 l 1
 1155 1298 l 1
 764 1298 l 1
 543 0 l 1
 381 0 l 5
EndSplineSet
EndChar
StartChar: U
Encoding: 85 85
Width: 1210
Flags: HW
Fore
334 1466 m 1
 494 1466 l 1
 340 565 l 2
 326 489 319 434 319 397 c 0
 319 324 344 260 395 211 c 0
 444 162 510 137 588 137 c 0
 692 137 776 180 842 264 c 0
 893 330 934 461 969 659 c 1
 1106 1466 l 1
 1266 1466 l 1
 1118 606 l 1
 1092 440 1053 313 1006 229 c 0
 956 143 899 80 829 37 c 0
 760 -4 680 -27 594 -27 c 0
 461 -27 356 12 279 90 c 0
 201 166 162 270 162 399 c 0
 162 453 174 541 197 666 c 1
 334 1466 l 1
EndSplineSet
EndChar
StartChar: V
Encoding: 86 86
Width: 1118
Flags: HW
Fore
438 0 m 1
 209 1466 l 1
 362 1466 l 1
 502 592 l 1
 528 434 545 305 553 209 c 1
 604 336 645 434 678 506 c 2
 1106 1466 l 1
 1272 1466 l 1
 610 0 l 1
 438 0 l 1
EndSplineSet
EndChar
StartChar: W
Encoding: 87 87
Width: 1583
Flags: HW
Fore
285 0 m 1
 211 1466 l 1
 373 1466 l 1
 401 741 l 1
 408 582 412 457 412 367 c 1
 410 270 l 1
 555 623 l 1
 920 1466 l 1
 1085 1466 l 1
 1126 608 l 1
 1130 504 1135 387 1135 256 c 1
 1145 289 1161 338 1186 401 c 0
 1225 512 1255 592 1276 639 c 2
 1620 1466 l 1
 1782 1466 l 1
 1171 0 l 1
 999 0 l 1
 958 889 l 1
 954 965 952 1059 948 1167 c 1
 913 1071 887 999 866 952 c 2
 451 0 l 1
 285 0 l 1
EndSplineSet
EndChar
StartChar: X
Encoding: 88 88
Width: 1118
Flags: HW
Fore
-53 0 m 1
 520 741 l 1
 180 1466 l 1
 358 1466 l 1
 512 1135 l 2
 567 1020 606 930 631 864 c 1
 672 932 733 1020 817 1126 c 2
 1081 1466 l 1
 1290 1466 l 1
 711 709 l 1
 1040 0 l 1
 864 0 l 1
 670 428 l 2
 651 469 631 522 604 592 c 1
 575 543 539 492 496 436 c 2
 160 0 l 1
 -53 0 l 1
EndSplineSet
EndChar
StartChar: Y
Encoding: 89 89
Width: 1118
Flags: HW
Fore
469 0 m 1
 567 567 l 1
 197 1466 l 1
 369 1466 l 1
 547 1038 l 2
 584 948 623 848 659 737 c 1
 700 829 756 928 825 1034 c 2
 1108 1466 l 1
 1298 1466 l 1
 725 553 l 1
 631 0 l 1
 469 0 l 1
EndSplineSet
EndChar
StartChar: Z
Encoding: 90 90
Width: 1024
Flags: HW
Fore
41 0 m 1
 55 147 l 1
 784 1210 l 2
 809 1247 834 1280 856 1311 c 1
 805 1303 766 1298 735 1298 c 2
 211 1298 l 1
 240 1466 l 1
 1069 1466 l 1
 1055 1313 l 1
 410 379 l 1
 258 162 l 1
 285 166 311 168 340 168 c 2
 961 168 l 1
 932 0 l 1
 41 0 l 1
EndSplineSet
EndChar
StartChar: bracketleft
Encoding: 91 91
Width: 466
Flags: HW
Fore
10 -401 m 1
 328 1466 l 1
 657 1466 l 1
 635 1327 l 1
 453 1327 l 1
 180 -262 l 1
 362 -262 l 1
 340 -401 l 1
 10 -401 l 1
EndSplineSet
EndChar
StartChar: backslash
Encoding: 92 92
Width: 466
Flags: HW
Fore
344 -25 m 1
 143 1491 l 1
 258 1491 l 1
 459 -25 l 1
 344 -25 l 1
EndSplineSet
EndChar
StartChar: bracketright
Encoding: 93 93
Width: 466
Flags: HW
Fore
229 -401 m 1
 -98 -401 l 1
 -74 -262 l 1
 106 -262 l 1
 379 1327 l 1
 199 1327 l 1
 223 1466 l 1
 553 1466 l 1
 229 -401 l 1
EndSplineSet
EndChar
StartChar: asciicircum
Encoding: 94 94
Width: 786
Flags: HW
Fore
197 690 m 1
 45 690 l 1
 336 1491 l 1
 455 1491 l 1
 743 690 l 1
 596 690 l 1
 393 1286 l 1
 197 690 l 1
EndSplineSet
EndChar
StartChar: underscore
Encoding: 95 95
Width: 933
Flags: HW
Fore
-12 -154 m 1
 942 -154 l 1
 942 -256 l 1
 -12 -256 l 1
 -12 -154 l 1
EndSplineSet
EndChar
StartChar: grave
Encoding: 96 96
Width: 557
Flags: HW
Fore
406 1192 m 1
 246 1466 l 1
 426 1466 l 1
 520 1192 l 1
 406 1192 l 1
EndSplineSet
EndChar
StartChar: a
Encoding: 97 97
Width: 933
Flags: HW
Fore
643 131 m 1
 588 74 537 35 489 10 c 0
 440 -12 393 -25 342 -25 c 0
 266 -25 201 4 150 59 c 0
 100 115 74 190 74 285 c 0
 74 352 88 412 119 463 c 0
 147 514 188 553 242 580 c 0
 295 606 371 623 469 627 c 0
 553 631 610 637 641 641 c 0
 672 647 698 655 721 666 c 1
 731 717 737 758 737 791 c 0
 737 836 721 870 690 897 c 0
 657 924 610 938 549 938 c 0
 426 938 346 872 309 743 c 1
 160 760 l 1
 223 977 356 1085 557 1085 c 0
 657 1085 737 1059 797 1008 c 0
 854 954 885 889 885 811 c 0
 885 754 877 688 864 612 c 1
 815 348 l 2
 801 264 793 197 793 145 c 0
 793 109 799 59 811 0 c 1
 662 0 l 1
 653 33 647 78 643 131 c 1
698 539 m 1
 662 520 600 508 512 498 c 0
 422 489 360 477 328 463 c 0
 295 446 268 426 250 395 c 0
 231 365 221 330 221 291 c 0
 221 238 238 195 266 164 c 0
 297 131 338 117 387 117 c 0
 434 117 479 131 524 160 c 0
 567 188 604 231 631 287 c 0
 659 342 682 426 698 539 c 1
EndSplineSet
EndChar
StartChar: b
Encoding: 98 98
Width: 933
Flags: HW
Fore
55 0 m 1
 307 1466 l 1
 457 1466 l 1
 367 942 l 1
 414 995 457 1034 496 1055 c 0
 535 1075 573 1085 612 1085 c 0
 692 1085 760 1051 815 977 c 0
 870 905 899 797 899 653 c 0
 899 520 877 399 831 293 c 0
 786 184 733 104 668 53 c 0
 602 2 537 -25 473 -25 c 0
 354 -25 270 51 221 201 c 1
 186 0 l 1
 55 0 l 1
276 436 m 1
 274 397 l 1
 274 307 293 240 330 193 c 0
 367 147 412 125 465 125 c 0
 506 125 549 141 590 176 c 0
 631 211 670 276 702 371 c 0
 735 465 754 557 754 647 c 0
 754 745 735 817 700 866 c 0
 664 915 618 940 565 940 c 0
 516 940 471 915 426 868 c 0
 379 821 342 743 309 635 c 0
 287 555 276 489 276 436 c 1
EndSplineSet
EndChar
StartChar: c
Encoding: 99 99
Width: 839
Flags: HW
Fore
655 387 m 1
 805 369 l 1
 768 236 715 137 645 72 c 0
 575 8 498 -25 414 -25 c 0
 322 -25 246 12 184 86 c 0
 125 158 94 262 94 401 c 0
 94 537 117 659 160 770 c 0
 205 881 260 961 328 1012 c 0
 395 1061 471 1085 555 1085 c 0
 643 1085 717 1055 772 991 c 0
 829 930 858 844 856 733 c 1
 711 723 l 1
 711 791 694 844 662 881 c 0
 631 918 590 938 543 938 c 0
 489 938 442 920 401 885 c 0
 358 850 322 784 291 690 c 0
 260 596 244 492 244 377 c 0
 244 291 260 227 295 182 c 0
 328 137 369 117 416 117 c 0
 463 117 510 139 553 182 c 0
 598 227 631 295 655 387 c 1
EndSplineSet
EndChar
StartChar: d
Encoding: 100 100
Width: 933
Flags: HW
Fore
641 154 m 1
 557 35 469 -25 377 -25 c 0
 297 -25 227 12 172 86 c 0
 117 158 88 266 88 412 c 0
 88 543 111 662 156 770 c 0
 199 879 254 958 319 1010 c 0
 385 1061 451 1085 514 1085 c 0
 623 1085 702 1022 758 895 c 1
 856 1466 l 1
 1004 1466 l 1
 754 0 l 1
 616 0 l 1
 641 154 l 1
236 444 m 1
 236 401 l 1
 236 313 256 242 297 186 c 0
 328 143 369 121 420 121 c 0
 487 121 547 164 602 250 c 0
 676 362 713 504 713 670 c 0
 713 754 694 821 655 866 c 0
 618 913 573 938 522 938 c 0
 473 938 426 915 383 870 c 0
 338 825 303 758 276 670 c 0
 250 580 236 506 236 444 c 1
EndSplineSet
EndChar
StartChar: e
Encoding: 101 101
Width: 933
Flags: HW
Fore
694 360 m 1
 840 342 l 1
 815 240 760 150 674 74 c 0
 600 8 520 -25 430 -25 c 0
 367 -25 309 -6 256 27 c 0
 205 61 164 113 133 182 c 0
 102 250 86 332 86 426 c 0
 86 551 111 668 158 774 c 0
 205 883 262 963 330 1012 c 0
 397 1061 471 1085 551 1085 c 0
 651 1085 733 1049 797 971 c 0
 860 895 893 786 893 645 c 0
 893 594 889 541 883 485 c 1
 240 485 l 1
 238 465 238 446 238 428 c 0
 238 330 256 254 295 201 c 0
 332 150 377 125 430 125 c 0
 481 125 532 143 580 184 c 0
 629 225 668 285 694 360 c 1
264 625 m 1
 754 625 l 1
 754 662 l 2
 754 756 735 827 696 874 c 0
 659 922 612 944 555 944 c 0
 492 944 434 918 381 864 c 0
 330 811 291 731 264 625 c 1
EndSplineSet
EndChar
StartChar: f
Encoding: 102 102
Width: 466
Flags: HW
Fore
78 0 m 1
 236 922 l 1
 102 922 l 1
 127 1063 l 1
 258 1063 l 1
 285 1212 l 2
 303 1317 326 1386 350 1419 c 0
 389 1466 446 1491 522 1491 c 0
 559 1491 614 1481 686 1462 c 1
 659 1305 l 1
 608 1321 567 1327 532 1327 c 0
 504 1327 481 1319 467 1300 c 0
 451 1282 438 1241 426 1176 c 2
 408 1063 l 1
 573 1063 l 1
 549 922 l 1
 383 922 l 1
 225 0 l 1
 78 0 l 1
EndSplineSet
EndChar
StartChar: g
Encoding: 103 103
Width: 933
Flags: HW
Fore
47 -96 m 1
 199 -113 l 1
 199 -137 l 2
 199 -182 211 -217 238 -242 c 0
 262 -264 303 -276 358 -276 c 0
 444 -276 508 -250 549 -197 c 0
 575 -158 602 -74 625 57 c 2
 639 143 l 1
 561 47 479 0 393 0 c 0
 307 0 233 39 174 117 c 0
 113 195 84 307 84 455 c 0
 84 569 106 680 152 782 c 0
 199 885 254 961 319 1010 c 0
 387 1061 453 1085 518 1085 c 0
 633 1085 721 1020 782 889 c 1
 813 1063 l 1
 948 1063 l 5
 772 37 l 1
 745 -117 707 -229 651 -297 c 0
 584 -383 492 -426 375 -426 c 0
 264 -426 182 -401 127 -352 c 0
 72 -303 43 -236 43 -150 c 0
 43 -133 45 -117 47 -96 c 1
233 469 m 0
 233 391 242 328 258 285 c 0
 276 240 299 205 328 182 c 0
 358 160 389 147 424 147 c 0
 467 147 512 166 559 203 c 0
 604 240 645 303 678 389 c 0
 711 475 727 563 727 653 c 0
 727 743 709 813 668 864 c 0
 627 915 580 940 522 940 c 0
 475 940 430 920 385 879 c 0
 340 838 303 774 276 690 c 0
 248 606 233 532 233 469 c 0
EndSplineSet
EndChar
StartChar: h
Encoding: 104 104
Width: 933
Flags: HW
Fore
55 0 m 1
 307 1466 l 1
 457 1466 l 1
 358 903 l 1
 418 971 469 1020 518 1047 c 0
 565 1073 612 1085 662 1085 c 0
 729 1085 784 1063 825 1020 c 0
 868 975 889 913 889 836 c 0
 889 797 879 727 862 627 c 1
 756 0 l 1
 606 0 l 1
 717 643 l 2
 733 735 741 795 741 819 c 0
 741 854 731 883 709 905 c 0
 688 926 662 938 627 938 c 0
 575 938 526 922 477 891 c 0
 430 858 393 813 362 754 c 0
 334 694 307 594 283 457 c 2
 205 0 l 1
 55 0 l 1
EndSplineSet
EndChar
StartChar: i
Encoding: 105 105
Width: 372
Flags: HW
Fore
266 1262 m 1
 301 1466 l 1
 449 1466 l 1
 414 1262 l 1
 266 1262 l 1
49 0 m 1
 231 1063 l 1
 381 1063 l 1
 199 0 l 1
 49 0 l 1
EndSplineSet
EndChar
StartChar: j
Encoding: 106 106
Width: 372
Flags: HW
Fore
266 1262 m 1
 301 1466 l 1
 449 1466 l 1
 412 1262 l 1
 266 1262 l 1
-205 -399 m 1
 -178 -246 l 1
 -143 -256 -115 -262 -86 -262 c 0
 -55 -262 -29 -248 -10 -221 c 0
 8 -195 27 -125 47 -10 c 1
 229 1063 l 1
 379 1063 l 1
 188 -43 l 2
 166 -182 137 -279 106 -328 c 0
 66 -393 8 -426 -63 -426 c 0
 -102 -426 -150 -416 -205 -399 c 1
EndSplineSet
EndChar
StartChar: k
Encoding: 107 107
Width: 839
Flags: HW
Fore
57 0 m 1
 307 1466 l 1
 457 1466 l 1
 301 557 l 1
 733 1063 l 1
 930 1063 l 1
 557 666 l 1
 782 0 l 1
 621 0 l 1
 446 545 l 1
 266 354 l 1
 205 0 l 1
 57 0 l 1
EndSplineSet
EndChar
StartChar: l
Encoding: 108 108
Width: 372
Flags: HW
Fore
43 0 m 1
 295 1466 l 1
 444 1466 l 1
 193 0 l 1
 43 0 l 1
EndSplineSet
EndChar
StartChar: m
Encoding: 109 109
Width: 1398
Flags: HW
Fore
53 0 m 1
 236 1063 l 1
 385 1063 l 1
 354 887 l 1
 412 967 461 1018 506 1044 c 0
 549 1073 594 1085 643 1085 c 0
 696 1085 741 1069 778 1034 c 0
 815 1001 840 952 852 887 c 1
 895 954 942 1004 991 1036 c 0
 1040 1069 1092 1085 1147 1085 c 0
 1214 1085 1268 1065 1307 1024 c 0
 1346 985 1364 926 1364 848 c 0
 1364 813 1358 760 1343 684 c 1
 1227 0 l 1
 1079 0 l 1
 1198 702 l 1
 1208 760 1214 801 1214 825 c 0
 1214 862 1204 889 1186 909 c 0
 1167 928 1143 938 1110 938 c 0
 1069 938 1026 922 981 891 c 0
 936 860 899 819 872 766 c 0
 846 713 821 629 803 514 c 1
 715 0 l 1
 565 0 l 1
 688 717 l 1
 696 766 700 801 700 821 c 0
 700 858 692 885 674 905 c 0
 655 926 633 938 604 938 c 0
 539 938 477 903 418 836 c 0
 358 770 315 657 289 502 c 1
 203 0 l 1
 53 0 l 1
EndSplineSet
EndChar
StartChar: n
Encoding: 110 110
Width: 933
Flags: HW
Fore
55 0 m 1
 238 1063 l 1
 373 1063 l 1
 342 877 l 1
 403 956 461 1010 512 1040 c 0
 563 1071 612 1085 662 1085 c 0
 729 1085 782 1063 825 1018 c 0
 866 973 887 909 887 825 c 0
 887 788 881 727 864 643 c 1
 756 0 l 1
 606 0 l 1
 723 674 l 2
 733 739 739 788 739 819 c 0
 739 856 729 885 707 905 c 0
 686 926 657 938 623 938 c 0
 547 938 479 903 420 838 c 0
 360 772 317 657 289 494 c 2
 205 0 l 1
 55 0 l 1
EndSplineSet
EndChar
StartChar: o
Encoding: 111 111
Width: 933
Flags: HW
Fore
82 403 m 0
 82 594 125 756 211 889 c 0
 297 1020 412 1085 557 1085 c 0
 657 1085 741 1047 809 969 c 0
 874 891 907 782 907 639 c 0
 907 506 885 389 840 287 c 0
 795 182 735 104 664 53 c 0
 592 2 518 -25 438 -25 c 0
 336 -25 250 14 182 90 c 0
 115 166 82 270 82 403 c 0
231 422 m 0
 231 319 252 244 291 193 c 0
 332 141 381 117 440 117 c 0
 487 117 537 135 584 174 c 0
 631 211 672 274 707 365 c 0
 741 453 760 543 760 637 c 0
 760 739 739 815 700 868 c 0
 659 920 610 946 553 946 c 0
 500 946 451 928 403 889 c 0
 354 852 313 788 281 700 c 0
 248 612 231 520 231 422 c 0
EndSplineSet
EndChar
StartChar: p
Encoding: 112 112
Width: 933
Flags: HW
Fore
-16 -408 m 1
 236 1063 l 1
 373 1063 l 1
 346 913 l 1
 399 981 444 1026 485 1051 c 0
 524 1073 567 1085 610 1085 c 0
 692 1085 760 1051 815 977 c 0
 870 905 899 799 899 657 c 0
 899 526 877 406 831 297 c 0
 786 188 727 104 653 45 c 0
 596 0 537 -25 473 -25 c 0
 369 -25 287 41 229 170 c 1
 131 -408 l 1
 -16 -408 l 1
274 399 m 0
 274 309 293 242 330 195 c 0
 367 147 412 125 467 125 c 0
 510 125 547 139 580 168 c 0
 627 209 668 276 700 371 c 0
 735 467 752 563 752 659 c 0
 752 750 733 819 698 868 c 0
 662 915 616 940 565 940 c 0
 524 940 481 922 438 885 c 0
 397 848 358 782 326 688 c 0
 291 596 274 500 274 399 c 0
EndSplineSet
EndChar
StartChar: q
Encoding: 113 113
Width: 933
Flags: HW
Fore
618 121 m 1
 535 25 455 -25 381 -25 c 0
 299 -25 229 12 172 86 c 0
 115 160 86 268 86 410 c 0
 86 543 109 664 154 770 c 0
 197 879 252 958 317 1010 c 0
 383 1061 449 1085 516 1085 c 0
 569 1085 616 1067 662 1032 c 0
 705 995 739 940 768 866 c 1
 801 1063 l 1
 930 1063 l 1
 678 -408 l 1
 528 -408 l 1
 618 121 l 1
233 432 m 0
 233 326 252 248 289 199 c 0
 324 150 369 125 420 125 c 0
 461 125 498 141 535 172 c 0
 586 217 629 287 662 377 c 0
 696 469 713 563 713 659 c 0
 713 748 694 815 655 864 c 0
 618 913 575 938 524 938 c 0
 479 938 438 924 406 895 c 0
 360 856 319 791 285 698 c 0
 252 608 233 518 233 432 c 0
EndSplineSet
EndChar
StartChar: r
Encoding: 114 114
Width: 557
Flags: HW
Fore
55 0 m 1
 238 1063 l 1
 369 1063 l 1
 332 846 l 1
 420 1006 508 1085 596 1085 c 0
 625 1085 662 1073 705 1047 c 1
 643 879 l 1
 618 901 590 913 561 913 c 0
 508 913 453 877 399 805 c 0
 344 733 301 608 270 426 c 1
 197 0 l 1
 55 0 l 1
EndSplineSet
EndChar
StartChar: s
Encoding: 115 115
Width: 839
Flags: HW
Fore
63 362 m 1
 213 375 l 1
 213 287 231 223 270 180 c 0
 309 137 360 117 428 117 c 0
 489 117 537 131 571 162 c 0
 608 193 625 231 625 279 c 0
 625 311 614 342 592 371 c 0
 569 397 520 430 444 469 c 0
 358 516 301 551 274 575 c 0
 246 598 225 629 209 664 c 0
 195 698 186 737 186 780 c 0
 186 870 215 942 272 999 c 0
 330 1057 406 1085 498 1085 c 0
 602 1085 682 1057 743 997 c 0
 803 938 834 856 838 750 c 1
 690 737 l 1
 688 805 670 856 633 893 c 0
 598 928 549 946 487 946 c 0
 438 946 399 932 371 905 c 0
 340 879 326 848 326 811 c 0
 326 782 334 756 352 733 c 0
 371 711 416 680 489 641 c 0
 602 584 674 535 705 500 c 0
 752 444 774 377 774 299 c 0
 774 211 743 135 680 72 c 0
 618 8 532 -25 422 -25 c 0
 309 -25 223 8 160 72 c 0
 96 135 63 227 63 342 c 2
 63 362 l 1
EndSplineSet
EndChar
StartChar: t
Encoding: 116 116
Width: 466
Flags: HW
Fore
403 147 m 1
 377 0 l 1
 342 -12 307 -18 274 -18 c 0
 219 -18 174 -4 143 27 c 0
 111 55 94 94 94 143 c 0
 94 168 100 221 117 305 c 1
 221 922 l 1
 104 922 l 1
 127 1063 l 1
 246 1063 l 1
 291 1323 l 1
 461 1448 l 1
 393 1063 l 1
 539 1063 l 1
 514 922 l 1
 371 922 l 1
 268 336 l 1
 256 260 250 215 250 203 c 0
 250 178 256 162 266 152 c 0
 276 141 293 135 315 135 c 0
 348 135 377 139 403 147 c 1
EndSplineSet
EndChar
StartChar: u
Encoding: 117 117
Width: 933
Flags: HW
Fore
649 193 m 1
 545 47 438 -25 330 -25 c 0
 266 -25 213 -2 170 43 c 0
 127 90 104 147 104 219 c 0
 104 264 115 342 133 449 c 2
 238 1063 l 1
 385 1063 l 1
 270 383 l 1
 260 326 256 283 256 252 c 0
 256 211 266 178 287 156 c 0
 307 135 336 125 373 125 c 0
 426 125 477 145 530 188 c 0
 584 229 621 283 645 346 c 0
 670 410 690 496 709 602 c 1
 788 1063 l 1
 936 1063 l 1
 754 0 l 1
 616 0 l 1
 649 193 l 1
EndSplineSet
EndChar
StartChar: v
Encoding: 118 118
Width: 839
Flags: HW
Fore
274 0 m 1
 131 1063 l 1
 276 1063 l 1
 350 477 l 1
 358 410 369 305 381 164 c 1
 410 240 446 326 492 424 c 1
 780 1063 l 1
 938 1063 l 1
 440 0 l 1
 274 0 l 1
EndSplineSet
EndChar
StartChar: w
Encoding: 119 119
Width: 1210
Flags: HW
Fore
221 0 m 1
 129 1063 l 1
 272 1063 l 1
 311 586 l 1
 322 469 328 340 332 197 c 1
 358 301 391 406 428 508 c 2
 637 1063 l 1
 799 1063 l 1
 827 530 l 1
 831 455 834 348 836 209 c 1
 862 299 907 422 969 580 c 2
 1155 1063 l 1
 1305 1063 l 1
 879 0 l 1
 725 0 l 1
 692 623 l 1
 690 666 688 741 686 850 c 1
 664 776 637 700 606 618 c 2
 377 0 l 1
 221 0 l 1
EndSplineSet
EndChar
StartChar: x
Encoding: 120 120
Width: 839
Flags: HW
Fore
-2 0 m 1
 377 539 l 1
 160 1063 l 1
 324 1063 l 1
 395 872 l 2
 424 801 449 733 469 670 c 1
 721 1063 l 1
 903 1063 l 1
 537 524 l 1
 756 0 l 1
 592 0 l 1
 506 215 l 2
 487 264 465 322 442 387 c 1
 182 0 l 1
 -2 0 l 1
EndSplineSet
EndChar
StartChar: y
Encoding: 121 121
Width: 839
Flags: HW
Fore
0 -410 m 1
 8 -240 l 1
 39 -250 70 -256 98 -256 c 0
 127 -256 152 -248 170 -231 c 0
 195 -209 221 -168 250 -106 c 2
 297 -2 l 1
 152 1063 l 1
 299 1063 l 1
 365 524 l 2
 377 418 389 311 397 207 c 1
 786 1063 l 1
 942 1063 l 1
 387 -141 l 1
 332 -262 283 -342 240 -377 c 0
 199 -414 152 -430 100 -430 c 0
 66 -430 33 -424 0 -410 c 1
EndSplineSet
EndChar
StartChar: z
Encoding: 122 122
Width: 839
Flags: HW
Fore
33 0 m 1
 57 139 l 1
 524 782 l 2
 559 827 596 874 637 924 c 1
 567 915 516 911 483 911 c 2
 162 911 l 1
 186 1063 l 1
 860 1063 l 1
 842 948 l 1
 369 301 l 2
 342 264 301 213 250 150 c 1
 332 156 387 160 418 160 c 2
 762 160 l 1
 733 0 l 1
 33 0 l 1
EndSplineSet
EndChar
StartChar: braceleft
Encoding: 123 123
Width: 559
Flags: HW
Fore
141 612 m 1
 180 612 213 625 244 647 c 0
 274 670 299 702 317 748 c 0
 338 793 358 877 381 999 c 0
 401 1120 418 1200 430 1241 c 0
 449 1307 475 1360 508 1403 c 0
 532 1434 561 1456 596 1470 c 0
 631 1485 674 1491 725 1491 c 2
 772 1491 l 1
 743 1333 l 1
 719 1333 l 2
 674 1333 641 1327 621 1315 c 0
 602 1303 586 1282 573 1255 c 0
 561 1227 547 1161 528 1055 c 0
 504 913 481 813 461 758 c 0
 440 700 414 655 385 621 c 0
 356 588 315 557 264 530 c 1
 342 487 381 412 381 301 c 0
 381 242 362 119 330 -68 c 0
 322 -115 317 -156 317 -184 c 0
 317 -217 326 -240 342 -254 c 0
 358 -266 389 -274 434 -274 c 2
 461 -274 l 1
 432 -430 l 1
 387 -430 l 2
 332 -430 291 -424 264 -410 c 0
 238 -397 217 -375 201 -344 c 0
 184 -313 176 -276 176 -231 c 0
 176 -180 188 -84 213 61 c 0
 233 170 244 244 244 283 c 0
 244 336 229 377 205 410 c 0
 184 434 154 449 113 449 c 1
 141 612 l 1
EndSplineSet
EndChar
StartChar: bar
Encoding: 124 124
Width: 434
Flags: HW
Fore
156 -430 m 1
 156 1491 l 1
 285 1491 l 1
 285 -430 l 1
 156 -430 l 1
EndSplineSet
EndChar
StartChar: braceright
Encoding: 125 125
Width: 559
Flags: HW
Fore
518 612 m 1
 489 449 l 1
 453 449 418 436 387 414 c 0
 356 391 332 356 313 313 c 0
 295 268 274 184 252 61 c 0
 229 -59 213 -139 201 -182 c 0
 182 -246 156 -301 123 -342 c 0
 98 -375 70 -397 35 -410 c 0
 0 -424 -43 -430 -94 -430 c 2
 -139 -430 l 1
 -113 -274 l 1
 -86 -274 l 2
 -43 -274 -10 -268 10 -256 c 0
 31 -244 45 -223 57 -195 c 0
 70 -168 86 -100 102 6 c 0
 129 147 152 248 172 305 c 0
 193 362 219 410 252 444 c 0
 285 479 324 508 369 530 c 1
 326 557 297 588 279 623 c 0
 260 657 252 702 252 760 c 0
 252 819 264 918 289 1055 c 0
 305 1153 313 1214 313 1243 c 0
 313 1276 305 1300 289 1313 c 0
 272 1327 242 1333 197 1333 c 2
 170 1333 l 1
 199 1491 l 1
 246 1491 l 2
 301 1491 342 1485 369 1470 c 0
 393 1458 416 1436 430 1405 c 0
 446 1374 455 1337 455 1290 c 0
 455 1239 442 1143 418 999 c 0
 397 891 389 817 389 778 c 0
 389 725 401 682 428 649 c 0
 446 627 477 612 518 612 c 1
EndSplineSet
EndChar
StartChar: asciitilde
Encoding: 126 126
Width: 980
Flags: HW
Fore
72 557 m 1
 72 762 l 1
 129 842 207 883 299 883 c 0
 330 883 365 877 401 864 c 0
 436 854 489 829 557 795 c 0
 618 764 666 748 698 748 c 0
 731 748 764 758 795 776 c 0
 838 803 877 840 911 885 c 1
 911 674 l 1
 844 598 768 559 684 559 c 0
 651 559 621 563 592 571 c 0
 563 582 518 602 459 635 c 0
 387 674 330 692 287 692 c 0
 252 692 221 684 188 666 c 0
 158 647 119 612 72 557 c 1
EndSplineSet
EndChar
StartChar: exclamdown
Encoding: 161 161
Width: 557
Flags: HW
Fore
467 1063 m 1
 432 856 l 1
 264 856 l 1
 299 1063 l 1
 467 1063 l 1
373 692 m 1
 283 -104 l 1
 231 -403 l 1
 51 -403 l 1
 106 -80 l 1
 281 692 l 1
 373 692 l 1
EndSplineSet
EndChar
StartChar: cent
Encoding: 162 162
Width: 933
Flags: HW
Fore
279 27 m 1
 178 98 127 223 127 401 c 0
 127 537 150 659 193 770 c 0
 238 881 293 961 362 1012 c 0
 430 1061 504 1085 588 1085 c 0
 602 1085 618 1085 637 1081 c 1
 774 1487 l 1
 860 1442 l 1
 729 1053 l 1
 838 993 891 889 891 733 c 1
 743 723 l 1
 743 766 739 803 727 829 c 0
 717 856 700 879 678 899 c 1
 414 121 l 1
 426 117 438 117 449 117 c 0
 496 117 543 139 586 182 c 0
 631 227 664 295 688 387 c 1
 838 369 l 1
 801 236 748 137 678 72 c 0
 608 8 530 -25 444 -25 c 0
 420 -25 393 -20 369 -14 c 1
 236 -408 l 1
 145 -360 l 1
 279 27 l 1
330 180 m 1
 588 938 l 1
 573 938 l 2
 522 938 475 920 434 885 c 0
 391 850 358 793 332 711 c 0
 295 602 276 496 276 387 c 0
 276 295 295 225 330 180 c 1
EndSplineSet
EndChar
StartChar: sterling
Encoding: 163 163
Width: 933
Flags: HW
Fore
70 -25 m 1
 53 152 l 1
 109 197 156 244 195 295 c 0
 233 346 262 397 281 453 c 0
 299 506 307 557 307 604 c 0
 307 614 305 631 303 651 c 1
 123 651 l 1
 147 803 l 1
 291 803 l 1
 281 893 274 969 274 1028 c 0
 274 1165 313 1276 393 1362 c 0
 471 1448 565 1491 674 1491 c 0
 762 1491 840 1458 905 1395 c 0
 971 1331 1010 1233 1022 1102 c 1
 885 1085 l 1
 877 1171 852 1237 813 1280 c 0
 774 1325 727 1346 670 1346 c 0
 606 1346 549 1315 500 1255 c 0
 451 1194 426 1108 426 995 c 0
 426 950 432 885 442 803 c 1
 682 803 l 1
 655 651 l 1
 449 651 l 1
 451 606 l 1
 451 530 436 459 408 393 c 0
 379 326 334 266 276 213 c 1
 305 217 328 219 340 219 c 0
 385 219 418 217 444 211 c 0
 469 207 502 195 545 178 c 0
 592 158 631 150 662 150 c 0
 723 150 782 170 842 213 c 1
 887 49 l 1
 803 0 731 -25 668 -25 c 0
 627 -25 575 -10 516 20 c 0
 444 55 381 74 326 74 c 0
 281 74 240 68 203 53 c 0
 164 39 121 14 70 -25 c 1
EndSplineSet
EndChar
StartChar: currency
Encoding: 164 164
Width: 933
Flags: HW
Fore
172 961 m 1
 57 1098 l 1
 152 1217 l 1
 266 1077 l 1
 295 1102 326 1118 358 1130 c 0
 389 1143 424 1149 461 1149 c 0
 498 1149 532 1143 565 1130 c 0
 596 1118 627 1102 655 1077 c 1
 768 1217 l 1
 864 1098 l 1
 750 961 l 1
 788 887 809 809 809 725 c 0
 809 643 788 563 750 489 c 1
 864 354 l 1
 768 236 l 1
 655 375 l 1
 627 350 596 334 565 319 c 0
 532 307 498 301 461 301 c 0
 424 301 389 307 358 319 c 0
 326 334 295 350 266 375 c 1
 152 236 l 1
 57 354 l 1
 172 489 l 1
 133 563 115 643 115 725 c 0
 115 809 133 887 172 961 c 1
248 725 m 0
 248 651 268 590 311 541 c 0
 354 492 403 467 461 467 c 0
 516 467 567 492 608 541 c 0
 651 590 674 651 674 725 c 0
 674 801 651 862 608 911 c 0
 567 961 516 985 461 985 c 0
 403 985 354 961 311 911 c 0
 268 862 248 801 248 725 c 0
EndSplineSet
EndChar
StartChar: yen
Encoding: 165 165
Width: 933
Flags: HW
Fore
342 0 m 1
 397 328 l 1
 61 328 l 1
 86 465 l 1
 420 465 l 1
 446 612 l 1
 111 612 l 1
 133 750 l 1
 416 750 l 1
 190 1466 l 1
 340 1466 l 1
 436 1151 l 1
 498 948 532 821 545 772 c 1
 565 834 602 905 649 985 c 2
 936 1466 l 1
 1120 1466 l 1
 676 750 l 1
 950 750 l 1
 928 612 l 1
 594 612 l 1
 569 465 l 1
 901 465 l 1
 879 328 l 1
 545 328 l 1
 489 0 l 1
 342 0 l 1
EndSplineSet
EndChar
StartChar: brokenbar
Encoding: 166 166
Width: 434
Flags: HW
Fore
285 1491 m 1
 285 700 l 1
 156 700 l 1
 156 1491 l 1
 285 1491 l 1
285 360 m 1
 285 -430 l 1
 156 -430 l 1
 156 360 l 1
 285 360 l 1
EndSplineSet
EndChar
StartChar: section
Encoding: 167 167
Width: 933
Flags: HW
Fore
51 -90 m 1
 186 -47 l 1
 201 -129 229 -193 270 -233 c 0
 313 -274 360 -297 414 -297 c 0
 465 -297 510 -276 545 -240 c 0
 582 -203 598 -158 598 -106 c 0
 598 -68 588 -31 565 4 c 0
 543 39 461 127 317 266 c 0
 246 336 197 395 168 442 c 0
 139 492 127 547 127 608 c 0
 127 680 143 743 178 797 c 0
 211 852 272 907 358 961 c 1
 315 1024 295 1092 295 1161 c 0
 295 1260 324 1339 383 1401 c 0
 442 1460 520 1491 616 1491 c 0
 707 1491 778 1464 831 1413 c 0
 883 1362 918 1274 932 1151 c 1
 784 1130 l 1
 782 1202 766 1255 733 1292 c 0
 700 1327 657 1346 604 1346 c 0
 557 1346 516 1329 483 1294 c 0
 451 1262 434 1219 434 1165 c 0
 434 1128 446 1090 469 1049 c 0
 492 1008 543 948 618 872 c 0
 743 750 821 664 848 616 c 0
 874 569 889 520 889 465 c 0
 889 399 868 338 831 276 c 0
 793 217 735 166 659 123 c 1
 715 47 741 -29 741 -106 c 0
 741 -199 711 -274 649 -338 c 0
 588 -399 508 -430 414 -430 c 0
 322 -430 244 -401 178 -342 c 0
 113 -283 70 -199 51 -90 c 1
586 217 m 1
 641 248 682 285 709 324 c 0
 737 365 750 403 750 440 c 0
 750 473 743 500 729 524 c 0
 717 547 678 592 612 657 c 0
 520 750 457 823 420 872 c 1
 313 799 260 719 260 629 c 0
 260 598 268 567 285 535 c 0
 301 504 342 457 408 393 c 2
 586 217 l 1
EndSplineSet
EndChar
StartChar: dieresis
Encoding: 168 168
Width: 557
Flags: HW
Fore
195 1227 m 1
 229 1432 l 1
 385 1432 l 1
 350 1227 l 1
 195 1227 l 1
498 1227 m 1
 532 1432 l 1
 686 1432 l 1
 651 1227 l 1
 498 1227 l 1
EndSplineSet
EndChar
StartChar: copyright
Encoding: 169 169
Width: 1236
Flags: HW
Fore
2 735 m 0
 2 874 33 1006 94 1128 c 0
 156 1251 231 1343 322 1403 c 0
 414 1462 512 1491 621 1491 c 0
 729 1491 827 1462 920 1403 c 0
 1010 1343 1085 1251 1147 1128 c 0
 1208 1006 1239 874 1239 735 c 0
 1239 598 1208 467 1147 344 c 0
 1085 221 1010 131 920 72 c 0
 827 12 729 -18 621 -18 c 0
 512 -18 414 12 322 72 c 0
 231 131 156 221 94 344 c 0
 33 467 2 598 2 735 c 0
106 735 m 0
 106 621 131 512 182 410 c 0
 233 307 297 229 373 180 c 0
 449 131 530 106 621 106 c 0
 711 106 795 131 868 180 c 0
 944 229 1008 307 1059 410 c 0
 1110 512 1137 621 1137 735 c 0
 1137 852 1110 961 1059 1065 c 0
 1008 1167 944 1243 868 1292 c 0
 795 1341 711 1366 621 1366 c 0
 530 1366 449 1341 373 1292 c 0
 297 1243 233 1167 182 1065 c 0
 131 961 106 852 106 735 c 0
819 614 m 1
 920 578 l 1
 903 492 868 424 813 377 c 0
 760 328 696 303 623 303 c 0
 528 303 451 342 389 416 c 0
 328 489 297 596 297 733 c 0
 297 872 328 977 389 1051 c 0
 449 1124 528 1159 627 1159 c 0
 696 1159 756 1139 807 1098 c 0
 856 1057 889 999 907 924 c 1
 811 895 l 1
 793 946 768 983 737 1010 c 0
 705 1034 668 1049 625 1049 c 0
 563 1049 512 1022 471 967 c 0
 430 913 410 834 410 729 c 0
 410 627 428 551 469 498 c 0
 508 446 555 422 614 422 c 0
 664 422 707 438 745 471 c 0
 782 506 807 553 819 614 c 1
EndSplineSet
EndChar
StartChar: ordfeminine
Encoding: 170 170
Width: 620
Flags: HW
Fore
512 823 m 1
 489 799 461 778 426 762 c 0
 389 745 354 735 322 735 c 0
 268 735 223 756 188 793 c 0
 154 829 137 879 137 940 c 0
 137 1014 158 1069 201 1110 c 0
 242 1149 313 1171 418 1180 c 0
 475 1184 522 1190 559 1200 c 1
 567 1231 571 1253 571 1268 c 0
 571 1296 561 1321 541 1341 c 0
 520 1360 492 1370 459 1370 c 0
 387 1370 338 1329 307 1249 c 1
 193 1274 l 1
 246 1419 336 1491 461 1491 c 0
 532 1491 588 1473 627 1436 c 0
 668 1399 688 1352 688 1292 c 0
 688 1239 674 1149 643 1016 c 0
 627 946 618 891 618 854 c 0
 618 815 625 782 635 758 c 1
 522 758 l 1
 518 772 516 795 512 823 c 1
537 1087 m 1
 506 1077 469 1069 426 1063 c 0
 356 1055 309 1042 289 1026 c 0
 266 1008 254 983 254 950 c 0
 254 924 262 901 281 883 c 0
 299 864 319 856 342 856 c 0
 387 856 426 874 463 911 c 0
 498 948 522 1006 537 1087 c 1
EndSplineSet
EndChar
StartChar: guillemotleft
Encoding: 171 171
Width: 933
Flags: HW
Fore
287 526 m 1
 418 72 l 1
 305 72 l 1
 131 549 l 1
 461 981 l 1
 578 981 l 1
 287 526 l 1
610 526 m 1
 739 72 l 1
 618 72 l 1
 457 551 l 1
 774 981 l 1
 901 981 l 1
 610 526 l 1
EndSplineSet
EndChar
StartChar: logicalnot
Encoding: 172 172
Width: 980
Flags: HW
Fore
887 424 m 1
 748 424 l 1
 748 862 l 1
 92 862 l 1
 92 1030 l 1
 887 1030 l 1
 887 424 l 1
EndSplineSet
EndChar
StartChar: registered
Encoding: 174 174
Width: 1236
Flags: HW
Fore
2 735 m 0
 2 874 33 1006 94 1128 c 0
 156 1251 231 1343 322 1403 c 0
 414 1462 512 1491 621 1491 c 0
 729 1491 827 1462 920 1403 c 0
 1010 1343 1085 1251 1147 1128 c 0
 1208 1006 1239 874 1239 735 c 0
 1239 598 1208 467 1147 344 c 0
 1085 221 1010 131 920 72 c 0
 827 12 729 -18 621 -18 c 0
 512 -18 414 12 322 72 c 0
 231 131 156 221 94 344 c 0
 33 467 2 598 2 735 c 0
106 735 m 0
 106 621 131 512 182 410 c 0
 233 307 297 229 373 180 c 0
 449 131 530 106 621 106 c 0
 711 106 795 131 868 180 c 0
 944 229 1008 307 1059 410 c 0
 1110 512 1137 621 1137 735 c 0
 1137 852 1110 961 1059 1065 c 0
 1008 1167 944 1243 868 1292 c 0
 795 1341 711 1366 621 1366 c 0
 530 1366 449 1341 373 1292 c 0
 297 1243 233 1167 182 1065 c 0
 131 961 106 852 106 735 c 0
348 319 m 1
 348 1130 l 1
 580 1130 l 2
 657 1130 713 1124 748 1110 c 0
 780 1094 809 1069 829 1032 c 0
 852 995 862 954 862 909 c 0
 862 848 846 797 809 754 c 0
 772 711 727 686 674 682 c 1
 698 670 717 653 731 637 c 0
 760 602 791 549 827 477 c 1
 907 319 l 1
 778 319 l 1
 719 446 l 2
 672 545 637 608 608 635 c 0
 588 653 559 664 520 664 c 2
 457 664 l 1
 457 319 l 1
 348 319 l 1
457 776 m 1
 588 776 l 2
 647 776 688 786 713 807 c 0
 737 829 750 858 750 899 c 0
 750 926 743 948 731 969 c 0
 719 987 702 1001 684 1010 c 0
 664 1018 629 1022 580 1022 c 2
 457 1022 l 1
 457 776 l 1
EndSplineSet
EndChar
StartChar: overscore
Encoding: 175 175
Width: 1024
Flags: HW
Fore
180 1722 m 1
 1229 1722 l 1
 1229 1620 l 1
 180 1620 l 1
 180 1722 l 1
EndSplineSet
EndChar
StartChar: degree
Encoding: 176 176
Width: 817
Flags: HW
Fore
272 1214 m 0
 272 1290 301 1356 354 1409 c 0
 410 1464 473 1491 551 1491 c 0
 627 1491 692 1464 748 1409 c 0
 801 1356 827 1290 827 1214 c 0
 827 1137 801 1071 748 1018 c 0
 692 963 627 936 551 936 c 0
 473 936 410 963 354 1018 c 0
 301 1071 272 1137 272 1214 c 0
383 1214 m 0
 383 1167 399 1128 432 1094 c 0
 465 1061 504 1044 551 1044 c 0
 598 1044 637 1061 670 1094 c 0
 702 1128 719 1167 719 1214 c 0
 719 1262 702 1300 670 1333 c 0
 637 1366 598 1382 551 1382 c 0
 504 1382 465 1366 432 1333 c 0
 399 1300 383 1262 383 1214 c 0
EndSplineSet
EndChar
StartChar: plusminus
Encoding: 177 177
Width: 1122
Flags: HW
Fore
477 260 m 1
 477 664 l 1
 78 664 l 1
 78 829 l 1
 477 829 l 1
 477 1229 l 1
 647 1229 l 1
 647 829 l 1
 1047 829 l 1
 1047 664 l 1
 647 664 l 1
 647 260 l 1
 477 260 l 1
1047 0 m 1
 78 0 l 1
 78 168 l 1
 1047 168 l 1
 1047 0 l 1
EndSplineSet
EndChar
StartChar: twosuperior
Encoding: 178 178
Width: 557
Flags: HW
Fore
125 733 m 1
 143 805 174 870 217 928 c 0
 260 985 328 1047 420 1110 c 0
 473 1147 506 1174 518 1188 c 0
 539 1214 551 1241 551 1272 c 0
 551 1298 541 1319 522 1337 c 0
 504 1354 479 1364 449 1364 c 0
 410 1364 381 1354 358 1337 c 0
 336 1319 319 1290 309 1249 c 1
 184 1264 l 1
 217 1411 305 1485 446 1485 c 0
 518 1485 573 1464 614 1427 c 0
 653 1389 674 1337 674 1274 c 0
 674 1219 657 1169 625 1124 c 0
 600 1092 547 1047 465 985 c 0
 389 932 342 887 319 854 c 1
 631 854 l 1
 610 733 l 1
 125 733 l 1
EndSplineSet
EndChar
StartChar: threesuperior
Encoding: 179 179
Width: 557
Flags: HW
Fore
137 930 m 1
 256 946 l 1
 281 872 324 836 389 836 c 0
 426 836 457 846 479 870 c 0
 502 893 512 922 512 958 c 0
 512 993 504 1018 485 1036 c 0
 467 1053 438 1063 399 1063 c 2
 365 1063 l 1
 385 1169 l 1
 412 1167 l 2
 446 1167 479 1178 506 1196 c 0
 532 1217 547 1245 547 1280 c 0
 547 1309 537 1331 518 1350 c 0
 500 1368 475 1376 444 1376 c 0
 385 1376 344 1341 322 1274 c 1
 201 1292 l 1
 215 1352 244 1399 287 1434 c 0
 330 1466 381 1485 444 1485 c 0
 516 1485 571 1466 610 1430 c 0
 651 1393 672 1346 672 1286 c 0
 672 1196 625 1139 532 1110 c 1
 573 1092 602 1069 618 1042 c 0
 633 1014 641 981 641 942 c 0
 641 879 618 825 571 782 c 0
 526 737 465 715 393 715 c 0
 330 715 274 735 227 774 c 0
 182 813 152 864 137 930 c 1
EndSplineSet
EndChar
StartChar: acute
Encoding: 180 180
Width: 557
Flags: HW
Fore
283 1192 m 1
 436 1466 l 1
 625 1466 l 1
 406 1192 l 1
 283 1192 l 1
EndSplineSet
EndChar
StartChar: mu1
Encoding: 181 181
Width: 1179
Flags: HW
Fore
324 1063 m 1
 502 1063 l 1
 395 563 l 2
 371 442 356 356 356 307 c 0
 356 254 375 211 410 178 c 0
 444 143 494 127 555 127 c 0
 637 127 707 156 764 215 c 0
 807 262 842 352 872 489 c 1
 991 1063 l 1
 1171 1063 l 1
 944 0 l 1
 784 0 l 1
 803 84 l 1
 711 12 623 -25 537 -25 c 0
 487 -25 444 -14 406 4 c 0
 369 25 334 57 299 100 c 1
 190 -410 l 1
 12 -410 l 1
 324 1063 l 1
EndSplineSet
EndChar
StartChar: paragraph
Encoding: 182 182
Width: 899
Flags: HW
Fore
338 -408 m 1
 338 639 l 1
 238 643 158 682 96 756 c 0
 35 827 4 924 4 1044 c 0
 4 1133 20 1208 53 1274 c 0
 86 1339 129 1386 186 1419 c 0
 242 1450 311 1466 393 1466 c 2
 911 1466 l 1
 911 1292 l 1
 795 1292 l 1
 795 -408 l 1
 653 -408 l 1
 653 1292 l 1
 471 1292 l 1
 471 -408 l 1
 338 -408 l 1
EndSplineSet
EndChar
StartChar: middot
Encoding: 183 183
Width: 557
Flags: HW
Fore
434 631 m 1
 469 836 l 1
 639 836 l 1
 602 631 l 1
 434 631 l 1
EndSplineSet
EndChar
StartChar: cedilla
Encoding: 184 184
Width: 557
Flags: HW
Fore
207 -150 m 1
 240 12 l 1
 354 12 l 1
 336 -78 l 1
 381 -86 418 -106 444 -137 c 0
 469 -168 483 -205 483 -248 c 0
 483 -301 461 -344 416 -377 c 0
 371 -410 301 -426 203 -426 c 0
 150 -426 102 -422 63 -414 c 1
 82 -301 l 1
 115 -303 154 -303 201 -303 c 0
 252 -303 289 -297 309 -285 c 0
 330 -270 340 -254 340 -231 c 0
 340 -209 330 -188 307 -174 c 0
 287 -158 252 -150 207 -150 c 1
EndSplineSet
EndChar
StartChar: onesuperior
Encoding: 185 185
Width: 557
Flags: HW
Fore
342 733 m 1
 434 1266 l 1
 379 1217 309 1184 227 1163 c 1
 250 1290 l 1
 295 1307 344 1335 399 1376 c 0
 440 1407 475 1442 504 1485 c 1
 594 1485 l 1
 467 733 l 1
 342 733 l 1
EndSplineSet
EndChar
StartChar: ordmasculine
Encoding: 186 186
Width: 610
Flags: HW
Fore
117 1067 m 0
 117 1167 145 1262 203 1354 c 0
 260 1446 336 1491 432 1491 c 0
 508 1491 569 1462 618 1407 c 0
 666 1350 690 1274 690 1178 c 0
 690 1073 664 975 608 881 c 0
 553 784 477 737 383 737 c 0
 297 737 231 766 186 823 c 0
 139 881 117 961 117 1067 c 0
238 1073 m 0
 238 1008 248 961 268 930 c 0
 295 889 328 868 371 868 c 0
 399 868 430 881 459 903 c 0
 489 928 516 965 537 1018 c 0
 559 1069 569 1124 569 1180 c 0
 569 1235 557 1278 530 1311 c 0
 504 1343 471 1360 432 1360 c 0
 403 1360 375 1350 346 1325 c 0
 317 1303 293 1268 270 1217 c 0
 250 1167 238 1118 238 1073 c 0
EndSplineSet
EndChar
StartChar: guillemotright
Encoding: 187 187
Width: 933
Flags: HW
Fore
371 520 m 1
 250 981 l 1
 367 981 l 1
 524 498 l 1
 203 72 l 1
 70 72 l 1
 371 520 l 1
690 512 m 1
 567 981 l 1
 680 981 l 1
 850 496 l 1
 514 72 l 1
 397 72 l 1
 690 512 l 1
EndSplineSet
EndChar
StartChar: questiondown
Encoding: 191 191
Width: 1024
Flags: HW
Fore
758 1063 m 1
 723 856 l 1
 555 856 l 1
 590 1063 l 1
 758 1063 l 1
684 694 m 1
 678 633 668 575 649 528 c 0
 631 479 602 428 563 379 c 0
 547 354 502 307 434 240 c 0
 354 162 303 100 279 53 c 0
 254 6 242 -39 242 -84 c 0
 242 -139 260 -188 299 -227 c 0
 338 -266 383 -285 436 -285 c 0
 498 -285 549 -262 592 -213 c 0
 633 -166 662 -86 676 27 c 1
 823 -2 l 1
 799 -147 754 -254 684 -324 c 0
 616 -393 535 -428 440 -428 c 0
 342 -428 260 -395 195 -328 c 0
 127 -260 94 -174 94 -70 c 0
 94 6 117 80 160 147 c 0
 190 197 256 272 358 371 c 0
 428 440 475 494 496 535 c 0
 518 575 535 629 545 694 c 1
 684 694 l 1
EndSplineSet
EndChar
StartChar: AE
Encoding: 198 198
Width: 1677
Flags: HW
Fore
-68 0 m 1
 672 1466 l 1
 1751 1466 l 1
 1724 1298 l 1
 1104 1298 l 1
 1026 844 l 1
 1653 844 l 1
 1624 678 l 1
 997 678 l 1
 909 166 l 1
 1602 166 l 1
 1573 0 l 1
 713 0 l 1
 784 418 l 1
 319 418 l 1
 115 0 l 1
 -68 0 l 1
403 584 m 1
 811 584 l 1
 936 1298 l 1
 762 1298 l 1
 403 584 l 1
EndSplineSet
EndChar
StartChar: Eth
Encoding: 208 208
Width: 1210
Flags: HW
Fore
76 0 m 1
 190 666 l 1
 61 666 l 1
 84 801 l 1
 213 801 l 1
 330 1466 l 1
 688 1466 l 2
 774 1466 836 1460 874 1450 c 0
 934 1432 989 1399 1038 1350 c 0
 1090 1300 1128 1235 1155 1151 c 0
 1182 1069 1196 975 1196 866 c 0
 1196 725 1174 596 1130 479 c 0
 1087 365 1032 268 969 193 c 0
 903 117 829 66 741 35 c 0
 678 12 598 0 508 0 c 2
 76 0 l 1
264 166 m 1
 455 166 l 2
 545 166 621 176 682 195 c 0
 745 213 801 250 850 305 c 0
 899 360 942 438 979 539 c 0
 1014 637 1032 750 1032 877 c 0
 1032 987 1016 1075 985 1141 c 0
 952 1206 909 1251 856 1274 c 0
 817 1290 756 1298 672 1298 c 2
 461 1298 l 1
 375 801 l 1
 707 801 l 1
 682 666 l 1
 350 666 l 1
 264 166 l 1
EndSplineSet
EndChar
StartChar: multiply
Encoding: 215 215
Width: 980
Flags: HW
Fore
129 410 m 1
 389 725 l 1
 131 1038 l 1
 231 1159 l 1
 489 846 l 1
 745 1159 l 1
 844 1038 l 1
 588 725 l 1
 846 412 l 1
 745 289 l 1
 487 602 l 1
 229 289 l 1
 129 410 l 1
EndSplineSet
EndChar
StartChar: Oslash
Encoding: 216 216
Width: 1306
Flags: HW
Fore
281 174 m 1
 195 297 154 453 154 639 c 0
 154 803 184 952 246 1087 c 0
 309 1223 387 1325 481 1391 c 0
 578 1458 678 1491 786 1491 c 0
 909 1491 1014 1452 1100 1374 c 1
 1231 1567 l 1
 1305 1487 l 1
 1171 1292 l 1
 1255 1174 1298 1020 1298 827 c 0
 1298 666 1266 516 1202 381 c 0
 1139 246 1059 143 963 76 c 0
 866 8 764 -25 657 -25 c 0
 541 -25 440 14 352 92 c 1
 221 -102 l 1
 143 -25 l 1
 281 174 l 1
379 319 m 1
 1004 1235 l 1
 942 1296 870 1327 788 1327 c 0
 713 1327 637 1300 563 1245 c 0
 492 1192 430 1108 383 997 c 0
 334 887 311 762 311 625 c 0
 311 504 334 401 379 319 c 1
1071 1145 m 1
 449 231 l 1
 514 168 588 137 670 137 c 0
 741 137 815 164 885 217 c 0
 956 272 1016 356 1065 473 c 0
 1114 588 1139 715 1139 852 c 0
 1139 963 1116 1061 1071 1145 c 1
EndSplineSet
EndChar
StartChar: Thorn
Encoding: 222 222
Width: 1118
Flags: HW
Fore
74 0 m 1
 330 1466 l 1
 489 1464 l 1
 438 1169 l 1
 774 1169 l 2
 862 1169 926 1157 969 1133 c 0
 1012 1110 1047 1069 1077 1012 c 0
 1106 952 1120 885 1120 809 c 0
 1120 711 1098 616 1051 528 c 0
 1004 438 940 379 862 346 c 0
 786 313 692 299 586 299 c 2
 287 299 l 1
 233 0 l 1
 74 0 l 1
315 465 m 1
 578 465 l 2
 674 465 745 475 795 500 c 0
 842 522 883 563 913 618 c 0
 946 676 963 737 963 807 c 0
 963 856 954 897 938 926 c 0
 920 956 897 979 868 991 c 0
 840 1004 788 1010 715 1010 c 2
 410 1010 l 1
 315 465 l 1
EndSplineSet
EndChar
StartChar: germandbls
Encoding: 223 223
Width: 1024
Flags: HW
Fore
61 0 m 1
 238 1032 l 2
 258 1153 287 1243 319 1300 c 0
 354 1358 403 1405 463 1440 c 0
 524 1475 588 1491 655 1491 c 0
 731 1491 795 1466 846 1419 c 0
 897 1372 924 1317 924 1255 c 0
 924 1223 915 1186 901 1147 c 0
 887 1106 856 1051 813 981 c 0
 772 918 745 872 735 848 c 0
 725 821 721 799 721 776 c 0
 721 756 725 737 733 721 c 0
 741 702 768 668 811 612 c 0
 874 532 913 477 930 440 c 0
 946 406 952 367 952 324 c 0
 952 229 920 147 854 78 c 0
 788 10 713 -25 629 -25 c 0
 512 -25 416 53 338 211 c 1
 463 293 l 1
 492 227 518 182 545 158 c 0
 571 135 598 123 627 123 c 0
 668 123 709 143 748 186 c 0
 784 227 803 274 803 328 c 0
 803 352 799 375 788 395 c 0
 776 416 748 455 696 514 c 0
 637 586 600 635 588 666 c 0
 573 694 565 725 565 758 c 0
 565 788 575 823 592 866 c 0
 608 909 645 971 698 1055 c 0
 750 1133 774 1192 774 1237 c 0
 774 1268 764 1296 739 1319 c 0
 717 1341 686 1352 647 1352 c 0
 606 1352 563 1337 520 1307 c 0
 477 1276 444 1235 424 1186 c 0
 412 1155 397 1096 383 1012 c 2
 209 0 l 1
 61 0 l 1
EndSplineSet
EndChar
StartChar: ae
Encoding: 230 230
Width: 1492
Flags: HW
Fore
1253 358 m 1
 1405 342 l 1
 1354 213 1292 119 1223 61 c 0
 1153 4 1075 -25 993 -25 c 0
 928 -25 868 -4 813 35 c 0
 758 74 713 133 680 213 c 1
 637 131 588 72 528 33 c 0
 471 -6 410 -25 346 -25 c 0
 262 -25 197 2 145 57 c 0
 96 113 72 188 72 285 c 0
 72 365 90 432 129 489 c 0
 158 532 199 563 250 582 c 0
 301 600 381 614 489 625 c 0
 582 635 647 647 686 662 c 1
 698 709 705 750 705 784 c 0
 705 836 692 877 664 903 c 0
 637 932 598 946 549 946 c 0
 428 946 346 879 303 745 c 1
 156 762 l 1
 184 868 233 948 303 1004 c 0
 371 1059 455 1087 553 1087 c 0
 612 1087 664 1075 709 1051 c 0
 754 1026 793 989 823 940 c 1
 899 1038 995 1085 1110 1085 c 0
 1214 1085 1298 1044 1360 963 c 0
 1421 879 1452 774 1452 643 c 0
 1452 606 1448 553 1440 485 c 1
 807 485 l 1
 805 465 805 444 805 426 c 0
 805 324 821 248 858 199 c 0
 895 150 940 125 995 125 c 0
 1044 125 1092 143 1137 182 c 0
 1182 219 1221 279 1253 358 c 1
836 625 m 1
 1313 625 l 1
 1315 668 l 1
 1315 725 1305 776 1288 819 c 0
 1270 862 1245 893 1214 915 c 0
 1184 936 1151 946 1116 946 c 0
 1061 946 1008 918 952 860 c 0
 897 805 858 725 836 625 c 1
664 524 m 1
 604 508 535 496 451 485 c 0
 383 479 336 469 307 455 c 0
 281 440 260 420 244 393 c 0
 229 367 221 334 221 293 c 0
 221 240 238 197 266 164 c 0
 295 133 334 117 383 117 c 0
 446 117 502 145 549 203 c 0
 606 274 645 383 664 524 c 1
EndSplineSet
EndChar
StartChar: eth
Encoding: 240 240
Width: 933
Flags: HW
Fore
514 1466 m 1
 668 1466 l 1
 688 1442 709 1417 727 1391 c 1
 872 1466 l 1
 911 1368 l 1
 782 1298 l 1
 829 1204 864 1110 885 1018 c 0
 907 926 918 821 918 702 c 0
 918 510 874 342 791 195 c 0
 705 49 590 -25 442 -25 c 0
 334 -25 248 14 182 90 c 0
 115 168 82 274 82 414 c 0
 82 535 104 649 150 754 c 0
 195 860 250 938 317 987 c 0
 385 1036 453 1063 520 1063 c 0
 563 1063 602 1053 639 1036 c 0
 676 1018 715 989 754 944 c 1
 739 1040 711 1137 668 1231 c 1
 479 1130 l 1
 440 1231 l 1
 614 1325 l 1
 575 1386 543 1434 514 1466 c 1
758 639 m 0
 758 727 737 797 698 846 c 0
 659 893 608 918 547 918 c 0
 496 918 449 899 401 864 c 0
 354 827 315 768 283 684 c 0
 250 602 233 512 233 414 c 0
 233 315 252 242 291 193 c 0
 330 145 381 121 442 121 c 0
 500 121 555 145 604 195 c 0
 655 244 696 317 725 416 c 0
 748 494 758 569 758 639 c 0
EndSplineSet
EndChar
StartChar: divide
Encoding: 247 247
Width: 1122
Flags: HW
Fore
459 922 m 1
 459 1126 l 1
 664 1126 l 1
 664 922 l 1
 459 922 l 1
1047 639 m 1
 78 639 l 1
 78 807 l 1
 1047 807 l 1
 1047 639 l 1
459 319 m 1
 459 524 l 1
 664 524 l 1
 664 319 l 1
 459 319 l 1
EndSplineSet
EndChar
StartChar: oslash
Encoding: 248 248
Width: 1024
Flags: HW
Fore
809 1018 m 1
 901 1159 l 1
 975 1087 l 1
 879 940 l 1
 930 860 956 760 956 639 c 0
 956 506 934 389 889 285 c 0
 844 182 784 104 713 53 c 0
 641 2 567 -25 487 -25 c 0
 414 -25 348 -2 287 39 c 1
 195 -102 l 1
 121 -33 l 1
 215 111 l 1
 160 188 131 289 131 410 c 0
 131 594 174 752 258 885 c 0
 344 1020 459 1085 606 1085 c 0
 684 1085 752 1063 809 1018 c 1
727 895 m 1
 692 928 649 946 600 946 c 0
 549 946 500 928 451 889 c 0
 403 852 362 788 330 700 c 0
 297 612 281 518 281 418 c 0
 281 352 289 297 307 252 c 1
 727 895 l 1
369 162 m 1
 403 131 444 117 489 117 c 0
 539 117 586 135 633 174 c 0
 680 211 721 276 756 365 c 0
 791 453 809 547 809 645 c 0
 809 700 801 752 784 797 c 1
 369 162 l 1
EndSplineSet
EndChar
StartChar: thorn
Encoding: 254 254
Width: 933
Flags: HW
Fore
-16 -408 m 1
 305 1466 l 1
 453 1466 l 1
 362 936 l 1
 408 991 451 1030 489 1053 c 0
 528 1075 569 1085 610 1085 c 0
 692 1085 760 1051 815 977 c 0
 870 905 899 799 899 657 c 0
 899 526 877 406 831 297 c 0
 786 188 727 104 653 45 c 0
 596 0 537 -25 473 -25 c 0
 369 -25 287 41 229 170 c 1
 131 -408 l 1
 -16 -408 l 1
274 399 m 0
 274 309 293 242 330 195 c 0
 367 147 412 125 467 125 c 0
 510 125 547 139 580 168 c 0
 627 209 668 276 700 371 c 0
 733 465 752 561 752 659 c 0
 752 750 733 819 696 868 c 0
 662 915 616 940 565 940 c 0
 524 940 481 922 438 885 c 0
 397 848 358 782 326 688 c 0
 291 596 274 500 274 399 c 0
EndSplineSet
EndChar
StartChar: dmacron
Encoding: 273 273
Width: 927
Flags: HW
Fore
815 1235 m 1
 549 1235 l 1
 567 1337 l 1
 834 1337 l 1
 856 1466 l 1
 1004 1466 l 1
 983 1337 l 1
 1094 1337 l 1
 1075 1235 l 1
 965 1235 l 1
 754 0 l 1
 616 0 l 1
 641 154 l 1
 557 35 469 -25 377 -25 c 0
 297 -25 227 12 172 86 c 0
 117 158 88 266 88 412 c 0
 88 543 111 662 156 770 c 0
 199 879 254 958 319 1010 c 0
 385 1061 451 1085 514 1085 c 0
 623 1085 702 1022 758 895 c 1
 815 1235 l 1
236 444 m 1
 236 401 l 1
 236 313 256 242 297 186 c 0
 328 143 369 121 420 121 c 0
 487 121 547 164 602 250 c 0
 676 362 713 504 713 670 c 0
 713 754 694 821 655 866 c 0
 618 913 573 938 522 938 c 0
 473 938 426 915 383 870 c 0
 338 825 303 758 276 670 c 0
 250 580 236 506 236 444 c 1
EndSplineSet
EndChar
StartChar: Hbar
Encoding: 294 294
Width: 1210
Flags: HW
Fore
1208 1114 m 1
 1018 0 l 1
 858 0 l 1
 977 692 l 1
 352 692 l 1
 236 0 l 1
 74 0 l 1
 264 1114 l 1
 154 1114 l 1
 178 1253 l 1
 289 1253 l 1
 326 1466 l 1
 485 1466 l 1
 449 1253 l 1
 1071 1253 l 1
 1108 1466 l 1
 1270 1466 l 1
 1233 1253 l 1
 1354 1253 l 1
 1331 1114 l 1
 1208 1114 l 1
424 1114 m 1
 381 858 l 1
 1006 858 l 1
 1049 1114 l 1
 424 1114 l 1
EndSplineSet
EndChar
StartChar: hbar
Encoding: 295 295
Width: 933
Flags: HW
Fore
147 1352 m 1
 258 1352 l 1
 279 1466 l 1
 426 1466 l 1
 408 1352 l 1
 715 1352 l 1
 688 1200 l 1
 381 1200 l 1
 330 903 l 1
 430 1024 530 1085 633 1085 c 0
 702 1085 756 1063 799 1018 c 0
 840 971 860 913 860 842 c 0
 860 801 852 729 834 627 c 1
 725 0 l 1
 578 0 l 1
 688 643 l 1
 702 725 711 782 711 819 c 0
 711 899 672 938 596 938 c 0
 537 938 481 918 430 877 c 0
 381 836 342 782 319 717 c 0
 295 653 272 565 254 455 c 2
 176 0 l 1
 27 0 l 1
 233 1200 l 1
 119 1200 l 1
 147 1352 l 1
EndSplineSet
EndChar
StartChar: dotlessi
Encoding: 305 305
Width: 466
Flags: HW
Fore
102 0 m 1
 285 1063 l 1
 432 1063 l 1
 252 0 l 1
 102 0 l 1
EndSplineSet
EndChar
StartChar: jcircumflex
Encoding: 309 309
Width: 372
Flags: HW
Fore
-205 -399 m 1
 -178 -246 l 1
 -143 -256 -115 -262 -86 -262 c 0
 -55 -262 -29 -248 -10 -221 c 0
 8 -195 27 -125 47 -10 c 1
 229 1063 l 1
 379 1063 l 1
 188 -43 l 2
 166 -182 137 -279 106 -328 c 0
 66 -393 8 -426 -63 -426 c 0
 -102 -426 -150 -416 -205 -399 c 1
74 1192 m 1
 291 1466 l 1
 455 1466 l 1
 557 1192 l 1
 426 1192 l 1
 362 1368 l 1
 225 1192 l 1
 74 1192 l 1
EndSplineSet
EndChar
StartChar: Lslash
Encoding: 321 321
Width: 933
Flags: HW
Fore
172 602 m 1
 20 498 l 1
 49 668 l 1
 203 770 l 1
 322 1466 l 1
 481 1466 l 1
 385 895 l 1
 590 1036 l 1
 561 870 l 1
 354 725 l 1
 258 166 l 1
 881 166 l 1
 852 0 l 1
 70 0 l 1
 172 602 l 1
EndSplineSet
EndChar
StartChar: lslash
Encoding: 322 322
Width: 372
Flags: HW
Fore
156 623 m 1
 31 543 l 1
 57 698 l 1
 182 778 l 1
 299 1466 l 1
 449 1466 l 1
 348 887 l 1
 479 971 l 1
 453 815 l 1
 324 731 l 1
 197 0 l 1
 49 0 l 1
 156 623 l 1
EndSplineSet
EndChar
StartChar: Eng
Encoding: 330 330
Width: 1212
Flags: HW
Fore
328 1466 m 1
 489 1466 l 1
 459 1288 l 1
 557 1423 676 1491 813 1491 c 0
 932 1491 1026 1440 1096 1339 c 0
 1165 1239 1200 1100 1200 924 c 0
 1200 713 1161 502 1085 291 c 0
 1008 78 889 -27 727 -27 c 0
 629 -27 551 -2 496 47 c 1
 573 184 l 1
 616 156 659 141 705 141 c 0
 811 141 891 223 946 389 c 0
 1001 555 1030 737 1030 936 c 0
 1030 1067 1008 1163 961 1227 c 0
 913 1290 852 1323 778 1323 c 0
 694 1323 614 1284 539 1208 c 0
 463 1133 412 1010 383 840 c 1
 242 0 l 1
 80 0 l 1
 328 1466 l 1
EndSplineSet
EndChar
StartChar: eng
Encoding: 331 331
Width: 933
Flags: HW
Fore
870 643 m 1
 752 -43 l 1
 729 -182 700 -281 664 -338 c 0
 629 -397 575 -426 504 -426 c 0
 463 -426 410 -414 346 -391 c 1
 399 -242 l 1
 426 -256 451 -262 477 -262 c 0
 512 -262 541 -246 557 -215 c 0
 573 -184 592 -117 610 -10 c 2
 725 674 l 1
 735 731 741 778 741 815 c 0
 741 897 702 938 625 938 c 0
 553 938 487 905 426 840 c 0
 365 774 322 659 293 494 c 2
 209 0 l 1
 61 0 l 1
 242 1063 l 1
 377 1063 l 1
 344 877 l 1
 453 1016 561 1085 670 1085 c 0
 735 1085 788 1063 829 1016 c 0
 870 971 891 911 891 840 c 0
 891 786 885 721 870 643 c 1
EndSplineSet
EndChar
StartChar: OE
Encoding: 338 338
Width: 1677
Flags: HW
Fore
840 109 m 1
 799 59 756 27 711 4 c 0
 668 -16 616 -27 561 -27 c 0
 438 -27 338 23 262 121 c 0
 178 229 135 387 135 592 c 0
 135 770 164 930 223 1071 c 0
 283 1214 358 1319 451 1389 c 0
 541 1456 635 1491 733 1491 c 0
 862 1491 965 1425 1042 1292 c 1
 1071 1466 l 1
 1753 1466 l 1
 1724 1298 l 1
 1204 1298 l 1
 1124 836 l 1
 1651 836 l 1
 1622 670 l 1
 1098 670 l 1
 1010 166 l 1
 1591 166 l 1
 1563 0 l 1
 821 0 l 1
 840 109 l 1
293 614 m 0
 293 487 305 391 326 330 c 0
 348 266 383 219 428 186 c 0
 473 154 522 137 575 137 c 0
 651 137 721 172 784 242 c 0
 848 311 897 436 930 618 c 0
 965 803 981 930 981 1004 c 0
 981 1100 956 1178 905 1237 c 0
 852 1298 793 1327 725 1327 c 0
 651 1327 580 1294 510 1229 c 0
 440 1161 387 1067 348 944 c 0
 311 821 293 713 293 614 c 0
EndSplineSet
EndChar
StartChar: oe
Encoding: 339 339
Width: 1583
Flags: HW
Fore
791 182 m 1
 737 109 684 55 627 23 c 0
 571 -8 512 -25 449 -25 c 0
 346 -25 264 14 201 88 c 0
 137 164 104 274 104 420 c 0
 104 551 127 670 170 774 c 0
 215 881 270 958 340 1010 c 0
 410 1061 485 1085 565 1085 c 0
 633 1085 692 1069 745 1034 c 0
 799 999 840 950 870 887 c 1
 924 956 971 1004 1010 1028 c 0
 1069 1067 1133 1085 1202 1085 c 0
 1307 1085 1389 1044 1450 965 c 0
 1511 883 1542 778 1542 649 c 0
 1542 592 1538 537 1528 483 c 1
 897 483 l 1
 895 461 895 438 895 416 c 0
 895 324 915 248 956 193 c 0
 991 147 1034 125 1090 125 c 0
 1135 125 1178 141 1219 178 c 0
 1270 225 1311 285 1337 360 c 1
 1491 342 l 1
 1450 225 1391 135 1317 72 c 0
 1241 8 1165 -25 1085 -25 c 0
 1018 -25 958 -6 909 29 c 0
 860 63 819 115 791 182 c 1
250 428 m 0
 250 319 268 242 307 190 c 0
 344 141 393 117 451 117 c 0
 498 117 545 135 592 174 c 0
 641 215 682 281 717 371 c 0
 750 463 768 559 768 664 c 0
 768 739 750 805 715 862 c 0
 682 920 631 946 565 946 c 0
 508 946 453 922 401 872 c 0
 350 823 311 752 287 662 c 0
 262 571 250 494 250 428 c 0
922 623 m 1
 1399 623 l 1
 1401 672 l 1
 1401 762 1382 831 1343 877 c 0
 1307 924 1262 946 1204 946 c 0
 1151 946 1098 922 1044 868 c 0
 993 817 952 735 922 623 c 1
EndSplineSet
EndChar
StartChar: Tbar
Encoding: 358 358
Width: 1024
Flags: HW
Fore
678 825 m 1
 539 0 l 1
 377 0 l 1
 518 825 l 1
 346 825 l 1
 371 965 l 1
 543 965 l 1
 600 1300 l 1
 205 1300 l 1
 233 1466 l 1
 1180 1466 l 1
 1151 1300 l 1
 760 1300 l 1
 702 965 l 1
 879 965 l 1
 856 825 l 1
 678 825 l 1
EndSplineSet
EndChar
StartChar: tbar
Encoding: 359 359
Width: 466
Flags: HW
Fore
305 565 m 1
 266 336 l 1
 252 262 246 217 246 201 c 0
 246 158 268 135 311 135 c 0
 342 135 371 139 399 147 c 1
 373 -2 l 1
 340 -12 303 -18 268 -18 c 0
 215 -18 172 -4 139 27 c 0
 106 55 90 94 90 145 c 0
 90 166 98 219 113 305 c 1
 158 565 l 1
 -16 565 l 1
 8 705 l 1
 182 705 l 1
 219 922 l 1
 100 922 l 1
 123 1061 l 1
 242 1061 l 1
 287 1323 l 1
 457 1448 l 1
 389 1061 l 1
 535 1061 l 1
 512 922 l 1
 367 922 l 1
 330 705 l 1
 516 705 l 1
 494 565 l 1
 305 565 l 1
EndSplineSet
EndChar
StartChar: longs
Encoding: 383 383
Width: 372
Flags: HW
Fore
53 0 m 1
 262 1212 l 2
 274 1286 289 1341 301 1376 c 0
 315 1411 340 1438 373 1460 c 0
 406 1481 442 1491 487 1491 c 0
 535 1491 592 1481 664 1462 c 1
 637 1305 l 1
 586 1321 545 1327 510 1327 c 0
 475 1327 453 1317 438 1294 c 0
 426 1274 414 1233 403 1176 c 1
 203 0 l 1
 53 0 l 1
EndSplineSet
EndChar
StartChar: florin
Encoding: 402 402
Width: 933
Flags: HW
Fore
39 -406 m 1
 66 -250 l 1
 121 -264 164 -272 190 -272 c 0
 221 -272 244 -262 258 -244 c 0
 274 -225 287 -184 297 -121 c 1
 440 922 l 1
 276 922 l 1
 297 1063 l 1
 461 1063 l 1
 481 1194 l 2
 494 1284 510 1348 528 1384 c 0
 547 1419 571 1446 602 1464 c 0
 633 1483 672 1493 719 1493 c 0
 760 1493 817 1479 891 1454 c 1
 860 1300 l 1
 805 1317 764 1325 735 1325 c 0
 705 1325 682 1315 666 1296 c 0
 651 1278 639 1235 629 1165 c 1
 612 1063 l 1
 778 1063 l 1
 760 922 l 1
 592 922 l 1
 434 -170 l 1
 420 -270 395 -338 362 -375 c 0
 330 -412 283 -430 221 -430 c 0
 170 -430 109 -422 39 -406 c 1
EndSplineSet
EndChar
StartChar: circumflex
Encoding: 710 710
Width: 557
Flags: HW
Fore
168 1192 m 1
 385 1466 l 1
 549 1466 l 1
 651 1192 l 1
 520 1192 l 1
 457 1368 l 1
 319 1192 l 1
 168 1192 l 1
EndSplineSet
EndChar
StartChar: caron
Encoding: 711 711
Width: 557
Flags: HW
Fore
698 1466 m 1
 481 1192 l 1
 317 1192 l 1
 215 1466 l 1
 344 1466 l 1
 408 1288 l 1
 545 1466 l 1
 698 1466 l 1
EndSplineSet
EndChar
StartChar: macron
Encoding: 713 713
Width: 557
Flags: HW
Fore
166 1229 m 1
 188 1368 l 1
 698 1368 l 1
 674 1229 l 1
 166 1229 l 1
EndSplineSet
EndChar
StartChar: breve
Encoding: 728 728
Width: 557
Flags: HW
Fore
180 1421 m 1
 276 1421 l 1
 287 1329 330 1282 406 1282 c 0
 442 1282 477 1294 506 1319 c 0
 535 1343 557 1378 573 1421 c 1
 672 1421 l 1
 651 1341 616 1278 567 1231 c 0
 518 1186 463 1161 399 1161 c 0
 338 1161 287 1186 246 1231 c 0
 205 1276 184 1339 180 1421 c 1
EndSplineSet
EndChar
StartChar: dotaccent
Encoding: 729 729
Width: 557
Flags: HW
Fore
326 1208 m 1
 365 1432 l 1
 547 1432 l 1
 508 1208 l 1
 326 1208 l 1
EndSplineSet
EndChar
StartChar: ring
Encoding: 730 730
Width: 557
Flags: HW
Fore
268 1321 m 0
 268 1372 285 1415 313 1450 c 0
 344 1485 379 1501 418 1501 c 0
 459 1501 494 1485 522 1450 c 0
 553 1415 567 1372 567 1321 c 0
 567 1268 553 1225 522 1190 c 0
 492 1155 457 1139 418 1139 c 0
 379 1139 344 1155 313 1190 c 0
 285 1225 268 1268 268 1321 c 0
330 1321 m 0
 330 1290 338 1264 356 1243 c 0
 375 1223 395 1212 418 1212 c 0
 440 1212 463 1223 479 1243 c 0
 498 1264 506 1288 506 1321 c 0
 506 1352 498 1376 479 1397 c 0
 463 1417 442 1427 418 1427 c 0
 395 1427 375 1417 356 1397 c 0
 338 1376 330 1352 330 1321 c 0
EndSplineSet
EndChar
StartChar: ogonek
Encoding: 731 731
Width: 557
Flags: HW
Fore
158 27 m 1
 250 27 l 1
 231 -59 227 -127 236 -174 c 0
 242 -213 256 -242 279 -262 c 4
 299 -283 324 -293 350 -293 c 0
 387 -293 432 -279 487 -250 c 1
 487 -369 l 1
 432 -406 377 -426 322 -426 c 0
 276 -426 238 -410 207 -379 c 0
 174 -348 154 -303 143 -242 c 0
 131 -164 135 -76 158 27 c 1
EndSplineSet
EndChar
StartChar: tilde
Encoding: 732 732
Width: 557
Flags: HW
Fore
158 1223 m 1
 174 1311 197 1370 223 1401 c 0
 250 1432 283 1446 324 1446 c 0
 342 1446 358 1444 375 1438 c 0
 393 1434 422 1419 463 1399 c 0
 508 1374 539 1362 553 1362 c 0
 582 1362 602 1386 612 1440 c 1
 711 1440 l 1
 705 1370 686 1317 655 1278 c 0
 625 1239 590 1221 551 1221 c 0
 528 1221 500 1229 467 1247 c 0
 391 1286 344 1307 328 1307 c 0
 291 1307 268 1278 260 1223 c 1
 158 1223 l 1
EndSplineSet
EndChar
StartChar: hungarumlaut
Encoding: 733 733
Width: 557
Flags: HW
Fore
143 1192 m 1
 297 1466 l 1
 485 1466 l 1
 266 1192 l 1
 143 1192 l 1
422 1192 m 1
 571 1466 l 1
 762 1466 l 1
 539 1192 l 1
 422 1192 l 1
EndSplineSet
EndChar
StartChar: uni0320
Encoding: 800 800
Width: 0
Flags: HW
Fore
-367 -539 m 1
 -848 -539 l 1
 -831 -444 l 1
 -350 -444 l 1
 -367 -539 l 1
EndSplineSet
EndChar
StartChar: dotbelowcomb
Encoding: 803 803
Width: 557
Flags: HW
Fore
35 -492 m 1
 74 -268 l 5
 256 -268 l 1
 217 -492 l 1
 35 -492 l 1
EndSplineSet
EndChar
StartChar: tonos
Encoding: 900 900
Width: 557
Flags: HW
Fore
315 1192 m 1
 469 1466 l 1
 657 1466 l 1
 438 1192 l 1
 315 1192 l 1
EndSplineSet
EndChar
StartChar: dieresistonos
Encoding: 901 901
Width: 557
Flags: HW
Fore
291 1190 m 1
 436 1466 l 1
 586 1466 l 1
 389 1190 l 1
 291 1190 l 1
82 1190 m 1
 115 1384 l 1
 258 1384 l 1
 227 1190 l 1
 82 1190 l 1
578 1190 m 1
 612 1384 l 1
 756 1384 l 1
 723 1190 l 1
 578 1190 l 1
EndSplineSet
EndChar
StartChar: anoteleia
Encoding: 903 903
Width: 557
Flags: HW
Fore
285 856 m 1
 319 1063 l 1
 487 1063 l 1
 453 856 l 1
 285 856 l 1
EndSplineSet
EndChar
StartChar: Gamma
Encoding: 915 915
Width: 956
Flags: HW
Fore
236 0 m 1
 74 0 l 1
 326 1466 l 1
 1110 1466 l 1
 1081 1300 l 1
 457 1300 l 1
 236 0 l 1
EndSplineSet
EndChar
StartChar: Delta
Encoding: 916 916
Width: 1124
Flags: HW
Fore
1044 0 m 1
 -25 0 l 1
 657 1466 l 1
 846 1466 l 1
 1044 0 l 1
610 1008 m 2
 227 166 l 1
 866 166 l 1
 764 942 l 1
 748 1069 737 1192 731 1307 c 1
 709 1235 668 1135 610 1008 c 2
EndSplineSet
EndChar
StartChar: Theta
Encoding: 920 920
Width: 1306
Flags: HW
Fore
659 -25 m 0
 512 -25 391 35 297 156 c 0
 201 276 154 438 154 639 c 0
 154 881 215 1081 338 1245 c 0
 461 1409 612 1491 791 1491 c 0
 942 1491 1065 1432 1157 1313 c 0
 1251 1192 1298 1034 1298 834 c 0
 1298 592 1235 389 1110 223 c 0
 983 57 834 -25 659 -25 c 0
788 1329 m 0
 659 1329 547 1262 453 1128 c 0
 358 993 311 825 311 625 c 0
 311 475 346 356 414 268 c 0
 481 180 567 137 670 137 c 0
 797 137 905 207 999 346 c 0
 1094 485 1141 651 1141 846 c 0
 1141 991 1108 1108 1040 1196 c 0
 973 1284 889 1329 788 1329 c 0
934 651 m 1
 487 651 l 1
 516 817 l 1
 963 817 l 1
 934 651 l 1
EndSplineSet
EndChar
StartChar: Lambda
Encoding: 923 923
Width: 1118
Flags: HW
Fore
643 1466 m 1
 815 1466 l 1
 1049 0 l 1
 893 0 l 1
 754 872 l 1
 731 1006 715 1135 705 1257 c 1
 662 1151 621 1053 580 961 c 2
 152 0 l 1
 -14 0 l 1
 643 1466 l 1
EndSplineSet
EndChar
StartChar: Xi
Encoding: 926 926
Width: 1089
Flags: HW
Fore
289 1300 m 1
 317 1466 l 1
 1163 1466 l 1
 1135 1300 l 1
 289 1300 l 1
197 674 m 1
 225 840 l 1
 1036 840 l 1
 1008 674 l 1
 197 674 l 1
6 0 m 1
 37 166 l 1
 987 166 l 1
 961 0 l 1
 6 0 l 1
EndSplineSet
EndChar
StartChar: Pi
Encoding: 928 928
Width: 1210
Flags: HW
Fore
231 0 m 1
 70 0 l 1
 322 1466 l 1
 1266 1466 l 1
 1014 0 l 1
 854 0 l 1
 1081 1300 l 1
 459 1300 l 1
 231 0 l 1
EndSplineSet
EndChar
StartChar: Sigma
Encoding: 931 931
Width: 1007
Flags: HW
Fore
256 1268 m 1
 291 1466 l 1
 1120 1466 l 1
 1092 1300 l 1
 430 1300 l 1
 799 731 l 1
 281 166 l 1
 895 166 l 1
 866 0 l 1
 39 0 l 1
 70 184 l 1
 592 754 l 1
 256 1268 l 1
EndSplineSet
EndChar
StartChar: Phi
Encoding: 934 934
Width: 1406
Flags: HW
Fore
793 1325 m 1
 825 1507 l 1
 987 1507 l 1
 954 1317 l 1
 1096 1300 1204 1249 1280 1161 c 0
 1358 1073 1395 963 1395 825 c 0
 1395 666 1343 524 1239 397 c 0
 1137 270 975 199 754 182 c 1
 711 -57 l 1
 549 -57 l 1
 592 193 l 1
 451 209 342 260 266 346 c 0
 193 432 154 543 154 678 c 0
 154 848 209 997 319 1124 c 0
 430 1251 588 1319 793 1325 c 1
621 354 m 1
 764 1153 l 1
 616 1137 506 1087 428 1001 c 0
 350 918 311 809 311 680 c 0
 311 479 416 371 621 354 c 1
926 1151 m 1
 782 354 l 1
 932 367 1044 418 1122 508 c 0
 1198 598 1237 707 1237 836 c 0
 1237 1028 1133 1133 926 1151 c 1
EndSplineSet
EndChar
StartChar: Psi
Encoding: 936 936
Width: 1394
Flags: HW
Fore
240 1178 m 2
 291 1466 l 1
 451 1466 l 1
 403 1188 l 1
 377 1042 365 940 365 877 c 0
 365 721 463 633 662 616 c 1
 809 1466 l 1
 969 1466 l 1
 823 616 l 1
 952 623 1051 659 1116 721 c 0
 1182 784 1233 924 1272 1139 c 2
 1327 1466 l 1
 1489 1466 l 1
 1423 1090 l 1
 1395 936 1360 815 1317 727 c 0
 1274 641 1206 573 1116 526 c 0
 1026 479 920 455 795 451 c 1
 715 0 l 1
 553 0 l 1
 633 455 l 1
 348 487 207 635 207 893 c 0
 207 961 217 1055 240 1178 c 2
EndSplineSet
EndChar
StartChar: Ohm
Encoding: 937 937
Width: 1277
Flags: HW
Fore
502 0 m 1
 -4 0 l 1
 27 166 l 1
 326 166 l 1
 207 303 150 469 150 664 c 0
 150 885 211 1077 334 1243 c 0
 455 1409 604 1491 778 1491 c 0
 918 1491 1032 1430 1124 1309 c 0
 1214 1188 1262 1030 1262 834 c 0
 1262 549 1165 328 977 166 c 1
 1237 166 l 1
 1208 0 l 1
 709 0 l 1
 737 154 l 1
 854 205 944 289 1008 410 c 0
 1071 530 1104 672 1104 836 c 0
 1104 985 1071 1104 1006 1194 c 0
 942 1284 860 1329 764 1329 c 0
 641 1329 535 1262 444 1126 c 0
 352 991 307 827 307 635 c 0
 307 408 381 248 530 154 c 1
 502 0 l 1
EndSplineSet
EndChar
StartChar: alpha
Encoding: 945 945
Width: 952
Flags: HW
Fore
672 0 m 1
 655 158 l 1
 573 37 481 -23 379 -23 c 0
 287 -23 215 14 162 92 c 0
 109 168 82 274 82 410 c 0
 82 600 125 760 211 891 c 0
 299 1020 397 1085 512 1085 c 0
 627 1085 713 1012 770 868 c 1
 846 1061 l 1
 1004 1061 l 1
 809 547 l 1
 809 332 l 2
 809 229 813 119 821 0 c 1
 672 0 l 1
530 938 m 0
 449 938 377 883 317 774 c 0
 258 664 229 539 229 395 c 0
 229 311 246 244 276 197 c 0
 309 150 350 125 399 125 c 0
 481 125 553 178 614 287 c 0
 676 395 707 518 707 657 c 0
 707 743 690 811 657 862 c 0
 623 913 582 938 530 938 c 0
EndSplineSet
EndChar
StartChar: beta
Encoding: 946 946
Width: 956
Flags: HW
Fore
698 801 m 1
 834 727 899 606 899 442 c 0
 899 315 864 207 795 115 c 0
 725 23 631 -23 516 -23 c 0
 393 -23 299 37 231 158 c 1
 127 -408 l 1
 -16 -408 l 1
 199 838 l 2
 225 1001 254 1124 283 1206 c 0
 313 1288 360 1358 424 1411 c 0
 489 1464 561 1491 639 1491 c 0
 721 1491 791 1460 850 1397 c 0
 907 1333 938 1251 938 1153 c 0
 938 977 858 860 698 801 c 1
358 893 m 1
 305 594 l 1
 291 506 285 438 285 389 c 0
 285 301 307 231 352 178 c 0
 397 125 451 98 512 98 c 0
 580 98 637 131 686 199 c 0
 737 266 762 350 762 449 c 0
 762 637 662 733 461 737 c 1
 483 858 l 1
 586 862 664 891 717 942 c 0
 772 995 799 1065 799 1153 c 0
 799 1208 782 1253 752 1290 c 0
 721 1325 684 1343 641 1343 c 0
 504 1343 410 1194 358 893 c 1
EndSplineSet
EndChar
StartChar: gamma
Encoding: 947 947
Width: 839
Flags: HW
Fore
928 1061 m 1
 422 0 l 1
 352 -408 l 1
 205 -408 l 1
 274 0 l 1
 123 1061 l 1
 268 1061 l 1
 342 477 l 1
 352 406 362 301 373 164 c 1
 403 246 440 332 481 424 c 2
 772 1061 l 1
 928 1061 l 1
EndSplineSet
EndChar
StartChar: delta
Encoding: 948 948
Width: 935
Flags: HW
Fore
311 1348 m 1
 334 1466 l 1
 995 1466 l 1
 969 1315 l 1
 481 1315 l 1
 528 1249 594 1169 678 1077 c 0
 762 985 821 909 854 852 c 0
 887 793 903 717 903 623 c 0
 903 457 862 309 782 176 c 0
 700 43 584 -23 436 -23 c 0
 328 -23 242 16 178 96 c 0
 117 176 86 285 86 420 c 0
 86 584 125 727 207 854 c 0
 289 979 395 1047 526 1055 c 1
 434 1161 362 1257 311 1348 c 1
555 913 m 0
 469 913 395 866 330 770 c 0
 266 676 233 557 233 414 c 0
 233 322 252 248 291 197 c 0
 330 143 381 117 444 117 c 0
 528 117 602 168 664 270 c 0
 725 373 758 492 758 625 c 0
 758 715 739 784 702 836 c 0
 666 887 616 913 555 913 c 0
EndSplineSet
EndChar
StartChar: epsilon
Encoding: 949 949
Width: 735
Flags: HW
Fore
260 563 m 1
 203 627 174 696 174 776 c 0
 174 862 205 936 264 995 c 0
 326 1055 397 1085 481 1085 c 0
 596 1085 692 1034 768 934 c 1
 655 842 l 1
 604 905 549 938 487 938 c 0
 438 938 399 922 369 889 c 0
 338 854 324 815 324 770 c 0
 324 676 387 621 516 608 c 1
 496 473 l 1
 459 475 l 1
 383 475 324 455 279 414 c 0
 233 375 213 324 213 264 c 0
 213 219 225 182 250 156 c 0
 274 131 307 117 348 117 c 0
 434 117 514 160 590 246 c 1
 680 129 l 1
 586 29 479 -23 356 -23 c 0
 264 -23 190 4 135 57 c 0
 82 109 55 178 55 264 c 0
 55 395 123 496 260 563 c 1
EndSplineSet
EndChar
StartChar: zeta
Encoding: 950 950
Width: 776
Flags: HW
Fore
360 1315 m 1
 385 1466 l 1
 932 1466 l 1
 909 1343 l 1
 684 1194 512 1028 393 850 c 0
 274 672 215 508 215 358 c 0
 215 272 233 219 266 197 c 0
 299 172 346 160 408 156 c 0
 469 152 512 141 541 123 c 0
 567 106 592 76 612 31 c 0
 633 -12 643 -59 643 -109 c 0
 643 -315 518 -420 266 -424 c 1
 330 -276 l 1
 446 -266 506 -215 506 -123 c 0
 506 -90 496 -61 477 -41 c 0
 461 -18 416 -6 346 0 c 0
 242 8 170 47 129 117 c 0
 88 186 70 264 70 346 c 0
 70 514 129 688 248 868 c 0
 367 1047 508 1196 676 1315 c 1
 360 1315 l 1
EndSplineSet
EndChar
StartChar: eta
Encoding: 951 951
Width: 933
Flags: HW
Fore
375 1061 m 1
 342 877 l 1
 451 1016 559 1085 666 1085 c 0
 731 1085 784 1063 825 1016 c 0
 868 971 889 909 889 831 c 0
 889 795 881 733 866 643 c 1
 688 -408 l 1
 543 -408 l 1
 723 674 l 1
 735 754 741 799 741 809 c 0
 741 895 700 938 623 938 c 0
 555 938 492 907 428 848 c 0
 367 786 319 670 291 494 c 2
 207 0 l 1
 57 0 l 1
 240 1061 l 1
 375 1061 l 1
EndSplineSet
EndChar
StartChar: theta
Encoding: 952 952
Width: 909
Flags: HW
Fore
424 -23 m 0
 328 -23 250 23 190 115 c 0
 131 205 100 330 100 489 c 0
 100 721 147 946 242 1163 c 0
 336 1382 459 1491 608 1491 c 0
 705 1491 782 1448 842 1360 c 0
 901 1272 932 1149 932 995 c 0
 932 719 883 481 784 279 c 0
 686 78 565 -23 424 -23 c 0
287 801 m 1
 770 801 l 1
 786 909 793 989 793 1040 c 0
 793 1135 776 1208 739 1262 c 0
 705 1317 662 1343 608 1343 c 0
 465 1343 356 1163 287 801 c 1
745 649 m 1
 262 649 l 1
 254 569 248 502 248 442 c 0
 248 344 264 266 299 211 c 0
 334 154 377 125 430 125 c 0
 573 125 678 299 745 649 c 1
EndSplineSet
EndChar
StartChar: kappa
Encoding: 954 954
Width: 839
Flags: HW
Fore
49 0 m 1
 240 1061 l 1
 385 1061 l 1
 303 594 l 1
 727 1061 l 1
 926 1061 l 1
 494 621 l 1
 791 0 l 1
 621 0 l 1
 385 510 l 1
 268 389 l 1
 201 0 l 1
 49 0 l 1
EndSplineSet
EndChar
StartChar: lambda
Encoding: 955 955
Width: 825
Flags: HW
Fore
420 1466 m 1
 567 1466 l 1
 754 0 l 1
 604 0 l 1
 504 834 l 1
 111 0 l 1
 -41 0 l 1
 471 1061 l 1
 420 1466 l 1
EndSplineSet
EndChar
StartChar: mu
Encoding: 956 956
Width: 1179
Flags: HW
Fore
324 1063 m 1
 502 1063 l 1
 395 563 l 2
 371 442 356 356 356 307 c 0
 356 254 375 211 410 178 c 0
 444 143 494 127 555 127 c 0
 637 127 707 156 764 215 c 0
 807 262 842 352 872 489 c 1
 991 1063 l 1
 1171 1063 l 1
 944 0 l 1
 784 0 l 1
 803 84 l 1
 711 12 623 -25 537 -25 c 0
 487 -25 444 -14 406 4 c 0
 369 25 334 57 299 100 c 1
 190 -410 l 1
 12 -410 l 1
 324 1063 l 1
EndSplineSet
EndChar
StartChar: xi
Encoding: 958 958
Width: 749
Flags: HW
Fore
745 1493 m 2
 850 1493 l 1
 823 1341 l 1
 713 1341 l 2
 623 1341 551 1321 502 1282 c 0
 451 1243 426 1194 426 1133 c 0
 426 1083 442 1044 479 1020 c 0
 514 993 604 981 750 981 c 1
 725 834 l 1
 694 834 l 2
 582 834 479 788 389 696 c 0
 299 604 254 496 254 373 c 0
 254 260 305 190 408 166 c 0
 520 137 592 100 623 55 c 0
 651 8 668 -43 668 -104 c 0
 668 -195 637 -270 573 -332 c 0
 512 -391 412 -422 272 -424 c 1
 336 -276 l 1
 463 -268 528 -221 528 -135 c 0
 528 -104 518 -78 502 -55 c 0
 483 -33 440 -14 373 -2 c 0
 307 8 254 31 219 61 c 0
 182 90 154 133 129 190 c 0
 106 246 96 305 96 369 c 0
 96 483 125 588 184 682 c 0
 244 774 328 842 436 887 c 1
 330 934 279 1020 279 1141 c 0
 279 1233 311 1315 375 1386 c 0
 440 1458 563 1493 745 1493 c 2
EndSplineSet
EndChar
StartChar: pi
Encoding: 960 960
Width: 1122
Flags: HW
Fore
139 909 m 1
 166 1061 l 1
 1196 1061 l 1
 1169 909 l 1
 979 909 l 1
 823 0 l 1
 674 0 l 1
 831 909 l 1
 477 909 l 1
 322 0 l 1
 174 0 l 1
 330 909 l 1
 139 909 l 1
EndSplineSet
EndChar
StartChar: rho
Encoding: 961 961
Width: 960
Flags: HW
Fore
223 127 m 1
 127 -408 l 1
 -20 -408 l 1
 127 424 l 1
 170 680 233 854 313 946 c 0
 395 1038 489 1085 598 1085 c 0
 696 1085 778 1044 844 965 c 0
 909 885 940 778 940 649 c 0
 940 465 897 305 807 174 c 0
 717 43 610 -23 489 -23 c 0
 373 -23 285 27 223 127 c 1
594 938 m 0
 508 938 434 883 373 772 c 0
 313 662 283 537 283 393 c 0
 283 309 299 244 336 197 c 0
 373 150 418 125 475 125 c 0
 559 125 635 178 698 285 c 0
 762 389 795 512 795 647 c 0
 795 735 776 805 737 858 c 0
 700 911 653 938 594 938 c 0
EndSplineSet
EndChar
StartChar: sigma1
Encoding: 962 962
Width: 815
Flags: HW
Fore
170 -422 m 1
 227 -274 l 1
 305 -276 l 1
 444 -276 514 -231 514 -145 c 0
 514 -123 508 -100 492 -78 c 0
 477 -55 424 -12 332 49 c 0
 240 111 176 176 141 246 c 0
 109 317 90 391 90 467 c 0
 90 627 147 770 260 897 c 0
 373 1022 512 1085 674 1085 c 0
 754 1085 829 1067 899 1028 c 1
 848 893 l 1
 793 924 735 938 676 938 c 0
 557 938 455 889 369 791 c 0
 283 692 240 584 240 465 c 0
 240 391 252 336 279 297 c 0
 307 258 358 213 434 156 c 0
 510 100 563 53 596 16 c 0
 629 -23 645 -76 645 -145 c 0
 645 -213 623 -276 573 -336 c 0
 524 -395 434 -424 299 -424 c 0
 240 -424 197 -424 170 -422 c 1
EndSplineSet
EndChar
StartChar: sigma
Encoding: 963 963
Width: 1013
Flags: HW
Fore
670 1061 m 1
 1083 1061 l 1
 1057 909 l 1
 840 909 l 1
 881 829 901 741 901 645 c 0
 901 449 858 289 772 164 c 0
 684 39 573 -23 436 -23 c 0
 330 -23 244 16 178 92 c 0
 113 170 82 272 82 399 c 0
 82 600 125 766 213 893 c 0
 303 1022 414 1085 549 1085 c 0
 575 1085 602 1081 631 1073 c 2
 670 1061 l 1
553 946 m 0
 461 946 385 893 322 788 c 0
 260 686 229 561 229 418 c 0
 229 324 248 250 287 197 c 0
 324 143 375 117 438 117 c 0
 526 117 600 170 662 276 c 0
 725 383 756 504 756 641 c 0
 756 737 737 811 700 866 c 0
 664 920 614 946 553 946 c 0
EndSplineSet
EndChar
StartChar: tau
Encoding: 964 964
Width: 628
Flags: HW
Fore
145 909 m 1
 170 1061 l 1
 698 1061 l 1
 672 909 l 1
 483 909 l 1
 326 0 l 1
 176 0 l 1
 334 909 l 1
 145 909 l 1
EndSplineSet
EndChar
StartChar: upsilon
Encoding: 965 965
Width: 923
Flags: HW
Fore
164 662 m 1
 231 1061 l 1
 381 1061 l 1
 283 492 l 1
 266 401 258 340 258 307 c 0
 258 252 274 209 307 174 c 0
 340 141 379 125 428 125 c 0
 492 125 545 150 586 201 c 0
 627 252 659 354 684 504 c 1
 782 1061 l 1
 930 1061 l 1
 846 563 l 2
 807 340 756 186 692 102 c 0
 627 18 541 -23 432 -23 c 0
 338 -23 262 8 205 70 c 0
 150 131 121 213 121 317 c 0
 121 377 135 492 164 662 c 1
EndSplineSet
EndChar
StartChar: phi
Encoding: 966 966
Width: 1095
Flags: HW
Fore
352 -408 m 1
 418 -25 l 1
 313 -4 233 51 176 139 c 0
 121 227 92 336 92 465 c 0
 92 627 135 768 219 891 c 0
 305 1014 412 1079 543 1085 c 1
 483 911 l 1
 408 889 350 834 305 745 c 0
 262 657 242 559 242 449 c 0
 242 281 309 176 446 135 c 1
 532 629 l 1
 565 821 602 944 645 1001 c 0
 690 1057 745 1085 811 1085 c 0
 885 1085 946 1047 997 969 c 0
 1049 891 1073 791 1073 664 c 0
 1073 477 1030 319 944 190 c 0
 856 61 731 -12 567 -29 c 1
 502 -408 l 1
 352 -408 l 1
682 637 m 2
 594 135 l 1
 700 154 784 217 846 322 c 0
 905 428 936 549 936 688 c 0
 936 768 924 829 903 872 c 0
 883 915 856 938 823 938 c 0
 784 938 754 913 735 864 c 0
 717 817 698 739 682 637 c 2
EndSplineSet
EndChar
StartChar: chi
Encoding: 967 967
Width: 917
Flags: HW
Fore
346 358 m 1
 170 1061 l 1
 326 1061 l 1
 461 475 l 1
 811 1061 l 1
 993 1061 l 1
 541 324 l 1
 745 -408 l 1
 586 -408 l 1
 436 213 l 1
 59 -408 l 1
 -121 -408 l 1
 346 358 l 1
EndSplineSet
EndChar
StartChar: psi
Encoding: 968 968
Width: 1222
Flags: HW
Fore
139 475 m 1
 240 1061 l 1
 389 1061 l 1
 307 606 l 1
 289 487 279 403 279 352 c 0
 279 201 352 123 500 117 c 1
 664 1061 l 1
 811 1061 l 1
 645 119 l 1
 733 121 801 139 846 176 c 0
 891 213 924 264 944 328 c 0
 965 393 987 492 1012 625 c 2
 1090 1061 l 1
 1237 1061 l 1
 1149 551 l 2
 1106 307 1044 154 967 86 c 0
 887 18 772 -18 625 -25 c 1
 555 -408 l 1
 408 -408 l 1
 473 -20 l 1
 244 0 129 121 129 342 c 0
 129 383 133 428 139 475 c 1
EndSplineSet
EndChar
StartChar: omega
Encoding: 969 969
Width: 1308
Flags: HW
Fore
639 207 m 1
 567 53 469 -23 346 -23 c 0
 268 -23 205 12 156 80 c 0
 106 150 84 244 84 365 c 0
 84 584 162 817 319 1061 c 1
 467 1061 l 1
 309 778 231 541 231 346 c 0
 231 272 244 217 266 176 c 0
 291 137 322 117 362 117 c 0
 403 117 444 141 485 188 c 0
 524 236 555 297 575 369 c 0
 596 442 618 553 643 700 c 1
 662 795 l 1
 811 795 l 1
 774 602 l 2
 754 485 743 395 743 334 c 0
 743 266 756 213 780 174 c 0
 803 135 836 117 877 117 c 0
 942 117 1001 174 1055 287 c 0
 1108 401 1135 549 1135 731 c 0
 1135 834 1120 944 1094 1061 c 1
 1241 1061 l 1
 1268 936 1280 817 1280 707 c 0
 1280 500 1241 326 1159 186 c 0
 1077 47 981 -23 870 -23 c 0
 754 -23 678 53 639 207 c 1
EndSplineSet
EndChar
StartChar: afii10051
Encoding: 1026 1026
Width: 1413
Flags: HW
Fore
731 195 m 1
 799 156 858 137 905 137 c 0
 985 137 1053 174 1108 250 c 0
 1163 326 1192 416 1192 524 c 0
 1192 602 1169 666 1126 713 c 0
 1083 760 1024 784 948 784 c 0
 850 784 735 752 606 686 c 1
 481 0 l 1
 324 0 l 1
 553 1300 l 1
 160 1300 l 1
 190 1466 l 1
 1137 1466 l 1
 1106 1300 l 1
 715 1300 l 1
 635 848 l 1
 758 907 868 938 967 938 c 0
 1106 938 1204 897 1264 813 c 0
 1323 731 1352 633 1352 518 c 0
 1352 367 1311 238 1227 133 c 0
 1143 29 1036 -25 903 -25 c 0
 838 -25 770 -10 700 20 c 1
 731 195 l 1
EndSplineSet
EndChar
StartChar: afii10053
Encoding: 1028 1028
Width: 1187
Flags: HW
Fore
967 508 m 1
 1122 481 l 1
 1077 319 1008 195 911 109 c 0
 815 20 707 -23 584 -23 c 0
 440 -23 326 31 238 139 c 0
 152 248 109 399 109 592 c 0
 109 852 170 1067 289 1237 c 0
 410 1407 559 1491 739 1491 c 0
 858 1491 958 1450 1040 1368 c 0
 1120 1288 1167 1174 1184 1026 c 1
 1030 1008 l 1
 995 1223 901 1329 743 1329 c 0
 637 1329 547 1288 469 1204 c 0
 391 1120 334 997 295 838 c 1
 735 838 l 1
 702 664 l 1
 270 664 l 1
 268 643 268 612 268 575 c 0
 268 440 299 334 360 252 c 0
 422 172 500 131 598 131 c 0
 770 131 893 256 967 508 c 1
EndSplineSet
EndChar
StartChar: afii10058
Encoding: 1033 1033
Width: 1789
Flags: HW
Fore
524 1300 m 1
 383 496 l 2
 342 268 299 125 252 63 c 0
 205 4 145 -25 72 -25 c 0
 39 -25 -2 -16 -47 0 c 1
 -18 160 l 1
 16 145 43 137 59 137 c 0
 96 137 127 160 152 207 c 0
 176 252 199 344 223 481 c 2
 395 1466 l 1
 1155 1466 l 1
 1047 842 l 1
 1309 842 l 2
 1430 842 1516 829 1565 803 c 0
 1614 776 1653 735 1679 680 c 0
 1706 625 1720 561 1720 489 c 0
 1720 387 1696 295 1645 211 c 0
 1593 127 1532 72 1456 43 c 0
 1382 14 1286 0 1169 0 c 2
 735 0 l 1
 965 1300 l 1
 524 1300 l 1
1018 676 m 1
 930 166 l 1
 1090 166 l 2
 1305 166 1436 201 1487 268 c 0
 1536 336 1561 408 1561 481 c 0
 1561 547 1542 596 1505 627 c 0
 1468 659 1395 676 1288 676 c 2
 1018 676 l 1
EndSplineSet
EndChar
StartChar: afii10059
Encoding: 1034 1034
Width: 1650
Flags: HW
Fore
852 1466 m 1
 1012 1466 l 1
 907 842 l 1
 1169 842 l 2
 1292 842 1378 827 1427 801 c 0
 1475 772 1513 731 1540 676 c 0
 1567 621 1581 559 1581 489 c 0
 1581 389 1556 297 1507 213 c 0
 1456 127 1395 72 1321 43 c 0
 1245 14 1149 0 1030 0 c 2
 600 0 l 1
 719 676 l 1
 322 676 l 1
 205 0 l 1
 43 0 l 1
 295 1466 l 1
 455 1466 l 1
 350 842 l 1
 748 842 l 1
 852 1466 l 1
877 676 m 1
 791 166 l 1
 950 166 l 2
 1165 166 1296 201 1346 268 c 0
 1397 336 1421 408 1421 481 c 0
 1421 547 1403 596 1364 629 c 0
 1327 659 1255 676 1149 676 c 2
 877 676 l 1
EndSplineSet
EndChar
StartChar: afii10060
Encoding: 1035 1035
Width: 1415
Flags: HW
Fore
160 1300 m 1
 190 1466 l 1
 1135 1466 l 1
 1104 1300 l 1
 713 1300 l 1
 633 854 l 1
 756 915 872 946 983 946 c 0
 1096 946 1182 915 1241 854 c 0
 1300 793 1331 702 1331 588 c 0
 1331 543 1323 473 1307 381 c 1
 1239 0 l 1
 1079 0 l 1
 1159 442 l 1
 1167 487 1171 535 1171 582 c 0
 1171 717 1096 784 944 784 c 0
 838 784 723 752 604 688 c 1
 481 0 l 1
 322 0 l 1
 553 1300 l 1
 160 1300 l 1
EndSplineSet
EndChar
StartChar: afii10145
Encoding: 1039 1039
Width: 1212
Flags: HW
Fore
991 0 m 1
 586 0 l 1
 516 -408 l 1
 379 -408 l 1
 451 0 l 1
 43 0 l 1
 303 1466 l 1
 461 1466 l 1
 233 166 l 1
 860 166 l 1
 1087 1466 l 1
 1249 1466 l 1
 991 0 l 1
EndSplineSet
EndChar
StartChar: afii10018
Encoding: 1041 1041
Width: 1093
Flags: HW
Fore
43 0 m 1
 299 1466 l 1
 1075 1466 l 1
 1047 1300 l 1
 428 1300 l 1
 350 842 l 1
 612 842 l 2
 735 842 821 827 870 801 c 0
 918 772 956 731 983 676 c 0
 1010 621 1024 559 1024 489 c 0
 1024 389 999 297 950 213 c 0
 899 127 838 72 764 43 c 0
 688 14 592 0 473 0 c 2
 43 0 l 1
319 676 m 1
 231 166 l 1
 393 166 l 2
 608 166 741 201 791 270 c 0
 840 340 864 410 864 481 c 0
 864 547 846 596 807 627 c 0
 768 659 696 676 590 676 c 2
 319 676 l 1
EndSplineSet
EndChar
StartChar: afii10021
Encoding: 1044 1044
Width: 1181
Flags: HW
Fore
-53 166 m 1
 45 166 l 1
 190 358 311 791 410 1466 c 1
 1202 1466 l 1
 973 166 l 1
 1083 166 l 1
 1001 -293 l 1
 860 -293 l 1
 913 0 l 1
 59 0 l 1
 4 -293 l 1
 -135 -293 l 1
 -53 166 l 1
1012 1300 m 1
 543 1300 l 1
 446 745 340 367 219 166 c 1
 815 166 l 1
 1012 1300 l 1
EndSplineSet
EndChar
StartChar: afii10024
Encoding: 1046 1046
Width: 1538
Flags: HW
Fore
375 1069 m 1
 360 1188 l 1
 350 1272 315 1315 254 1315 c 0
 244 1315 221 1313 184 1307 c 1
 213 1468 l 1
 244 1475 272 1477 299 1477 c 0
 340 1477 375 1468 403 1454 c 0
 430 1438 451 1419 463 1395 c 0
 473 1372 483 1331 492 1270 c 0
 516 1077 543 952 567 897 c 0
 594 842 651 817 741 819 c 1
 854 1466 l 1
 1012 1466 l 1
 899 819 l 1
 981 819 1047 848 1096 911 c 0
 1143 973 1221 1112 1323 1329 c 0
 1343 1374 1376 1411 1421 1438 c 0
 1464 1464 1513 1477 1569 1477 c 0
 1595 1477 1624 1475 1655 1468 c 1
 1626 1307 l 1
 1593 1313 1569 1315 1556 1315 c 0
 1503 1315 1458 1274 1419 1190 c 2
 1364 1071 l 1
 1307 954 1260 874 1219 831 c 0
 1178 788 1135 762 1090 750 c 1
 1174 707 1243 600 1298 432 c 1
 1442 0 l 1
 1266 0 l 1
 1151 342 l 1
 1110 469 1071 557 1036 608 c 0
 1001 659 948 686 877 690 c 1
 758 0 l 1
 598 0 l 1
 719 690 l 1
 666 688 618 672 578 645 c 0
 537 616 496 575 455 518 c 0
 414 461 373 403 330 342 c 2
 96 0 l 1
 -88 0 l 1
 193 412 l 2
 272 528 330 606 367 647 c 0
 403 686 457 721 528 750 c 1
 449 766 397 872 375 1069 c 1
EndSplineSet
EndChar
StartChar: afii10025
Encoding: 1047 1047
Width: 1028
Flags: HW
Fore
739 760 m 1
 860 696 920 586 920 432 c 0
 920 299 877 190 793 106 c 0
 707 20 598 -23 467 -23 c 0
 231 -23 88 123 41 416 c 1
 180 465 l 1
 203 248 297 139 465 139 c 0
 553 139 623 168 678 225 c 0
 733 283 760 354 760 438 c 0
 760 498 741 553 705 602 c 0
 670 653 592 678 471 678 c 1
 393 676 l 1
 434 852 l 1
 498 850 l 1
 604 850 686 872 745 918 c 0
 803 965 831 1028 831 1108 c 0
 831 1171 813 1223 774 1266 c 0
 737 1309 692 1329 637 1329 c 0
 487 1329 385 1227 332 1022 c 1
 176 1061 l 1
 254 1348 408 1491 637 1491 c 0
 739 1491 825 1456 891 1384 c 0
 958 1313 991 1223 991 1110 c 0
 991 1022 969 946 924 883 c 0
 879 819 817 778 739 760 c 1
EndSplineSet
EndChar
StartChar: afii10026
Encoding: 1048 1048
Width: 1200
Flags: HW
Fore
43 0 m 1
 301 1466 l 1
 455 1466 l 1
 258 340 l 1
 1083 1466 l 1
 1233 1466 l 1
 977 0 l 1
 823 0 l 1
 1020 1118 l 1
 199 0 l 1
 43 0 l 1
EndSplineSet
EndChar
StartChar: afii10028
Encoding: 1050 1050
Width: 987
Flags: HW
Fore
461 1466 m 1
 348 819 l 1
 430 819 496 848 545 911 c 0
 592 973 668 1112 772 1329 c 0
 793 1374 825 1409 868 1436 c 0
 913 1464 961 1477 1014 1477 c 0
 1024 1477 1055 1475 1104 1468 c 1
 1075 1307 l 1
 1034 1313 1010 1315 997 1315 c 0
 973 1315 950 1303 928 1280 c 0
 903 1255 864 1186 811 1069 c 0
 758 954 709 874 666 831 c 0
 623 788 582 760 539 750 c 1
 621 711 692 598 754 412 c 2
 891 0 l 1
 715 0 l 1
 600 342 l 1
 557 469 520 557 485 608 c 0
 449 659 397 686 326 690 c 1
 205 0 l 1
 43 0 l 1
 301 1466 l 1
 461 1466 l 1
EndSplineSet
EndChar
StartChar: afii10029
Encoding: 1051 1051
Width: 1150
Flags: HW
Fore
223 481 m 1
 395 1466 l 1
 1184 1466 l 1
 926 0 l 1
 764 0 l 1
 993 1300 l 1
 524 1300 l 1
 383 496 l 1
 379 475 365 406 336 285 c 0
 309 164 274 84 231 43 c 0
 188 4 131 -16 59 -16 c 0
 39 -16 2 -10 -47 0 c 1
 -18 166 l 1
 25 156 53 152 66 152 c 0
 102 152 133 178 158 229 c 0
 180 281 203 365 223 481 c 1
EndSplineSet
EndChar
StartChar: afii10037
Encoding: 1059 1059
Width: 1071
Flags: HW
Fore
498 348 m 1
 162 1466 l 1
 324 1466 l 1
 602 539 l 1
 1063 1466 l 1
 1233 1466 l 1
 598 223 l 2
 557 143 518 82 479 43 c 0
 440 2 393 -18 338 -18 c 0
 313 -18 256 -12 168 0 c 1
 195 168 l 1
 270 154 315 145 332 145 c 0
 377 145 424 197 473 297 c 2
 498 348 l 1
EndSplineSet
EndChar
StartChar: afii10038
Encoding: 1060 1060
Width: 1333
Flags: HW
Fore
727 1339 m 1
 745 1466 l 1
 899 1466 l 1
 879 1329 l 1
 1012 1325 1114 1282 1192 1196 c 0
 1268 1112 1305 999 1305 856 c 0
 1305 682 1253 524 1149 383 c 0
 1047 242 887 168 672 162 c 1
 645 0 l 1
 485 0 l 1
 518 170 l 1
 389 180 289 227 217 309 c 0
 145 393 109 504 109 643 c 0
 109 827 162 987 268 1124 c 0
 375 1260 526 1331 727 1339 c 1
547 334 m 1
 696 1171 l 1
 561 1163 457 1106 381 999 c 0
 305 895 268 768 268 621 c 0
 268 532 293 461 342 410 c 0
 393 360 461 334 547 334 c 1
850 1165 m 1
 702 328 l 1
 842 334 950 389 1028 494 c 0
 1106 600 1145 729 1145 879 c 0
 1145 1065 1047 1159 850 1165 c 1
EndSplineSet
EndChar
StartChar: afii10040
Encoding: 1062 1062
Width: 1220
Flags: HW
Fore
1247 1466 m 1
 1020 166 l 1
 1133 166 l 1
 1053 -293 l 1
 915 -293 l 1
 969 0 l 1
 43 0 l 1
 299 1466 l 1
 461 1466 l 1
 231 166 l 1
 860 166 l 1
 1085 1466 l 1
 1247 1466 l 1
EndSplineSet
EndChar
StartChar: afii10041
Encoding: 1063 1063
Width: 1128
Flags: HW
Fore
178 1061 m 1
 250 1466 l 1
 410 1466 l 1
 326 1006 l 1
 315 946 309 895 309 850 c 0
 309 791 330 743 371 707 c 0
 412 672 467 653 539 653 c 0
 645 653 760 684 879 748 c 1
 1004 1466 l 1
 1163 1466 l 1
 907 0 l 1
 748 0 l 1
 850 582 l 1
 731 522 610 492 489 492 c 0
 387 492 305 522 244 584 c 0
 180 647 150 729 150 831 c 0
 150 877 160 952 178 1061 c 1
EndSplineSet
EndChar
StartChar: afii10042
Encoding: 1064 1064
Width: 1544
Flags: HW
Fore
43 0 m 1
 303 1466 l 1
 465 1466 l 1
 231 166 l 1
 633 166 l 1
 860 1466 l 1
 1020 1466 l 1
 793 166 l 1
 1190 166 l 1
 1419 1466 l 1
 1577 1466 l 1
 1321 0 l 1
 43 0 l 1
EndSplineSet
EndChar
StartChar: afii10043
Encoding: 1065 1065
Width: 1548
Flags: HW
Fore
1577 1466 m 1
 1350 166 l 1
 1462 166 l 1
 1380 -293 l 1
 1239 -293 l 1
 1292 0 l 1
 43 0 l 1
 303 1466 l 1
 465 1466 l 1
 231 166 l 1
 633 166 l 1
 860 1466 l 1
 1020 1466 l 1
 793 166 l 1
 1190 166 l 1
 1419 1466 l 1
 1577 1466 l 1
EndSplineSet
EndChar
StartChar: afii10044
Encoding: 1066 1066
Width: 1351
Flags: HW
Fore
188 1466 m 1
 717 1466 l 1
 608 842 l 1
 870 842 l 2
 1047 842 1161 805 1208 729 c 0
 1257 655 1282 575 1282 489 c 0
 1282 387 1257 293 1206 209 c 0
 1155 125 1094 70 1020 43 c 0
 944 14 850 0 733 0 c 2
 301 0 l 1
 528 1300 l 1
 160 1300 l 1
 188 1466 l 1
580 676 m 1
 492 166 l 1
 651 166 l 2
 866 166 997 201 1047 268 c 0
 1098 336 1122 408 1122 481 c 0
 1122 547 1104 596 1067 627 c 0
 1030 659 956 676 850 676 c 2
 580 676 l 1
EndSplineSet
EndChar
StartChar: afii10046
Encoding: 1068 1068
Width: 1093
Flags: HW
Fore
43 0 m 1
 299 1466 l 1
 459 1466 l 1
 350 842 l 1
 612 842 l 2
 735 842 821 827 870 801 c 0
 918 772 956 731 983 676 c 0
 1010 621 1024 559 1024 489 c 0
 1024 389 999 297 950 213 c 0
 899 127 838 72 764 43 c 0
 688 14 592 0 473 0 c 2
 43 0 l 1
319 676 m 1
 231 166 l 1
 393 166 l 2
 608 166 741 201 791 270 c 0
 840 340 864 410 864 481 c 0
 864 547 846 596 807 627 c 0
 768 659 696 676 590 676 c 2
 319 676 l 1
EndSplineSet
EndChar
StartChar: afii10047
Encoding: 1069 1069
Width: 1163
Flags: HW
Fore
950 670 m 1
 504 670 l 1
 537 844 l 1
 967 844 l 1
 967 879 l 2
 967 1020 936 1128 874 1208 c 0
 815 1288 737 1329 641 1329 c 0
 479 1329 362 1227 287 1020 c 1
 143 1065 l 1
 195 1202 266 1307 356 1380 c 0
 444 1454 545 1491 653 1491 c 0
 797 1491 911 1436 997 1325 c 0
 1083 1214 1126 1063 1126 866 c 0
 1126 610 1067 397 946 229 c 0
 827 61 678 -23 496 -23 c 0
 369 -23 266 20 184 109 c 0
 102 197 57 313 45 461 c 1
 197 512 l 1
 207 387 238 293 289 229 c 0
 342 164 412 131 498 131 c 0
 598 131 690 176 772 264 c 0
 854 354 913 489 950 670 c 1
EndSplineSet
EndChar
StartChar: afii10048
Encoding: 1070 1070
Width: 1716
Flags: HW
Fore
565 608 m 2
 565 647 l 1
 313 647 l 1
 201 0 l 1
 43 0 l 1
 299 1466 l 1
 457 1466 l 1
 344 813 l 1
 582 813 l 1
 616 1026 692 1194 805 1313 c 0
 918 1432 1049 1491 1198 1491 c 0
 1341 1491 1456 1432 1542 1315 c 0
 1628 1196 1671 1038 1671 836 c 0
 1671 602 1614 399 1499 229 c 0
 1384 57 1235 -27 1051 -27 c 0
 905 -27 786 33 698 152 c 0
 610 270 565 422 565 608 c 2
1511 850 m 0
 1511 999 1481 1116 1419 1202 c 0
 1360 1286 1282 1329 1186 1329 c 0
 1067 1329 958 1260 866 1118 c 0
 772 977 725 805 725 600 c 0
 725 457 758 344 823 260 c 0
 889 176 971 135 1069 135 c 0
 1192 135 1294 203 1382 340 c 0
 1468 477 1511 647 1511 850 c 0
EndSplineSet
EndChar
StartChar: afii10049
Encoding: 1071 1071
Width: 1144
Flags: HW
Fore
764 0 m 1
 879 657 l 1
 705 657 l 2
 674 657 641 647 606 625 c 0
 573 604 520 541 446 436 c 2
 139 0 l 1
 -74 0 l 1
 229 436 l 2
 315 561 391 637 455 664 c 1
 264 700 170 817 170 1016 c 0
 170 1110 190 1194 233 1270 c 0
 274 1346 328 1397 393 1425 c 0
 457 1452 561 1466 705 1466 c 2
 1180 1466 l 1
 920 0 l 1
 764 0 l 1
905 809 m 1
 993 1300 l 1
 772 1300 l 2
 631 1300 535 1290 485 1274 c 0
 436 1255 397 1225 371 1180 c 0
 344 1135 330 1083 330 1026 c 0
 330 975 344 928 373 887 c 0
 401 846 451 821 518 817 c 0
 588 811 635 809 657 809 c 2
 905 809 l 1
EndSplineSet
EndChar
StartChar: afii10066
Encoding: 1073 1073
Width: 942
Flags: HW
Fore
971 1491 m 1
 958 1405 934 1348 895 1315 c 0
 856 1284 793 1268 705 1268 c 1
 575 1272 l 1
 512 1272 461 1257 424 1231 c 0
 387 1202 340 1102 281 930 c 1
 356 1018 446 1061 549 1061 c 0
 645 1061 725 1020 791 940 c 0
 856 858 889 752 889 621 c 0
 889 440 844 287 754 162 c 0
 664 37 551 -25 418 -25 c 0
 311 -25 225 14 162 96 c 0
 100 176 68 285 68 422 c 0
 68 555 96 725 150 930 c 0
 205 1135 266 1274 336 1343 c 0
 406 1413 502 1448 625 1448 c 1
 745 1446 l 2
 791 1446 817 1460 825 1491 c 1
 971 1491 l 1
420 123 m 0
 508 123 584 176 645 281 c 0
 709 385 739 502 739 629 c 0
 739 719 721 788 684 842 c 0
 647 895 600 922 539 922 c 0
 449 922 371 872 309 772 c 0
 248 674 217 551 217 408 c 0
 217 326 236 258 274 205 c 0
 311 150 360 123 420 123 c 0
EndSplineSet
EndChar
StartChar: afii10067
Encoding: 1074 1074
Width: 876
Flags: HW
Fore
602 557 m 1
 711 510 766 428 766 309 c 0
 766 217 733 137 670 72 c 0
 604 6 520 -27 414 -27 c 0
 293 -27 201 16 139 100 c 0
 80 186 49 287 49 401 c 0
 49 598 94 760 184 891 c 0
 276 1020 395 1085 541 1085 c 0
 627 1085 694 1061 743 1012 c 0
 795 963 819 899 819 821 c 0
 819 690 748 602 602 557 c 1
227 631 m 1
 283 627 317 625 332 625 c 0
 557 625 670 686 670 807 c 0
 670 846 657 879 633 905 c 0
 606 932 575 946 537 946 c 0
 471 946 408 918 350 862 c 0
 293 807 252 731 227 631 c 1
283 492 m 2
 205 492 l 1
 201 465 199 436 199 406 c 0
 199 317 219 248 260 197 c 0
 303 145 358 121 428 121 c 0
 483 121 528 139 563 174 c 0
 598 211 616 256 616 309 c 0
 616 369 598 414 559 444 c 0
 522 477 430 492 283 492 c 2
EndSplineSet
EndChar
StartChar: afii10068
Encoding: 1075 1075
Width: 827
Flags: HW
Fore
618 330 m 1
 745 319 l 1
 692 90 565 -23 362 -23 c 0
 260 -23 178 4 119 55 c 0
 57 109 27 178 27 264 c 0
 27 330 45 391 84 449 c 0
 121 504 166 541 219 559 c 1
 471 639 l 2
 522 655 559 678 586 705 c 0
 610 733 623 766 623 801 c 0
 623 842 608 874 575 899 c 0
 545 926 504 938 449 938 c 0
 397 938 358 928 332 909 c 0
 305 891 279 854 252 797 c 1
 117 809 l 1
 178 993 289 1085 453 1085 c 0
 551 1085 629 1059 686 1006 c 0
 743 952 772 883 772 795 c 0
 772 729 752 670 713 618 c 0
 674 569 594 526 475 489 c 0
 356 453 285 428 260 414 c 0
 236 399 215 379 199 354 c 0
 184 330 176 303 176 274 c 0
 176 229 195 190 233 162 c 0
 272 131 322 117 381 117 c 0
 444 117 494 131 528 162 c 0
 563 190 594 248 618 330 c 1
EndSplineSet
EndChar
StartChar: afii10069
Encoding: 1076 1076
Width: 927
Flags: HW
Fore
760 903 m 1
 760 963 l 2
 760 1094 737 1188 690 1247 c 0
 643 1307 557 1337 436 1337 c 1
 346 1333 l 1
 373 1491 l 1
 481 1491 l 2
 621 1491 725 1448 791 1360 c 0
 858 1272 891 1135 891 948 c 0
 891 637 848 397 764 229 c 0
 678 59 559 -25 408 -25 c 0
 301 -25 215 14 150 94 c 0
 86 172 53 281 53 418 c 0
 53 608 100 766 193 893 c 0
 285 1022 395 1085 520 1085 c 0
 629 1085 709 1024 760 903 c 1
522 938 m 0
 430 938 354 887 295 784 c 0
 233 682 203 557 203 412 c 0
 203 324 221 254 260 201 c 0
 297 150 348 123 412 123 c 0
 502 123 578 176 639 281 c 0
 700 385 731 510 731 651 c 0
 731 739 713 809 674 860 c 0
 635 911 584 938 522 938 c 0
EndSplineSet
EndChar
StartChar: afii10072
Encoding: 1078 1078
Width: 1153
Flags: HW
Fore
745 1061 m 1
 666 608 l 1
 678 608 l 2
 731 608 784 662 840 770 c 0
 893 879 940 954 975 997 c 0
 1012 1040 1061 1061 1124 1061 c 0
 1155 1061 1184 1055 1214 1044 c 1
 1182 936 l 1
 1161 944 1145 948 1133 948 c 0
 1110 948 1092 940 1077 926 c 0
 1061 911 1036 870 1006 805 c 0
 973 737 942 684 915 643 c 0
 887 604 848 571 795 547 c 1
 834 528 862 504 883 473 c 0
 901 442 922 397 940 338 c 2
 1051 0 l 1
 897 0 l 1
 811 270 l 1
 788 346 766 399 743 434 c 0
 721 469 688 489 645 498 c 1
 557 0 l 1
 412 0 l 1
 500 498 l 1
 469 498 438 483 410 459 c 0
 383 434 340 375 283 285 c 2
 102 0 l 1
 -78 0 l 1
 154 354 l 2
 221 457 293 522 369 547 c 1
 336 573 311 604 295 639 c 0
 276 676 264 729 254 801 c 0
 244 872 236 913 223 928 c 0
 213 942 201 950 184 950 c 0
 176 950 154 946 119 936 c 1
 129 1051 l 1
 152 1057 178 1061 207 1061 c 0
 266 1061 305 1040 326 999 c 0
 346 956 369 872 393 748 c 0
 406 682 422 643 446 629 c 0
 469 614 494 608 520 608 c 1
 602 1061 l 1
 745 1061 l 1
EndSplineSet
EndChar
StartChar: afii10073
Encoding: 1079 1079
Width: 778
Flags: HW
Fore
311 618 m 1
 348 616 l 1
 502 616 580 680 580 805 c 0
 580 899 530 946 430 946 c 0
 387 946 350 936 324 915 c 0
 295 893 270 850 250 786 c 1
 113 805 l 1
 145 905 188 977 240 1020 c 0
 293 1063 360 1085 446 1085 c 0
 535 1085 604 1061 653 1012 c 0
 705 963 729 899 729 819 c 0
 729 696 676 606 567 545 c 1
 639 492 674 418 674 324 c 0
 674 223 643 139 580 74 c 0
 518 8 434 -25 328 -25 c 0
 137 -25 23 82 -12 297 c 1
 129 311 l 1
 152 180 221 115 336 115 c 0
 393 115 438 133 473 170 c 0
 506 207 524 254 524 311 c 0
 524 369 508 412 475 438 c 0
 444 463 391 477 317 477 c 0
 311 477 301 477 287 475 c 1
 311 618 l 1
EndSplineSet
EndChar
StartChar: afii10076
Encoding: 1082 1082
Width: 792
Flags: HW
Fore
23 0 m 1
 213 1061 l 1
 358 1061 l 1
 276 608 l 1
 324 606 360 614 387 631 c 0
 414 649 446 694 483 770 c 0
 543 889 590 967 623 1004 c 0
 657 1042 709 1061 776 1061 c 2
 844 1061 l 1
 817 915 l 1
 782 915 l 2
 741 915 715 907 700 893 c 0
 686 877 655 823 612 731 c 0
 567 639 510 578 438 547 c 1
 502 520 553 446 592 324 c 2
 694 0 l 1
 541 0 l 1
 459 266 l 1
 430 356 403 416 379 449 c 0
 354 481 313 498 258 498 c 1
 170 0 l 1
 23 0 l 1
EndSplineSet
EndChar
StartChar: afii10077
Encoding: 1083 1083
Width: 946
Flags: HW
Fore
391 915 m 1
 281 279 l 1
 262 170 236 94 205 51 c 0
 172 8 127 -14 70 -14 c 0
 43 -14 0 -10 -61 0 c 1
 -35 150 l 1
 -25 147 -4 147 27 147 c 0
 68 147 94 162 106 188 c 0
 119 217 135 285 154 391 c 1
 272 1061 l 1
 928 1061 l 1
 743 0 l 1
 596 0 l 1
 758 915 l 1
 391 915 l 1
EndSplineSet
EndChar
StartChar: afii10078
Encoding: 1084 1084
Width: 1150
Flags: HW
Fore
23 0 m 1
 211 1061 l 1
 430 1061 l 1
 512 215 l 1
 915 1061 l 1
 1133 1061 l 1
 946 0 l 1
 801 0 l 1
 952 856 l 1
 543 0 l 1
 412 0 l 1
 326 889 l 1
 170 0 l 1
 23 0 l 1
EndSplineSet
EndChar
StartChar: afii10079
Encoding: 1085 1085
Width: 923
Flags: HW
Fore
23 0 m 1
 209 1061 l 1
 356 1061 l 1
 276 621 l 1
 682 621 l 1
 758 1061 l 1
 903 1061 l 1
 719 0 l 1
 571 0 l 1
 655 475 l 1
 252 475 l 1
 170 0 l 1
 23 0 l 1
EndSplineSet
EndChar
StartChar: afii10086
Encoding: 1092 1092
Width: 1402
Flags: HW
Fore
934 1466 m 1
 846 944 l 1
 911 1038 987 1085 1075 1085 c 0
 1155 1085 1223 1047 1276 973 c 0
 1327 897 1354 797 1354 670 c 0
 1354 481 1311 319 1227 182 c 0
 1143 45 1047 -23 938 -23 c 0
 889 -23 844 -8 801 25 c 0
 758 55 727 98 709 154 c 1
 610 -408 l 1
 463 -408 l 1
 555 113 l 1
 489 23 414 -23 328 -23 c 0
 248 -23 180 14 127 90 c 0
 76 166 49 266 49 393 c 0
 49 582 92 743 176 881 c 0
 262 1016 358 1085 467 1085 c 0
 514 1085 559 1069 602 1038 c 0
 643 1008 674 967 692 913 c 1
 788 1466 l 1
 934 1466 l 1
1038 938 m 0
 961 938 893 879 838 762 c 0
 784 643 756 512 756 367 c 0
 756 293 772 231 807 186 c 0
 840 139 881 117 928 117 c 0
 1001 117 1065 172 1120 285 c 0
 1176 395 1204 528 1204 684 c 0
 1204 762 1188 825 1159 870 c 0
 1128 915 1087 938 1038 938 c 0
365 117 m 0
 451 117 520 180 571 307 c 0
 621 436 647 561 647 688 c 0
 647 762 631 821 596 868 c 0
 563 915 522 938 475 938 c 0
 401 938 338 883 283 770 c 0
 227 659 199 526 199 371 c 0
 199 291 215 229 244 184 c 0
 274 139 315 117 365 117 c 0
EndSplineSet
EndChar
StartChar: afii10088
Encoding: 1094 1094
Width: 960
Flags: HW
Fore
610 176 m 1
 500 43 395 -23 291 -23 c 0
 225 -23 174 0 133 45 c 0
 94 90 74 150 74 227 c 0
 74 268 80 324 92 393 c 1
 209 1061 l 1
 354 1061 l 1
 238 403 l 2
 227 346 223 293 223 246 c 0
 223 166 262 125 340 125 c 0
 397 125 455 150 508 195 c 0
 561 242 598 299 618 362 c 0
 639 426 655 502 672 592 c 2
 756 1061 l 1
 905 1061 l 1
 770 309 l 1
 756 229 750 186 750 176 c 0
 750 143 768 127 805 127 c 2
 905 127 l 1
 825 -309 l 1
 700 -309 l 1
 756 -18 l 1
 748 -20 l 1
 709 -20 676 -6 649 23 c 0
 621 49 608 88 608 137 c 1
 610 176 l 1
EndSplineSet
EndChar
StartChar: afii10089
Encoding: 1095 1095
Width: 866
Flags: HW
Fore
133 922 m 1
 158 1061 l 1
 303 1061 l 1
 272 885 l 1
 254 774 244 694 244 647 c 0
 244 555 305 508 426 508 c 0
 489 508 551 522 612 551 c 1
 700 1061 l 1
 850 1061 l 1
 664 0 l 1
 514 0 l 1
 586 408 l 1
 510 377 440 360 379 360 c 0
 289 360 219 383 168 432 c 0
 119 479 94 547 94 635 c 0
 94 680 106 774 133 922 c 1
EndSplineSet
EndChar
StartChar: afii10090
Encoding: 1096 1096
Width: 1394
Flags: HW
Fore
1038 0 m 1
 1069 178 l 1
 987 43 893 -25 784 -25 c 0
 729 -25 684 -6 643 31 c 0
 604 70 584 119 578 178 c 1
 487 43 387 -23 281 -23 c 0
 219 -23 170 -2 129 41 c 0
 90 82 70 137 70 203 c 0
 70 252 80 328 98 434 c 1
 211 1061 l 1
 358 1061 l 1
 236 383 l 2
 225 319 219 276 219 250 c 0
 219 170 252 131 317 131 c 0
 381 131 442 162 500 223 c 0
 557 283 598 383 623 522 c 1
 719 1061 l 1
 866 1061 l 1
 741 369 l 1
 731 313 727 270 727 240 c 0
 727 207 735 180 754 160 c 0
 770 139 793 129 821 129 c 0
 870 129 922 150 971 193 c 0
 1020 236 1055 285 1079 344 c 0
 1102 401 1122 477 1139 569 c 1
 1229 1061 l 1
 1374 1061 l 1
 1184 0 l 1
 1038 0 l 1
EndSplineSet
EndChar
StartChar: afii10091
Encoding: 1097 1097
Width: 1429
Flags: HW
Fore
866 1061 m 1
 741 369 l 1
 731 322 727 279 727 240 c 0
 727 207 735 180 754 160 c 0
 770 139 793 129 821 129 c 0
 870 129 922 150 971 193 c 0
 1020 236 1055 285 1079 344 c 0
 1102 401 1122 477 1139 569 c 1
 1229 1061 l 1
 1374 1061 l 1
 1229 256 l 1
 1223 231 1221 205 1221 176 c 0
 1221 143 1239 127 1276 127 c 2
 1374 127 l 1
 1296 -309 l 1
 1171 -309 l 1
 1229 -18 l 1
 1221 -20 l 1
 1126 -20 1079 31 1079 135 c 2
 1079 170 l 1
 1030 88 985 35 942 10 c 0
 899 -12 844 -25 780 -25 c 0
 729 -25 684 -6 645 31 c 0
 604 70 584 119 578 178 c 1
 487 43 387 -23 281 -23 c 0
 219 -23 170 -2 129 41 c 0
 90 82 70 137 70 203 c 0
 70 252 80 328 98 434 c 1
 211 1061 l 1
 358 1061 l 1
 236 383 l 2
 225 319 219 276 219 250 c 0
 219 170 252 131 317 131 c 0
 381 131 442 162 500 223 c 0
 557 283 598 383 623 522 c 1
 719 1061 l 1
 866 1061 l 1
EndSplineSet
EndChar
StartChar: afii10092
Encoding: 1098 1098
Width: 1040
Flags: HW
Fore
70 915 m 1
 96 1061 l 1
 518 1061 l 1
 444 651 l 1
 623 651 l 2
 702 651 764 643 809 627 c 0
 854 612 891 580 918 532 c 0
 942 485 956 430 956 367 c 0
 956 295 940 227 907 162 c 0
 874 98 831 53 780 33 c 0
 727 10 657 0 571 0 c 2
 182 0 l 1
 346 915 l 1
 70 915 l 1
418 506 m 1
 354 145 l 1
 561 145 l 2
 725 145 807 211 807 344 c 0
 807 397 793 438 766 465 c 0
 739 492 690 506 618 506 c 2
 418 506 l 1
EndSplineSet
EndChar
StartChar: afii10094
Encoding: 1100 1100
Width: 882
Flags: HW
Fore
23 0 m 1
 211 1061 l 1
 358 1061 l 1
 285 651 l 1
 463 651 l 2
 541 651 604 643 647 629 c 0
 692 614 729 582 758 532 c 0
 784 483 799 428 799 367 c 0
 799 295 782 227 748 164 c 0
 715 98 672 55 618 33 c 0
 567 10 498 0 412 0 c 2
 23 0 l 1
258 506 m 1
 195 145 l 1
 401 145 l 2
 567 145 649 211 649 344 c 0
 649 397 635 438 608 465 c 0
 582 492 530 506 459 506 c 2
 258 506 l 1
EndSplineSet
EndChar
StartChar: afii10095
Encoding: 1101 1101
Width: 823
Flags: HW
Fore
606 475 m 1
 338 475 l 1
 362 621 l 1
 627 621 l 1
 627 698 l 2
 627 770 610 829 578 874 c 0
 547 922 506 946 455 946 c 0
 356 946 281 870 227 721 c 1
 80 741 l 1
 162 971 287 1085 457 1085 c 0
 555 1085 633 1049 690 973 c 0
 748 899 776 795 776 662 c 0
 776 461 733 295 649 166 c 0
 565 37 455 -27 322 -27 c 0
 236 -27 162 2 106 61 c 0
 49 119 18 201 14 303 c 1
 160 315 l 1
 164 254 182 205 213 172 c 0
 246 137 287 121 336 121 c 0
 463 121 553 240 606 475 c 1
EndSplineSet
EndChar
StartChar: afii10096
Encoding: 1102 1102
Width: 1263
Flags: HW
Fore
432 455 m 1
 252 455 l 1
 172 0 l 1
 23 0 l 1
 211 1061 l 1
 358 1061 l 1
 279 600 l 1
 446 600 l 1
 471 750 526 866 606 954 c 0
 686 1040 778 1085 883 1085 c 0
 983 1085 1063 1049 1122 973 c 0
 1182 899 1212 795 1212 664 c 0
 1212 469 1169 307 1081 172 c 0
 995 39 887 -27 758 -27 c 0
 664 -27 584 12 522 90 c 0
 459 168 428 266 428 385 c 0
 428 397 430 422 432 455 c 1
877 946 m 0
 795 946 725 891 666 782 c 0
 608 674 578 541 578 387 c 0
 578 305 596 240 629 193 c 0
 664 145 709 121 766 121 c 0
 864 121 938 184 987 311 c 0
 1038 438 1063 565 1063 694 c 0
 1063 772 1044 834 1010 879 c 0
 975 924 932 946 877 946 c 0
EndSplineSet
EndChar
StartChar: afii10097
Encoding: 1103 1103
Width: 894
Flags: HW
Fore
502 1061 m 2
 883 1061 l 1
 694 0 l 1
 547 0 l 1
 625 440 l 1
 575 440 l 2
 518 440 479 438 457 434 c 0
 434 430 410 416 383 393 c 0
 356 371 328 336 299 285 c 2
 133 0 l 1
 -47 0 l 1
 119 270 l 2
 174 358 233 422 299 457 c 1
 174 498 113 588 113 727 c 0
 113 793 129 852 160 909 c 0
 193 967 231 1006 281 1028 c 0
 330 1051 403 1061 502 1061 c 2
651 586 m 1
 711 915 l 1
 506 915 l 2
 406 915 340 901 309 870 c 0
 279 842 262 797 262 739 c 0
 262 672 279 629 309 612 c 0
 342 594 389 586 451 586 c 2
 651 586 l 1
EndSplineSet
EndChar
StartChar: afii10099
Encoding: 1106 1106
Width: 933
Flags: HW
Fore
27 0 m 1
 233 1200 l 1
 119 1200 l 1
 147 1352 l 1
 258 1352 l 1
 279 1466 l 1
 426 1466 l 1
 408 1352 l 1
 715 1352 l 1
 688 1200 l 1
 381 1200 l 1
 330 903 l 1
 430 1024 530 1085 633 1085 c 0
 700 1085 756 1063 797 1016 c 0
 840 971 860 911 860 840 c 0
 860 791 840 643 797 401 c 0
 756 158 723 -16 705 -125 c 0
 684 -231 655 -307 618 -354 c 0
 582 -401 532 -424 471 -424 c 0
 424 -424 375 -416 326 -399 c 1
 352 -246 l 1
 383 -256 412 -262 440 -262 c 0
 475 -262 502 -248 520 -221 c 0
 539 -195 557 -125 575 -16 c 1
 688 643 l 1
 702 725 711 782 711 819 c 0
 711 899 672 938 596 938 c 0
 537 938 481 918 430 877 c 0
 381 836 342 782 319 717 c 0
 295 653 272 565 254 455 c 2
 176 0 l 1
 27 0 l 1
EndSplineSet
EndChar
StartChar: afii10100
Encoding: 1107 1107
Width: 634
Flags: HW
Fore
446 1190 m 1
 324 1190 l 1
 479 1466 l 1
 666 1466 l 1
 446 1190 l 1
209 1061 m 1
 719 1061 l 1
 692 915 l 1
 330 915 l 1
 168 0 l 1
 23 0 l 1
 209 1061 l 1
EndSplineSet
EndChar
StartChar: afii10101
Encoding: 1108 1108
Width: 829
Flags: HW
Fore
227 618 m 1
 494 618 l 1
 467 473 l 1
 205 473 l 1
 203 449 201 414 201 369 c 0
 201 293 217 231 248 188 c 0
 279 145 319 123 373 123 c 0
 481 123 561 211 612 385 c 1
 760 365 l 1
 723 238 668 141 600 74 c 0
 530 8 455 -25 369 -25 c 0
 274 -25 199 12 139 88 c 0
 80 164 51 268 51 403 c 0
 51 602 92 766 176 893 c 0
 260 1022 371 1085 506 1085 c 0
 600 1085 676 1055 731 993 c 0
 786 932 813 844 813 733 c 1
 668 723 l 1
 666 795 647 848 616 883 c 0
 586 920 545 938 494 938 c 0
 434 938 379 909 330 854 c 0
 281 797 248 719 227 618 c 1
EndSplineSet
EndChar
StartChar: afii10106
Encoding: 1113 1113
Width: 1527
Flags: HW
Fore
424 915 m 1
 313 279 l 1
 276 78 201 -23 84 -23 c 0
 41 -23 -8 -14 -61 4 c 1
 -33 160 l 1
 -2 145 25 139 49 139 c 0
 88 139 117 156 135 193 c 0
 152 227 168 293 186 391 c 2
 305 1061 l 1
 999 1061 l 1
 930 651 l 1
 1108 651 l 2
 1186 651 1249 643 1294 627 c 0
 1339 612 1376 580 1403 532 c 0
 1430 483 1444 428 1444 367 c 0
 1444 295 1427 227 1393 162 c 0
 1358 98 1315 53 1264 33 c 0
 1212 10 1143 0 1057 0 c 2
 670 0 l 1
 829 915 l 1
 424 915 l 1
903 506 m 1
 840 145 l 1
 1047 145 l 2
 1212 145 1294 211 1294 342 c 0
 1294 397 1280 438 1251 465 c 0
 1225 492 1176 506 1106 506 c 2
 903 506 l 1
EndSplineSet
EndChar
StartChar: afii10107
Encoding: 1114 1114
Width: 1390
Flags: HW
Fore
862 1061 m 1
 793 651 l 1
 969 651 l 2
 1049 651 1112 643 1157 627 c 0
 1204 610 1239 580 1266 530 c 0
 1292 483 1305 428 1305 367 c 0
 1305 295 1288 227 1255 162 c 0
 1223 98 1180 55 1126 33 c 0
 1073 10 1004 0 918 0 c 2
 530 0 l 1
 621 506 l 1
 252 506 l 1
 170 0 l 1
 23 0 l 1
 209 1061 l 1
 356 1061 l 1
 285 651 l 1
 647 651 l 1
 717 1061 l 1
 862 1061 l 1
766 506 m 1
 700 145 l 1
 909 145 l 2
 1073 145 1155 211 1155 344 c 0
 1155 397 1141 438 1114 465 c 0
 1087 492 1038 506 967 506 c 2
 766 506 l 1
EndSplineSet
EndChar
StartChar: afii10108
Encoding: 1115 1115
Width: 933
Flags: HW
Fore
147 1352 m 1
 258 1352 l 1
 279 1466 l 1
 426 1466 l 1
 408 1352 l 1
 715 1352 l 1
 688 1200 l 1
 381 1200 l 1
 330 903 l 1
 430 1024 530 1085 633 1085 c 0
 702 1085 756 1063 799 1018 c 0
 840 971 860 913 860 842 c 0
 860 801 852 729 834 627 c 1
 725 0 l 1
 578 0 l 1
 688 643 l 1
 702 725 711 782 711 819 c 0
 711 899 672 938 596 938 c 0
 537 938 481 918 430 877 c 0
 381 836 342 782 319 717 c 0
 295 653 272 565 254 455 c 2
 176 0 l 1
 27 0 l 1
 233 1200 l 1
 119 1200 l 1
 147 1352 l 1
EndSplineSet
EndChar
StartChar: afii10193
Encoding: 1119 1119
Width: 933
Flags: HW
Fore
586 0 m 1
 618 193 l 1
 530 72 444 2 356 -16 c 1
 285 -408 l 1
 166 -408 l 1
 240 -16 l 1
 129 18 74 96 74 215 c 0
 74 258 84 336 102 449 c 1
 207 1061 l 1
 356 1061 l 1
 240 383 l 1
 229 311 223 266 223 248 c 0
 223 166 262 125 340 125 c 0
 395 125 449 145 500 186 c 0
 549 227 588 281 612 344 c 0
 637 406 659 494 678 604 c 1
 756 1061 l 1
 905 1061 l 1
 723 0 l 1
 586 0 l 1
EndSplineSet
EndChar
StartChar: afii10050
Encoding: 1168 1168
Width: 825
Flags: HW
Fore
295 1466 m 1
 848 1466 l 1
 899 1757 l 1
 1040 1757 l 1
 958 1300 l 1
 426 1300 l 1
 205 0 l 1
 43 0 l 1
 295 1466 l 1
EndSplineSet
EndChar
StartChar: afii10098
Encoding: 1169 1169
Width: 567
Flags: HW
Fore
705 1315 m 1
 631 915 l 1
 330 915 l 1
 168 0 l 1
 23 0 l 1
 209 1061 l 1
 535 1061 l 1
 580 1315 l 1
 705 1315 l 1
EndSplineSet
EndChar
StartChar: afii57388
Encoding: 1548 1548
Width: 522
Flags: HW
Fore
442 412 m 1
 369 381 322 309 303 199 c 1
 395 199 l 1
 360 -6 l 1
 170 -6 l 1
 205 199 l 2
 219 283 246 348 283 393 c 128
 322 438 362 469 410 487 c 1
 442 412 l 1
EndSplineSet
EndChar
StartChar: afii57403
Encoding: 1563 1563
Width: 522
Flags: HW
Fore
528 905 m 1
 453 874 406 803 387 692 c 1
 479 692 l 1
 444 487 l 1
 254 487 l 1
 289 692 l 2
 303 776 330 842 369 887 c 128
 406 930 449 963 496 981 c 1
 528 905 l 1
362 0 m 1
 172 0 l 1
 207 205 l 1
 397 205 l 1
 362 0 l 1
EndSplineSet
EndChar
StartChar: afii57407
Encoding: 1567 1567
Width: 1046
Flags: HW
Fore
1151 1067 m 1
 977 1047 l 1
 977 1051 977 1055 977 1057 c 0
 977 1247 903 1343 756 1343 c 0
 682 1343 614 1317 555 1264 c 128
 494 1210 459 1149 446 1079 c 0
 442 1063 442 1049 442 1034 c 0
 442 1008 446 981 459 961 c 128
 473 926 502 887 543 842 c 0
 584 797 614 758 635 727 c 128
 657 696 674 664 684 629 c 128
 692 598 696 567 696 537 c 0
 696 498 688 436 674 360 c 1
 514 360 l 1
 522 416 526 463 526 498 c 0
 526 524 524 547 520 563 c 128
 510 600 475 651 418 717 c 0
 344 801 299 870 285 926 c 128
 274 958 270 991 270 1024 c 0
 270 1047 272 1069 276 1092 c 0
 295 1206 352 1303 449 1378 c 128
 545 1454 655 1491 782 1491 c 0
 907 1491 1001 1454 1067 1380 c 128
 1124 1315 1153 1227 1153 1114 c 0
 1153 1100 1153 1083 1151 1067 c 1
625 0 m 1
 434 0 l 1
 469 205 l 1
 659 205 l 1
 625 0 l 1
EndSplineSet
EndChar
StartChar: afii57409
Encoding: 1569 1569
Width: 995
Flags: HW
Fore
922 164 m 1
 715 80 442 27 102 0 c 1
 137 195 l 1
 168 195 313 203 338 207 c 1
 287 236 248 279 225 332 c 128
 209 369 201 408 201 449 c 0
 201 469 203 489 205 510 c 0
 221 608 268 692 344 762 c 128
 420 829 512 864 623 864 c 0
 836 864 942 762 944 557 c 1
 774 535 l 1
 770 625 709 670 590 670 c 0
 465 670 383 602 365 498 c 0
 362 485 362 471 362 459 c 0
 362 371 414 299 518 240 c 1
 672 264 817 305 954 360 c 1
 922 164 l 1
EndSplineSet
EndChar
StartChar: afii57410
Encoding: 1570 1570
Width: 456
Flags: HW
Fore
313 0 m 1
 152 0 l 1
 401 1466 l 1
 563 1466 l 1
 313 0 l 1
799 1675 m 1
 745 1618 690 1589 631 1589 c 0
 608 1589 567 1599 510 1622 c 0
 455 1642 416 1653 395 1653 c 0
 356 1653 315 1632 274 1593 c 1
 238 1649 l 1
 291 1704 346 1733 403 1733 c 0
 426 1733 467 1720 526 1700 c 0
 582 1679 618 1669 641 1669 c 0
 686 1669 725 1690 762 1731 c 1
 799 1675 l 1
EndSplineSet
Ligature: 1 'liga' afii57415 uni06E4
Substitution: 1 'fina' uniFE82
Substitution: 1 'medi' uniFE82
EndChar
StartChar: afii57413
Encoding: 1573 1573
Width: 456
Flags: HW
Fore
313 0 m 1
 152 0 l 1
 401 1466 l 1
 563 1466 l 1
 313 0 l 1
305 -307 m 1
 45 -356 l 1
 57 -285 l 1
 113 -274 l 1
 76 -256 57 -227 57 -190 c 0
 57 -139 80 -98 109 -74 c 128
 135 -51 168 -39 207 -39 c 0
 283 -39 322 -76 324 -147 c 1
 256 -154 l 1
 252 -129 231 -117 195 -117 c 0
 154 -117 131 -133 127 -166 c 0
 125 -170 125 -174 125 -178 c 0
 125 -197 133 -213 152 -227 c 128
 172 -242 201 -250 238 -250 c 1
 317 -236 l 1
 305 -307 l 1
EndSplineSet
Substitution: 1 'fina' uniFE88
Substitution: 1 'medi' uniFE88
EndChar
StartChar: afii57415
Encoding: 1575 1575
Width: 456
Flags: HW
Fore
313 0 m 1
 152 0 l 1
 401 1466 l 1
 563 1466 l 1
 313 0 l 1
EndSplineSet
Substitution: 1 'fina' uniFE8E
Substitution: 1 'medi' uniFE8E
EndChar
StartChar: afii57416
Encoding: 1576 1576
Width: 1449
Flags: HW
Fore
733 -389 m 5
 567 -389 l 5
 598 -211 l 5
 762 -211 l 5
 733 -389 l 5
1430 502 m 5
 1430 457 1430 457 1417 391 c 4
 1380 178 1380 178 1178 39 c 132
 975 -102 975 -102 670 -102 c 4
 397 -102 397 -102 268 12 c 132
 184 86 156 111 156 178 c 0
 156 215 162 260 174 332 c 4
 195 451 195 451 248 543 c 5
 393 502 l 5
 352 426 352 426 338 334 c 4
 328 276 319 231 319 197 c 0
 319 92 393 92 702 92 c 4
 922 92 922 92 1079 186 c 132
 1237 281 1237 281 1262 432 c 4
 1268 459 1270 469 1270 479 c 0
 1270 485 1268 492 1268 502 c 5
 1430 502 l 5
EndSplineSet
Substitution: 1 'fina' uniFE90
Substitution: 1 'medi' uniFE92
Substitution: 1 'init' uniFE91
EndChar
StartChar: afii57417
Encoding: 1577 1577
Width: 966
Flags: HW
Fore
895 1149 m 5
 758 1149 l 5
 782 1296 l 5
 920 1296 l 5
 895 1149 l 5
645 1149 m 5
 508 1149 l 5
 532 1296 l 5
 672 1296 l 5
 645 1149 l 5
EndSplineSet
Ref: 1607 1607 N 1 0 0 1 0 0
Substitution: 1 'fina' uni06C3
Substitution: 1 'fina' uniFE94
EndChar
StartChar: afii57418
Encoding: 1578 1578
Width: 1449
Flags: HW
Fore
1073 748 m 5
 936 748 l 5
 961 895 l 5
 1098 895 l 5
 1073 748 l 5
823 748 m 5
 686 748 l 5
 711 895 l 5
 848 895 l 5
 823 748 l 5
1430 502 m 5
 1430 457 1430 457 1417 391 c 4
 1380 178 1380 178 1178 39 c 132
 975 -102 975 -102 670 -102 c 4
 397 -102 397 -102 268 12 c 132
 184 86 156 111 156 178 c 0
 156 215 162 260 174 332 c 4
 195 451 195 451 248 543 c 5
 393 502 l 5
 352 426 352 426 338 334 c 4
 328 276 319 231 319 197 c 0
 319 92 393 92 702 92 c 4
 922 92 922 92 1079 186 c 132
 1237 281 1237 281 1262 432 c 4
 1268 459 1270 469 1270 479 c 0
 1270 485 1268 492 1268 502 c 5
 1430 502 l 5
EndSplineSet
Substitution: 1 'fina' uniFE96
Substitution: 1 'medi' uniFE98
Substitution: 1 'init' uniFE97
EndChar
StartChar: afii57419
Encoding: 1579 1579
Width: 1449
Flags: HW
Fore
983 956 m 5
 846 956 l 5
 870 1104 l 5
 1008 1104 l 5
 983 956 l 5
1073 748 m 5
 936 748 l 5
 961 895 l 5
 1098 895 l 5
 1073 748 l 5
823 748 m 5
 686 748 l 5
 711 895 l 5
 848 895 l 5
 823 748 l 5
1430 502 m 5
 1430 457 1430 457 1417 391 c 4
 1380 178 1380 178 1178 39 c 132
 975 -102 975 -102 670 -102 c 4
 397 -102 397 -102 268 12 c 132
 184 86 156 111 156 178 c 0
 156 215 162 260 174 332 c 4
 195 451 195 451 248 543 c 5
 393 502 l 5
 352 426 352 426 338 334 c 4
 328 276 319 231 319 197 c 0
 319 92 393 92 702 92 c 4
 922 92 922 92 1079 186 c 132
 1237 281 1237 281 1262 432 c 4
 1268 459 1270 469 1270 479 c 0
 1270 485 1268 492 1268 502 c 5
 1430 502 l 5
EndSplineSet
Substitution: 1 'fina' uniFE9A
Substitution: 1 'medi' uniFE9C
Substitution: 1 'init' uniFE9B
EndChar
StartChar: afii57420
Encoding: 1580 1580
Width: 1024
Flags: HW
Fore
670 -76 m 5
 506 -76 l 5
 535 102 l 5
 700 102 l 5
 670 -76 l 5
EndSplineSet
Ref: 1581 1581 N 1 0 0 1 0 0
Substitution: 1 'fina' uniFE9E
Substitution: 1 'medi' uniFEA0
Substitution: 1 'init' uniFE9F
EndChar
StartChar: afii57421
Encoding: 1581 1581
Width: 1024
Flags: HW
Fore
991 -485 m 1
 846 -532 705 -555 567 -555 c 0
 399 -555 272 -506 184 -410 c 128
 117 -334 84 -244 84 -137 c 0
 84 -106 86 -74 92 -41 c 0
 119 121 205 262 350 383 c 128
 496 502 668 580 868 614 c 1
 778 664 702 696 641 711 c 128
 578 725 500 733 408 733 c 0
 367 733 319 727 264 713 c 1
 264 903 l 1
 315 920 369 928 422 928 c 0
 512 928 596 909 672 874 c 128
 748 838 860 764 1012 649 c 1
 987 502 l 1
 547 426 303 246 254 -43 c 0
 252 -61 250 -78 250 -94 c 0
 250 -164 274 -221 326 -270 c 128
 389 -330 479 -360 598 -360 c 0
 707 -360 838 -340 993 -299 c 1
 991 -485 l 1
EndSplineSet
Substitution: 1 'fina' uniFEA2
Substitution: 1 'medi' uniFEA4
Substitution: 1 'init' uniFEA3
EndChar
StartChar: afii57422
Encoding: 1582 1582
Width: 1024
Flags: HW
Fore
788 1094 m 5
 623 1094 l 5
 653 1272 l 5
 819 1272 l 5
 788 1094 l 5
EndSplineSet
Ref: 1581 1581 N 1 0 0 1 0 0
Substitution: 1 'fina' uniFEA6
Substitution: 1 'medi' uniFEA8
Substitution: 1 'init' uniFEA7
EndChar
StartChar: afii57423
Encoding: 1583 1583
Width: 808
Flags: HW
Fore
582 895 m 1
 709 676 770 520 770 424 c 0
 770 412 770 401 768 393 c 0
 748 270 682 174 571 104 c 128
 461 35 313 0 129 0 c 2
 72 0 l 1
 106 195 l 1
 160 195 l 2
 434 195 584 260 606 393 c 0
 608 399 608 408 608 416 c 0
 608 506 535 666 385 895 c 1
 582 895 l 1
EndSplineSet
Substitution: 1 'fina' uniFEAA
Substitution: 1 'medi' uniFEAA
EndChar
StartChar: afii57424
Encoding: 1584 1584
Width: 808
Flags: HW
Fore
578 1110 m 5
 412 1110 l 5
 442 1288 l 5
 606 1288 l 5
 578 1110 l 5
EndSplineSet
Ref: 1583 1583 N 1 0 0 1 0 0
Substitution: 1 'fina' uniFEAC
Substitution: 1 'medi' uniFEAC
EndChar
StartChar: afii57425
Encoding: 1585 1585
Width: 792
Flags: HW
Fore
721 594 m 1
 731 539 735 481 735 422 c 0
 735 356 729 289 717 219 c 0
 682 12 598 -147 463 -260 c 128
 330 -373 166 -430 -31 -430 c 0
 -76 -430 -135 -426 -213 -416 c 1
 -147 -240 l 1
 -94 -250 -45 -256 0 -256 c 0
 315 -256 502 -98 555 219 c 0
 561 256 565 293 565 332 c 0
 565 414 551 502 524 594 c 1
 721 594 l 1
EndSplineSet
Substitution: 1 'fina' uniFEAE
Substitution: 1 'medi' uniFEAE
EndChar
StartChar: afii57426
Encoding: 1586 1586
Width: 792
Flags: HW
Fore
711 784 m 5
 545 784 l 5
 575 963 l 5
 741 963 l 5
 711 784 l 5
EndSplineSet
Ref: 1585 1585 N 1 0 0 1 0 0
Substitution: 1 'fina' uniFEB0
Substitution: 1 'medi' uniFEB0
EndChar
StartChar: afii57427
Encoding: 1587 1587
Width: 2248
Flags: HW
Fore
2195 422 m 2
 2173 285 2128 180 2062 109 c 128
 1997 37 1915 0 1815 0 c 2
 1800 0 l 2
 1692 0 1618 31 1579 92 c 1
 1526 31 1454 0 1362 0 c 0
 1307 0 1268 16 1243 49 c 1
 1206 -119 1128 -248 1010 -336 c 128
 891 -424 741 -467 563 -467 c 0
 381 -467 246 -428 162 -350 c 128
 96 -291 63 -211 63 -109 c 0
 63 -78 66 -45 72 -12 c 0
 88 76 119 180 166 301 c 1
 311 260 l 1
 272 156 248 66 236 -10 c 0
 231 -27 229 -43 229 -59 c 0
 229 -201 352 -272 598 -272 c 0
 883 -272 1051 -131 1098 150 c 2
 1171 582 l 1
 1333 582 l 1
 1305 418 l 2
 1298 377 1294 342 1294 313 c 0
 1294 287 1298 264 1305 248 c 128
 1317 213 1346 195 1391 195 c 0
 1436 195 1473 213 1497 246 c 128
 1522 281 1542 340 1556 422 c 2
 1583 582 l 1
 1745 582 l 1
 1718 426 l 2
 1712 395 1710 367 1710 342 c 0
 1710 244 1751 195 1833 195 c 2
 1849 195 l 2
 1946 195 2007 272 2034 426 c 2
 2083 709 l 1
 2245 709 l 1
 2195 422 l 2
EndSplineSet
Substitution: 1 'fina' uniFEB2
Substitution: 1 'medi' uniFEB4
Substitution: 1 'init' uniFEB3
EndChar
StartChar: afii57428
Encoding: 1588 1588
Width: 2248
Flags: HW
Fore
1774 1090 m 5
 1634 1090 l 5
 1661 1237 l 5
 1798 1237 l 5
 1774 1090 l 5
1864 881 m 5
 1726 881 l 5
 1751 1028 l 5
 1888 1028 l 5
 1864 881 l 5
1614 881 m 5
 1477 881 l 5
 1501 1028 l 5
 1638 1028 l 5
 1614 881 l 5
EndSplineSet
Ref: 1587 1587 N 1 0 0 1 0 0
Substitution: 1 'fina' uniFEB6
Substitution: 1 'medi' uniFEB8
Substitution: 1 'init' uniFEB7
EndChar
StartChar: afii57429
Encoding: 1589 1589
Width: 2430
Flags: HW
Fore
1350 225 m 1
 1544 477 1702 651 1825 748 c 128
 1946 844 2048 893 2130 893 c 0
 2234 893 2314 854 2370 774 c 128
 2413 717 2433 647 2433 567 c 0
 2433 539 2429 508 2425 475 c 0
 2398 328 2318 211 2183 127 c 128
 2046 43 1876 0 1671 0 c 2
 1366 0 l 2
 1313 0 1272 16 1243 47 c 1
 1210 -111 1137 -236 1020 -328 c 128
 901 -420 750 -467 563 -467 c 0
 381 -467 246 -428 162 -350 c 128
 96 -291 63 -211 63 -109 c 0
 63 -78 66 -45 72 -12 c 0
 88 76 119 180 166 301 c 1
 311 260 l 1
 272 156 248 66 236 -10 c 0
 231 -27 229 -43 229 -59 c 0
 229 -201 352 -272 598 -272 c 0
 883 -272 1051 -131 1098 150 c 0
 1102 174 1110 236 1122 332 c 1
 1286 375 l 1
 1286 371 1286 365 1286 360 c 0
 1286 287 1307 242 1350 225 c 1
1491 195 m 1
 1704 195 l 2
 1860 195 1989 219 2089 268 c 128
 2189 317 2247 385 2261 471 c 0
 2263 485 2265 500 2265 514 c 0
 2265 557 2253 596 2228 631 c 128
 2193 678 2150 700 2097 700 c 0
 1972 700 1769 532 1491 195 c 1
EndSplineSet
Substitution: 1 'fina' uniFEBA
Substitution: 1 'medi' uniFEBC
Substitution: 1 'init' uniFEBB
EndChar
StartChar: afii57430
Encoding: 1590 1590
Width: 2430
Flags: HW
Fore
1593 911 m 5
 1427 911 l 5
 1458 1090 l 5
 1624 1090 l 5
 1593 911 l 5
EndSplineSet
Ref: 1589 1589 N 1 0 0 1 0 0
Substitution: 1 'fina' uniFEBE
Substitution: 1 'medi' uniFEC0
Substitution: 1 'init' uniFEBF
EndChar
StartChar: afii57431
Encoding: 1591 1591
Width: 1585
Flags: HW
Fore
578 330 m 1
 877 705 1108 893 1276 893 c 0
 1380 893 1460 854 1518 774 c 128
 1559 717 1579 647 1579 567 c 0
 1579 539 1577 508 1571 475 c 0
 1546 328 1466 211 1329 127 c 128
 1194 43 1024 0 817 0 c 2
 113 0 l 1
 145 195 l 1
 393 195 l 1
 600 1405 l 1
 762 1405 l 1
 578 330 l 1
637 195 m 1
 850 195 l 2
 1006 195 1135 219 1235 268 c 128
 1335 317 1393 385 1407 471 c 0
 1411 485 1411 500 1411 514 c 0
 1411 557 1399 596 1374 631 c 128
 1341 678 1298 700 1243 700 c 0
 1118 700 915 532 637 195 c 1
EndSplineSet
Substitution: 1 'fina' uniFEC2
Substitution: 1 'medi' uniFEC4
Substitution: 1 'init' uniFEC3
EndChar
StartChar: afii57432
Encoding: 1592 1592
Width: 1585
Flags: HW
Fore
1071 1016 m 5
 907 1016 l 5
 936 1194 l 5
 1102 1194 l 5
 1071 1016 l 5
EndSplineSet
Ref: 1591 1591 N 1 0 0 1 0 0
Substitution: 1 'fina' uniFEC6
Substitution: 1 'medi' uniFEC8
Substitution: 1 'init' uniFEC7
EndChar
StartChar: afii57433
Encoding: 1593 1593
Width: 1118
Flags: HW
Fore
993 -485 m 1
 848 -532 707 -555 567 -555 c 0
 399 -555 272 -510 184 -418 c 128
 117 -346 82 -260 82 -154 c 0
 82 -12 133 104 205 193 c 128
 264 266 340 322 432 360 c 1
 350 422 307 500 307 592 c 0
 307 612 309 633 313 653 c 0
 330 745 375 827 453 899 c 128
 528 973 618 1008 723 1008 c 0
 918 1008 1018 915 1026 729 c 1
 860 711 l 1
 852 778 795 813 690 813 c 0
 580 813 492 745 475 653 c 0
 473 641 471 629 471 616 c 0
 471 541 514 477 600 424 c 1
 946 485 l 1
 954 324 l 1
 651 268 l 2
 547 250 469 223 420 190 c 128
 338 133 272 49 252 -61 c 0
 250 -78 248 -92 248 -109 c 0
 248 -174 274 -229 330 -276 c 128
 395 -332 485 -360 600 -360 c 0
 707 -360 840 -340 995 -299 c 1
 993 -485 l 1
EndSplineSet
Substitution: 1 'fina' uniFECA
Substitution: 1 'medi' uniFECC
Substitution: 1 'init' uniFECB
EndChar
StartChar: afii57434
Encoding: 1594 1594
Width: 1118
Flags: HW
Fore
813 1307 m 5
 649 1307 l 5
 678 1485 l 5
 844 1485 l 5
 813 1307 l 5
EndSplineSet
Ref: 1593 1593 N 1 0 0 1 0 0
Substitution: 1 'fina' uniFECE
Substitution: 1 'medi' uniFED0
Substitution: 1 'init' uniFECF
EndChar
StartChar: afii57440
Encoding: 1600 1600
Width: 524
Flags: HW
Fore
532 0 m 1
 -2 0 l 1
 31 195 l 1
 565 195 l 1
 532 0 l 1
EndSplineSet
EndChar
StartChar: afii57441
Encoding: 1601 1601
Width: 1802
Flags: HW
Fore
1622 1405 m 5
 1456 1405 l 5
 1487 1583 l 5
 1651 1583 l 5
 1622 1405 l 5
EndSplineSet
Ref: 1697 1697 N 1 0 0 1 0 0
Substitution: 1 'fina' uniFED2
Substitution: 1 'medi' uniFED4
Substitution: 1 'init' uniFED3
EndChar
StartChar: afii57442
Encoding: 1602 1602
Width: 1505
Flags: HW
Fore
1460 1241 m 5
 1323 1241 l 5
 1348 1389 l 5
 1485 1389 l 5
 1460 1241 l 5
1210 1241 m 5
 1073 1241 l 5
 1098 1389 l 5
 1235 1389 l 5
 1210 1241 l 5
1266 213 m 5
 1221 199 1221 199 1161 199 c 4
 1016 199 1016 199 918 301 c 132
 854 365 831 389 831 444 c 0
 831 477 840 520 850 586 c 4
 879 752 879 752 991 862 c 132
 1106 975 1106 975 1229 975 c 4
 1360 975 1360 975 1438 805 c 132
 1481 707 1499 666 1499 600 c 0
 1499 551 1489 487 1468 375 c 4
 1411 35 1411 35 1137 -201 c 132
 862 -438 862 -438 487 -438 c 4
 252 -438 252 -438 141 -313 c 132
 74 -236 47 -205 47 -139 c 0
 47 -100 57 -47 72 37 c 4
 94 168 94 168 156 301 c 5
 301 260 l 5
 254 154 254 154 233 39 c 4
 225 -6 221 -33 221 -55 c 0
 221 -96 238 -115 285 -166 c 132
 356 -244 356 -244 522 -244 c 4
 772 -244 772 -244 975 -115 c 132
 1178 16 1178 16 1266 213 c 5
1325 412 m 5
 1331 469 1335 504 1335 530 c 0
 1335 571 1325 598 1305 666 c 132
 1268 780 1268 780 1204 780 c 4
 1147 780 1147 780 1092 723 c 132
 1036 668 1036 668 1022 586 c 4
 1018 557 1014 541 1014 526 c 0
 1014 498 1026 485 1059 449 c 132
 1108 393 1108 393 1194 393 c 4
 1266 393 1266 393 1325 412 c 5
EndSplineSet
Substitution: 1 'fina' uniFED6
Substitution: 1 'medi' uniFED8
Substitution: 1 'init' uniFED7
EndChar
StartChar: afii57443
Encoding: 1603 1603
Width: 1425
Flags: HW
Fore
975 1026 m 5
 924 1016 924 1016 885 995 c 132
 846 975 846 975 842 952 c 4
 842 940 l 0
 842 928 850 924 899 897 c 4
 965 860 965 860 979 834 c 132
 989 815 993 809 993 799 c 0
 993 793 991 784 989 774 c 4
 975 686 975 686 885 635 c 132
 793 582 793 582 647 571 c 5
 659 651 l 5
 770 655 770 655 840 688 c 132
 909 719 909 719 918 768 c 4
 920 774 920 780 920 784 c 0
 920 801 909 807 856 836 c 4
 795 870 795 870 780 895 c 132
 772 911 768 918 768 926 c 0
 768 932 770 938 772 948 c 4
 782 1008 782 1008 842 1051 c 132
 899 1092 899 1092 989 1106 c 5
 975 1026 l 5
1423 649 m 6
 1370 334 1370 334 1178 168 c 132
 983 0 983 0 670 0 c 6
 623 0 l 6
 385 0 385 0 270 106 c 132
 195 174 168 199 168 260 c 0
 168 293 176 338 188 406 c 4
 203 496 203 496 244 608 c 5
 387 567 l 5
 365 496 365 496 350 408 c 4
 344 375 340 350 340 334 c 0
 340 295 358 283 418 248 c 132
 506 195 506 195 657 195 c 6
 698 195 l 6
 936 195 936 195 1079 309 c 132
 1223 424 1223 424 1260 643 c 6
 1401 1466 l 5
 1563 1466 l 5
 1423 649 l 6
EndSplineSet
Substitution: 1 'fina' uniFB8F
Substitution: 1 'isol' uniFB8F
Substitution: 1 'fina' uniFB8F
Substitution: 1 'isol' uniFB8E
Substitution: 1 'fina' uniFEDA
Substitution: 1 'medi' uniFEDC
Substitution: 1 'init' uniFEDB
EndChar
StartChar: afii57444
Encoding: 1604 1604
Width: 1245
Flags: HW
Fore
1200 401 m 2
 1159 162 1079 -6 961 -102 c 128
 842 -199 680 -248 471 -248 c 0
 211 -248 82 -147 82 55 c 0
 82 158 113 264 147 360 c 1
 293 319 l 1
 276 272 264 219 254 160 c 0
 252 141 250 123 250 109 c 0
 250 57 264 20 295 -4 c 128
 336 -37 406 -53 506 -53 c 0
 664 -53 782 -20 866 43 c 128
 950 104 1008 223 1036 395 c 2
 1221 1466 l 1
 1382 1466 l 1
 1200 401 l 2
EndSplineSet
Substitution: 1 'fina' uniFEDE
Substitution: 1 'medi' uniFEE0
Substitution: 1 'init' uniFEDF
EndChar
StartChar: afii57445
Encoding: 1605 1605
Width: 1107
Flags: HW
Fore
18 -543 m 1
 86 -143 l 2
 104 -41 129 33 160 76 c 128
 193 121 244 156 313 182 c 0
 358 201 395 240 420 301 c 0
 487 457 553 569 618 635 c 128
 682 702 754 735 834 735 c 0
 918 735 981 698 1026 627 c 128
 1059 575 1073 516 1073 451 c 0
 1073 424 1071 399 1067 371 c 0
 1047 252 997 160 922 96 c 128
 844 33 756 0 657 0 c 0
 582 0 518 27 471 80 c 1
 446 55 406 31 352 10 c 0
 301 -10 281 -37 262 -88 c 128
 256 -111 248 -139 244 -172 c 2
 180 -543 l 1
 18 -543 l 1
567 252 m 1
 610 213 655 195 700 195 c 0
 811 195 889 272 905 371 c 0
 907 385 909 399 909 412 c 0
 909 442 901 469 887 492 c 128
 868 524 840 541 801 541 c 0
 723 541 645 444 567 252 c 1
EndSplineSet
Substitution: 1 'fina' uniFEE2
Substitution: 1 'medi' uniFEE4
Substitution: 1 'init' uniFEE3
EndChar
StartChar: afii57446
Encoding: 1606 1606
Width: 1302
Flags: HW
Fore
872 756 m 5
 707 756 l 5
 737 934 l 5
 903 934 l 5
 872 756 l 5
EndSplineSet
Ref: 1722 1722 N 1 0 0 1 0 0
Substitution: 1 'fina' uniFEE6
Substitution: 1 'medi' uniFEE8
Substitution: 1 'init' uniFEE7
EndChar
StartChar: afii57470
Encoding: 1607 1607
Width: 966
Flags: HW
Fore
641 883 m 1
 836 768 934 627 934 459 c 0
 934 432 930 406 926 379 c 0
 905 252 854 156 776 88 c 128
 698 20 602 -12 487 -12 c 0
 375 -12 291 23 236 92 c 128
 195 143 174 207 174 285 c 0
 174 438 233 557 326 662 c 128
 406 748 510 823 641 883 c 1
764 379 m 0
 768 395 768 414 768 430 c 0
 768 477 758 522 735 567 c 128
 707 627 664 676 610 711 c 1
 498 647 369 520 344 379 c 0
 342 360 340 344 340 328 c 0
 340 231 399 182 520 182 c 0
 659 182 743 258 764 379 c 0
EndSplineSet
Substitution: 1 'fina' uniFBA7
Substitution: 1 'medi' uniFBA9
Substitution: 1 'init' uniFBA8
Substitution: 1 'fina' uniFEEA
Substitution: 1 'medi' uniFEEC
Substitution: 1 'init' uniFEEB
EndChar
StartChar: afii57448
Encoding: 1608 1608
Width: 884
Flags: HW
Fore
633 213 m 1
 596 203 563 199 532 199 c 0
 436 199 354 233 289 301 c 128
 240 352 215 420 215 502 c 0
 215 528 217 557 221 586 c 0
 242 696 289 788 362 862 c 128
 438 938 518 975 600 975 c 0
 688 975 758 918 809 805 c 128
 842 733 858 647 858 551 c 0
 858 498 852 438 842 375 c 0
 817 238 760 106 664 -20 c 128
 569 -145 455 -246 317 -319 c 128
 180 -393 43 -430 -96 -430 c 0
 -139 -430 -201 -426 -276 -416 c 1
 -209 -219 l 1
 -156 -229 -106 -236 -61 -236 c 0
 88 -236 227 -193 356 -106 c 128
 483 -18 575 86 633 213 c 1
686 408 m 1
 688 438 690 467 690 496 c 0
 690 557 682 612 666 666 c 128
 641 741 608 780 565 780 c 0
 526 780 489 762 453 723 c 128
 416 686 393 639 383 586 c 0
 381 573 381 563 381 553 c 0
 381 512 393 479 420 449 c 128
 453 412 500 393 557 393 c 0
 606 393 649 397 686 408 c 1
EndSplineSet
Substitution: 1 'fina' uniFEEE
Substitution: 1 'medi' uniFEEE
EndChar
StartChar: afii57449
Encoding: 1609 1609
Width: 1376
Flags: HW
Fore
1405 649 m 1
 1239 631 l 1
 1231 698 1174 733 1069 733 c 0
 977 733 889 686 877 612 c 0
 874 608 874 604 874 602 c 0
 874 584 883 565 897 547 c 128
 913 524 963 489 1040 444 c 0
 1159 375 1235 315 1264 266 c 128
 1286 229 1296 190 1296 152 c 0
 1296 139 1296 127 1294 115 c 0
 1276 12 1210 -74 1098 -143 c 128
 985 -213 823 -248 614 -248 c 0
 432 -248 295 -213 199 -143 c 128
 121 -86 82 -8 82 90 c 0
 82 113 84 137 88 162 c 0
 100 227 129 307 172 397 c 1
 313 356 l 1
 283 285 260 221 252 164 c 0
 250 152 248 139 248 127 c 0
 248 72 272 31 322 0 c 128
 381 -35 492 -53 651 -53 c 0
 799 -53 915 -37 997 -4 c 128
 1079 29 1124 70 1133 119 c 0
 1133 123 1135 129 1135 133 c 0
 1135 154 1126 174 1110 197 c 128
 1092 221 1038 260 954 311 c 0
 840 377 770 432 743 477 c 128
 721 512 711 547 711 582 c 0
 711 592 713 602 715 612 c 0
 727 690 770 764 846 829 c 128
 920 895 1006 928 1102 928 c 0
 1296 928 1397 836 1405 649 c 1
EndSplineSet
Substitution: 1 'fina' uniFEF0
Substitution: 1 'medi' uniFEF4
Substitution: 1 'init' uniFEF3
EndChar
StartChar: afii57450
Encoding: 1610 1610
Width: 1376
Flags: HW
Fore
856 -487 m 5
 721 -487 l 5
 745 -340 l 5
 883 -340 l 5
 856 -487 l 5
608 -487 m 5
 471 -487 l 5
 496 -340 l 5
 633 -340 l 5
 608 -487 l 5
EndSplineSet
Ref: 1609 1609 N 1 0 0 1 0 0
Substitution: 1 'fina' uniFEF2
Substitution: 1 'medi' uniFEF4
Substitution: 1 'init' uniFEF3
EndChar
StartChar: afii57451
Encoding: 1611 1611
Width: 0
Flags: HW
Fore
868 1845 m 1
 317 1745 l 1
 332 1833 l 1
 883 1933 l 1
 868 1845 l 1
838 1671 m 1
 287 1571 l 1
 303 1659 l 1
 854 1759 l 1
 838 1671 l 1
EndSplineSet
EndChar
StartChar: afii57452
Encoding: 1612 1612
Width: 0
Flags: HW
Fore
842 1665 m 1
 791 1673 743 1683 696 1696 c 1
 571 1628 430 1589 276 1579 c 1
 332 1898 l 1
 403 1898 l 1
 365 1659 l 1
 455 1665 543 1688 629 1724 c 1
 557 1749 522 1790 522 1847 c 0
 522 1905 549 1952 586 1985 c 128
 618 2013 655 2028 696 2028 c 0
 739 2028 772 2013 797 1985 c 128
 815 1962 823 1935 823 1905 c 0
 823 1843 797 1794 754 1751 c 1
 776 1745 809 1739 852 1733 c 1
 842 1665 l 1
690 1769 m 1
 723 1796 741 1831 750 1874 c 0
 750 1878 750 1884 750 1888 c 0
 750 1903 745 1917 737 1927 c 128
 725 1944 709 1950 688 1950 c 0
 639 1950 604 1915 596 1874 c 0
 596 1870 596 1864 596 1860 c 0
 596 1819 627 1788 690 1769 c 1
EndSplineSet
EndChar
StartChar: afii57453
Encoding: 1613 1613
Width: 0
Flags: HW
Fore
506 -248 m 1
 -45 -348 l 1
 -29 -260 l 1
 522 -160 l 1
 506 -248 l 1
477 -422 m 1
 -74 -522 l 1
 -59 -434 l 1
 492 -334 l 1
 477 -422 l 1
EndSplineSet
EndChar
StartChar: afii57454
Encoding: 1614 1614
Width: 0
Flags: HW
Fore
838 1671 m 1
 287 1571 l 1
 303 1659 l 1
 854 1759 l 1
 838 1671 l 1
EndSplineSet
EndChar
StartChar: afii57455
Encoding: 1615 1615
Width: 0
Flags: HW
Fore
842 1665 m 1
 807 1669 758 1681 694 1698 c 1
 588 1632 451 1593 276 1579 c 1
 289 1651 l 1
 420 1659 535 1683 629 1724 c 1
 557 1747 522 1788 522 1847 c 0
 522 1905 549 1950 586 1982 c 128
 621 2013 657 2028 696 2028 c 0
 739 2028 774 2013 799 1985 c 128
 819 1962 827 1935 827 1903 c 0
 827 1841 797 1794 750 1751 c 1
 786 1743 819 1737 852 1733 c 1
 842 1665 l 1
688 1769 m 1
 725 1802 745 1837 754 1874 c 0
 754 1886 l 0
 754 1903 750 1915 737 1927 c 128
 725 1942 709 1950 688 1950 c 0
 641 1950 604 1913 596 1874 c 0
 596 1868 596 1864 596 1858 c 0
 596 1817 627 1786 688 1769 c 1
EndSplineSet
EndChar
StartChar: afii57456
Encoding: 1616 1616
Width: 0
Flags: HW
Fore
506 -248 m 1
 -45 -348 l 1
 -29 -260 l 1
 522 -160 l 1
 506 -248 l 1
EndSplineSet
EndChar
StartChar: afii57457
Encoding: 1617 1617
Width: 0
Flags: HW
Fore
891 1917 m 1
 891 1892 887 1860 881 1823 c 0
 870 1763 848 1714 813 1679 c 128
 778 1645 735 1626 688 1626 c 0
 635 1626 602 1653 590 1704 c 1
 553 1620 498 1579 430 1579 c 0
 383 1579 350 1593 330 1622 c 128
 313 1642 307 1667 307 1698 c 0
 307 1737 319 1786 332 1831 c 1
 403 1831 l 1
 393 1792 387 1763 383 1741 c 0
 381 1733 381 1726 381 1720 c 0
 381 1704 385 1692 393 1679 c 128
 403 1665 420 1657 442 1657 c 0
 506 1657 547 1710 565 1817 c 2
 575 1878 l 1
 649 1878 l 1
 639 1827 l 2
 637 1812 635 1798 635 1786 c 0
 635 1765 639 1749 647 1737 c 128
 657 1714 676 1704 700 1704 c 0
 760 1704 801 1772 809 1825 c 0
 813 1851 817 1882 819 1917 c 1
 891 1917 l 1
EndSplineSet
EndChar
StartChar: afii57458
Encoding: 1618 1618
Width: 0
Flags: HW
Fore
532 1976 m 0
 584 1976 625 1956 655 1917 c 128
 678 1886 690 1853 690 1812 c 0
 690 1735 655 1675 606 1630 c 128
 563 1591 514 1571 463 1571 c 0
 412 1571 371 1591 340 1630 c 128
 317 1659 305 1694 305 1735 c 0
 305 1812 340 1872 389 1917 c 128
 432 1956 479 1976 532 1976 c 0
477 1657 m 0
 543 1657 596 1716 606 1774 c 0
 608 1782 608 1788 608 1796 c 0
 608 1819 602 1837 588 1855 c 128
 571 1878 547 1890 518 1890 c 0
 453 1890 399 1831 389 1774 c 0
 387 1767 387 1759 387 1753 c 0
 387 1729 393 1710 408 1692 c 128
 426 1669 449 1657 477 1657 c 0
EndSplineSet
EndChar
StartChar: afii57392
Encoding: 1632 1632
Width: 903
Flags: HW
Fore
725 367 m 1
 504 121 l 1
 297 289 l 1
 516 532 l 1
 725 367 l 1
EndSplineSet
EndChar
StartChar: afii57393
Encoding: 1633 1633
Width: 903
Flags: HW
Fore
537 0 m 1
 375 0 l 1
 444 410 l 2
 459 492 465 569 465 645 c 0
 465 805 436 952 375 1092 c 1
 532 1180 l 1
 598 1012 631 842 631 666 c 0
 631 584 623 502 608 418 c 2
 537 0 l 1
EndSplineSet
EndChar
StartChar: afii57394
Encoding: 1634 1634
Width: 903
Flags: HW
Fore
1061 1180 m 1
 983 918 842 786 639 786 c 0
 606 786 582 791 567 797 c 1
 582 748 590 690 590 623 c 0
 590 561 584 494 571 418 c 2
 500 0 l 1
 336 0 l 1
 408 410 l 2
 418 469 422 526 422 582 c 0
 422 649 414 713 397 774 c 128
 369 881 322 989 256 1100 c 1
 418 1180 l 1
 502 1047 588 981 676 981 c 0
 786 981 860 1047 899 1180 c 1
 1061 1180 l 1
EndSplineSet
EndChar
StartChar: afii57395
Encoding: 1635 1635
Width: 903
Flags: HW
Fore
1104 1180 m 1
 1081 1057 1047 961 999 891 c 128
 950 821 891 786 821 786 c 0
 764 786 721 807 694 848 c 1
 657 807 610 786 551 786 c 0
 541 786 532 788 526 791 c 1
 545 723 555 639 561 541 c 128
 561 518 561 498 561 477 c 0
 561 401 555 330 545 262 c 2
 500 0 l 1
 336 0 l 1
 381 254 l 2
 393 326 399 397 399 471 c 0
 399 672 352 879 260 1092 c 1
 418 1180 l 1
 455 1047 494 981 537 981 c 0
 571 981 600 995 621 1022 c 128
 641 1049 659 1102 672 1180 c 1
 797 1180 l 1
 788 1139 786 1104 786 1077 c 0
 786 1057 788 1038 793 1026 c 128
 801 995 823 981 856 981 c 0
 915 981 956 1047 979 1180 c 1
 1104 1180 l 1
EndSplineSet
EndChar
StartChar: afii57396
Encoding: 1636 1636
Width: 903
Flags: HW
Fore
852 51 m 1
 733 8 621 -12 516 -12 c 0
 393 -12 299 10 236 51 c 128
 182 88 158 135 158 195 c 0
 158 209 158 221 160 236 c 0
 176 326 240 399 352 463 c 0
 442 514 487 543 489 553 c 0
 489 553 l 0
 489 563 457 588 391 629 c 0
 332 668 303 713 303 766 c 0
 303 774 303 784 305 793 c 0
 315 854 348 909 406 961 c 128
 463 1012 543 1059 645 1098 c 128
 748 1139 838 1174 915 1200 c 1
 883 1006 l 1
 616 926 477 858 469 805 c 0
 469 805 l 0
 469 793 504 766 578 725 c 0
 655 680 696 635 696 590 c 0
 696 553 672 520 641 494 c 128
 553 420 449 377 369 317 c 128
 344 297 330 276 326 256 c 0
 326 254 326 252 326 248 c 0
 326 205 399 182 547 182 c 0
 637 182 737 199 848 231 c 1
 852 51 l 1
EndSplineSet
Substitution: 1 'locl' uniE864
Substitution: 1 'locl' uni06F4
EndChar
StartChar: afii57397
Encoding: 1637 1637
Width: 903
Flags: HW
Fore
659 1180 m 0
 748 1180 819 1096 868 926 c 128
 899 823 915 715 915 606 c 0
 915 539 909 469 897 399 c 0
 874 268 825 168 748 96 c 128
 672 25 573 -12 455 -12 c 0
 338 -12 254 25 201 96 c 128
 162 147 143 213 143 293 c 0
 143 326 147 360 154 399 c 0
 184 582 254 758 362 926 c 128
 471 1096 569 1180 659 1180 c 0
489 182 m 0
 635 182 713 270 735 399 c 0
 748 469 754 537 754 604 c 0
 754 668 748 731 737 793 c 128
 715 922 678 985 627 985 c 0
 573 985 514 922 449 793 c 128
 383 664 338 532 315 399 c 0
 311 379 311 360 311 344 c 0
 311 301 319 266 340 240 c 128
 369 201 418 182 489 182 c 0
EndSplineSet
Substitution: 1 'locl' uni06F5
Substitution: 1 'locl' uni06F5
EndChar
StartChar: afii57398
Encoding: 1638 1638
Width: 903
Flags: HW
Fore
858 0 m 1
 666 0 l 1
 621 92 600 193 600 301 c 0
 600 352 604 406 612 459 c 2
 702 985 l 1
 223 985 l 1
 256 1180 l 1
 899 1180 l 1
 778 471 l 2
 770 424 766 379 766 336 c 0
 766 213 797 102 858 0 c 1
EndSplineSet
Substitution: 1 'locl' uni06F6
EndChar
StartChar: afii57399
Encoding: 1639 1639
Width: 903
Flags: HW
Fore
1075 1180 m 1
 535 -12 l 1
 375 -12 l 1
 242 1180 l 1
 412 1180 l 1
 500 242 l 1
 907 1180 l 1
 1075 1180 l 1
EndSplineSet
Substitution: 1 'locl' uniE867
EndChar
StartChar: afii57400
Encoding: 1640 1640
Width: 903
Flags: HW
Fore
874 0 m 1
 705 0 l 1
 618 938 l 1
 209 0 l 1
 41 0 l 1
 582 1192 l 1
 741 1192 l 1
 874 0 l 1
EndSplineSet
EndChar
StartChar: afii57401
Encoding: 1641 1641
Width: 903
Flags: HW
Fore
887 0 m 1
 696 0 l 1
 651 92 631 193 631 301 c 0
 631 367 637 420 647 479 c 1
 604 465 561 457 516 457 c 0
 416 457 336 489 279 555 c 128
 236 606 213 668 213 743 c 0
 213 770 217 799 221 827 c 0
 240 928 285 1014 360 1085 c 128
 436 1157 516 1192 600 1192 c 0
 692 1192 762 1141 809 1038 c 128
 838 973 852 897 852 811 c 0
 852 758 848 702 838 641 c 2
 807 471 l 2
 801 424 797 379 797 336 c 0
 797 213 825 102 887 0 c 1
680 674 m 1
 686 702 688 731 688 758 c 0
 688 805 680 850 668 893 c 128
 645 963 610 997 567 997 c 0
 471 997 397 911 383 827 c 0
 381 815 381 805 381 795 c 0
 381 760 393 727 416 702 c 128
 446 668 487 651 541 651 c 0
 582 651 629 659 680 674 c 1
EndSplineSet
EndChar
StartChar: afii57381
Encoding: 1642 1642
Width: 1028
Flags: HW
Fore
539 1085 m 1
 406 938 l 1
 281 1038 l 1
 412 1186 l 1
 539 1085 l 1
1184 1180 m 1
 205 0 l 1
 72 0 l 1
 1055 1180 l 1
 1184 1180 l 1
961 141 m 1
 827 -6 l 1
 702 94 l 1
 834 242 l 1
 961 141 l 1
EndSplineSet
EndChar
StartChar: uni066B
Encoding: 1643 1643
Width: 522
Flags: HW
Fore
401 205 m 1
 403 180 406 156 406 131 c 0
 406 -23 350 -141 268 -217 c 128
 201 -279 119 -309 20 -309 c 0
 -14 -309 -49 -305 -86 -295 c 1
 -23 -127 l 1
 6 -137 29 -141 51 -141 c 0
 158 -141 227 -57 244 37 c 0
 248 59 250 84 250 109 c 0
 250 139 248 172 242 205 c 1
 401 205 l 1
EndSplineSet
EndChar
StartChar: afii63167
Encoding: 1645 1645
Width: 823
Flags: HW
Fore
700 1180 m 1
 602 844 l 1
 522 844 l 1
 537 1180 l 1
 700 1180 l 1
944 862 m 1
 627 760 l 1
 606 840 l 1
 901 1020 l 1
 944 862 l 1
514 840 m 1
 467 760 l 1
 186 862 l 1
 281 1020 l 1
 514 840 l 1
907 651 m 1
 811 494 l 1
 578 674 l 1
 627 754 l 1
 907 651 l 1
485 674 m 1
 190 494 l 1
 150 651 l 1
 465 754 l 1
 485 674 l 1
557 334 m 1
 391 334 l 1
 492 670 l 1
 571 670 l 1
 557 334 l 1
EndSplineSet
EndChar
StartChar: uni0670
Encoding: 1648 1648
Width: 0
Flags: HW
Fore
598 1579 m 1
 512 1579 l 1
 586 2015 l 1
 674 2015 l 1
 598 1579 l 1
EndSplineSet
EndChar
StartChar: uni0671
Encoding: 1649 1649
Width: 456
Flags: HW
Fore
399 1706 m 5
 469 1800 469 1800 541 1849 c 132
 614 1898 614 1898 674 1898 c 4
 735 1898 735 1898 768 1862 c 132
 788 1839 797 1831 797 1815 c 0
 797 1804 795 1794 791 1778 c 4
 766 1628 766 1628 426 1628 c 5
 391 1565 l 5
 317 1565 l 5
 352 1628 l 5
 250 1628 l 5
 262 1706 l 5
 399 1706 l 5
475 1706 m 5
 584 1706 584 1706 649 1724 c 132
 713 1745 713 1745 719 1778 c 4
 719 1782 721 1786 721 1790 c 0
 721 1796 717 1798 707 1808 c 132
 692 1821 692 1821 662 1821 c 4
 621 1821 621 1821 569 1792 c 132
 518 1761 518 1761 475 1706 c 5
EndSplineSet
Ref: 1575 1575 N 1 0 0 1 0 0
Substitution: 1 'fina' uniFB51
Substitution: 1 'medi' uniFB51
EndChar
StartChar: uni0672
Encoding: 1650 1650
Width: 456
Flags: HW
Fore
655 1649 m 5
 414 1599 414 1599 354 1599 c 4
 330 1599 330 1599 289 1579 c 132
 250 1559 250 1559 219 1530 c 5
 182 1585 l 5
 217 1622 217 1622 268 1647 c 132
 319 1669 319 1669 360 1669 c 4
 420 1669 420 1669 463 1681 c 5
 416 1704 403 1710 403 1739 c 0
 403 1751 406 1767 410 1790 c 4
 420 1847 420 1847 459 1882 c 132
 500 1917 500 1917 557 1917 c 4
 670 1917 670 1917 672 1808 c 5
 606 1802 l 5
 600 1839 600 1839 545 1839 c 4
 485 1839 485 1839 475 1790 c 4
 475 1778 473 1772 473 1765 c 0
 473 1751 479 1745 502 1729 c 132
 532 1706 532 1706 588 1706 c 5
 668 1720 l 5
 655 1649 l 5
EndSplineSet
Ref: 1575 1575 N 1 0 0 1 0 0
EndChar
StartChar: uni0673
Encoding: 1651 1651
Width: 456
Flags: HW
Fore
289 -408 m 5
 47 -457 47 -457 -12 -457 c 4
 -37 -457 -37 -457 -78 -477 c 132
 -117 -498 -117 -498 -147 -526 c 5
 -184 -471 l 5
 -150 -432 -150 -432 -98 -410 c 132
 -47 -387 -47 -387 -6 -387 c 4
 53 -387 53 -387 96 -375 c 5
 51 -352 37 -344 37 -317 c 0
 37 -305 39 -289 43 -266 c 4
 53 -209 53 -209 92 -174 c 132
 133 -139 133 -139 190 -139 c 4
 303 -139 303 -139 307 -248 c 5
 240 -254 l 5
 233 -217 233 -217 178 -217 c 4
 119 -217 119 -217 111 -266 c 4
 109 -276 106 -285 106 -291 c 0
 106 -305 113 -309 135 -326 c 132
 168 -350 168 -350 221 -350 c 5
 301 -336 l 5
 289 -408 l 5
EndSplineSet
Ref: 1575 1575 N 1 0 0 1 0 0
EndChar
StartChar: uni0674
Encoding: 1652 1652
Width: 0
Flags: HW
Fore
639 1642 m 1
 377 1593 l 1
 389 1665 l 1
 446 1675 l 1
 410 1694 391 1722 391 1761 c 0
 391 1810 414 1851 442 1876 c 128
 469 1898 502 1911 539 1911 c 0
 614 1911 653 1874 657 1802 c 1
 588 1796 l 1
 586 1821 565 1833 528 1833 c 0
 487 1833 465 1817 459 1784 c 0
 459 1772 l 0
 459 1753 467 1737 485 1724 c 128
 506 1708 535 1700 571 1700 c 1
 651 1714 l 1
 639 1642 l 1
EndSplineSet
EndChar
StartChar: afii57511
Encoding: 1657 1657
Width: 1449
Flags: HW
Fore
838 895 m 5
 950 1036 950 1036 1012 1036 c 4
 1059 1036 1059 1036 1087 991 c 132
 1106 965 1112 954 1112 936 c 0
 1112 926 1110 915 1106 897 c 4
 1096 831 1096 831 1036 788 c 132
 977 748 977 748 887 748 c 6
 709 748 l 5
 721 827 l 5
 760 827 l 5
 817 1165 l 5
 883 1165 l 5
 838 895 l 5
848 827 m 5
 901 827 l 6
 958 827 958 827 997 846 c 132
 1034 864 1034 864 1040 899 c 4
 1040 907 1042 911 1042 915 c 0
 1042 924 1038 928 1032 938 c 132
 1020 956 1020 956 999 956 c 4
 952 956 952 956 848 827 c 5
1430 502 m 5
 1430 457 1430 457 1417 391 c 4
 1380 178 1380 178 1178 39 c 132
 975 -102 975 -102 670 -102 c 4
 397 -102 397 -102 268 12 c 132
 184 86 156 111 156 178 c 0
 156 215 162 260 174 332 c 4
 195 451 195 451 248 543 c 5
 393 502 l 5
 352 426 352 426 338 334 c 4
 328 276 319 231 319 197 c 0
 319 92 393 92 702 92 c 4
 922 92 922 92 1079 186 c 132
 1237 281 1237 281 1262 432 c 4
 1268 459 1270 469 1270 479 c 0
 1270 485 1268 492 1268 502 c 5
 1430 502 l 5
EndSplineSet
Substitution: 1 'fina' uniFB67
Substitution: 1 'medi' uniFB69
Substitution: 1 'init' uniFB68
EndChar
StartChar: uni067A
Encoding: 1658 1658
Width: 1449
Flags: HW
Fore
1006 1016 m 5
 868 1016 l 5
 895 1163 l 5
 1030 1163 l 5
 1006 1016 l 5
961 748 m 5
 823 748 l 5
 848 895 l 5
 985 895 l 5
 961 748 l 5
1430 502 m 5
 1430 457 1430 457 1417 391 c 4
 1380 178 1380 178 1178 39 c 132
 975 -102 975 -102 670 -102 c 4
 397 -102 397 -102 268 12 c 132
 184 86 156 111 156 178 c 0
 156 215 162 260 174 332 c 4
 195 451 195 451 248 543 c 5
 393 502 l 5
 352 426 352 426 338 334 c 4
 328 276 319 231 319 197 c 0
 319 92 393 92 702 92 c 4
 922 92 922 92 1079 186 c 132
 1237 281 1237 281 1262 432 c 4
 1268 459 1270 469 1270 479 c 0
 1270 485 1268 492 1268 502 c 5
 1430 502 l 5
EndSplineSet
EndChar
StartChar: uni067B
Encoding: 1659 1659
Width: 1449
Flags: HW
Fore
772 -328 m 5
 635 -328 l 5
 659 -180 l 5
 799 -180 l 5
 772 -328 l 5
733 -555 m 5
 596 -555 l 5
 621 -408 l 5
 760 -408 l 5
 733 -555 l 5
1430 502 m 5
 1430 457 1430 457 1417 391 c 4
 1380 178 1380 178 1178 39 c 132
 975 -102 975 -102 670 -102 c 4
 397 -102 397 -102 268 12 c 132
 184 86 156 111 156 178 c 0
 156 215 162 260 174 332 c 4
 195 451 195 451 248 543 c 5
 393 502 l 5
 352 426 352 426 338 334 c 4
 328 276 319 231 319 197 c 0
 319 92 393 92 702 92 c 4
 922 92 922 92 1079 186 c 132
 1237 281 1237 281 1262 432 c 4
 1268 459 1270 469 1270 479 c 0
 1270 485 1268 492 1268 502 c 5
 1430 502 l 5
EndSplineSet
EndChar
StartChar: uni067C
Encoding: 1660 1660
Width: 1449
Flags: HW
Fore
1430 502 m 1
 1430 471 1425 434 1417 391 c 0
 1397 272 1335 170 1235 82 c 128
 1135 -6 1001 -63 840 -90 c 1
 850 -109 854 -127 854 -150 c 0
 854 -207 827 -252 793 -285 c 128
 760 -315 723 -330 684 -330 c 0
 645 -330 614 -315 592 -285 c 128
 575 -262 567 -238 567 -207 c 0
 567 -166 582 -131 602 -100 c 1
 440 -90 324 -49 250 27 c 128
 195 86 168 160 168 248 c 0
 168 356 205 469 248 543 c 1
 393 502 l 1
 367 451 348 395 338 334 c 0
 334 319 334 305 334 291 c 0
 334 158 457 92 702 92 c 0
 850 92 975 123 1079 186 c 128
 1184 250 1245 332 1262 432 c 0
 1266 453 1268 471 1268 485 c 0
 1268 492 1268 498 1268 502 c 1
 1430 502 l 1
721 -100 m 1
 711 -102 l 2
 670 -109 645 -133 639 -178 c 0
 637 -184 637 -188 637 -195 c 0
 637 -211 641 -223 649 -236 c 128
 662 -252 678 -260 696 -260 c 0
 741 -260 776 -217 782 -178 c 0
 782 -172 784 -168 784 -164 c 0
 784 -147 778 -133 770 -123 c 128
 758 -106 745 -100 733 -100 c 2
 721 -100 l 1
1073 748 m 1
 936 748 l 1
 961 895 l 1
 1098 895 l 1
 1073 748 l 1
823 748 m 1
 686 748 l 1
 711 895 l 1
 848 895 l 1
 823 748 l 1
EndSplineSet
EndChar
StartChar: uni067D
Encoding: 1661 1661
Width: 1449
Flags: HW
Fore
1108 956 m 5
 971 956 l 5
 997 1104 l 5
 1133 1104 l 5
 1108 956 l 5
858 956 m 5
 721 956 l 5
 748 1104 l 5
 885 1104 l 5
 858 956 l 5
946 748 m 5
 809 748 l 5
 834 895 l 5
 973 895 l 5
 946 748 l 5
1430 502 m 5
 1430 457 1430 457 1417 391 c 4
 1380 178 1380 178 1178 39 c 132
 975 -102 975 -102 670 -102 c 4
 397 -102 397 -102 268 12 c 132
 184 86 156 111 156 178 c 0
 156 215 162 260 174 332 c 4
 195 451 195 451 248 543 c 5
 393 502 l 5
 352 426 352 426 338 334 c 4
 328 276 319 231 319 197 c 0
 319 92 393 92 702 92 c 4
 922 92 922 92 1079 186 c 132
 1237 281 1237 281 1262 432 c 4
 1268 459 1270 469 1270 479 c 0
 1270 485 1268 492 1268 502 c 5
 1430 502 l 5
EndSplineSet
EndChar
StartChar: afii57506
Encoding: 1662 1662
Width: 1449
Flags: HW
Fore
885 -346 m 5
 750 -346 l 5
 774 -199 l 5
 911 -199 l 5
 885 -346 l 5
637 -346 m 5
 500 -346 l 5
 524 -199 l 5
 662 -199 l 5
 637 -346 l 5
725 -555 m 5
 588 -555 l 5
 612 -408 l 5
 750 -408 l 5
 725 -555 l 5
1430 502 m 5
 1430 457 1430 457 1417 391 c 4
 1380 178 1380 178 1178 39 c 132
 975 -102 975 -102 670 -102 c 4
 397 -102 397 -102 268 12 c 132
 184 86 156 111 156 178 c 0
 156 215 162 260 174 332 c 4
 195 451 195 451 248 543 c 5
 393 502 l 5
 352 426 352 426 338 334 c 4
 328 276 319 231 319 197 c 0
 319 92 393 92 702 92 c 4
 922 92 922 92 1079 186 c 132
 1237 281 1237 281 1262 432 c 4
 1268 459 1270 469 1270 479 c 0
 1270 485 1268 492 1268 502 c 5
 1430 502 l 5
EndSplineSet
Substitution: 1 'fina' uniFB57
Substitution: 1 'medi' uniFB59
Substitution: 1 'init' uniFB58
EndChar
StartChar: uni067F
Encoding: 1663 1663
Width: 1449
Flags: HW
Fore
1087 1018 m 5
 952 1018 l 5
 977 1165 l 5
 1114 1165 l 5
 1087 1018 l 5
879 956 m 5
 741 956 l 5
 766 1104 l 5
 903 1104 l 5
 879 956 l 5
1053 809 m 5
 915 809 l 5
 942 956 l 5
 1077 956 l 5
 1053 809 l 5
842 748 m 5
 705 748 l 5
 731 895 l 5
 866 895 l 5
 842 748 l 5
1430 502 m 5
 1430 457 1430 457 1417 391 c 4
 1380 178 1380 178 1178 39 c 132
 975 -102 975 -102 670 -102 c 4
 397 -102 397 -102 268 12 c 132
 184 86 156 111 156 178 c 0
 156 215 162 260 174 332 c 4
 195 451 195 451 248 543 c 5
 393 502 l 5
 352 426 352 426 338 334 c 4
 328 276 319 231 319 197 c 0
 319 92 393 92 702 92 c 4
 922 92 922 92 1079 186 c 132
 1237 281 1237 281 1262 432 c 4
 1268 459 1270 469 1270 479 c 0
 1270 485 1268 492 1268 502 c 5
 1430 502 l 5
EndSplineSet
EndChar
StartChar: uni0680
Encoding: 1664 1664
Width: 1449
Flags: HW
Fore
887 -285 m 5
 752 -285 l 5
 776 -137 l 5
 913 -137 l 5
 887 -285 l 5
678 -346 m 5
 541 -346 l 5
 565 -199 l 5
 702 -199 l 5
 678 -346 l 5
852 -494 m 5
 715 -494 l 5
 741 -346 l 5
 877 -346 l 5
 852 -494 l 5
641 -555 m 5
 506 -555 l 5
 530 -408 l 5
 668 -408 l 5
 641 -555 l 5
1430 502 m 5
 1430 457 1430 457 1417 391 c 4
 1380 178 1380 178 1178 39 c 132
 975 -102 975 -102 670 -102 c 4
 397 -102 397 -102 268 12 c 132
 184 86 156 111 156 178 c 0
 156 215 162 260 174 332 c 4
 195 451 195 451 248 543 c 5
 393 502 l 5
 352 426 352 426 338 334 c 4
 328 276 319 231 319 197 c 0
 319 92 393 92 702 92 c 4
 922 92 922 92 1079 186 c 132
 1237 281 1237 281 1262 432 c 4
 1268 459 1270 469 1270 479 c 0
 1270 485 1268 492 1268 502 c 5
 1430 502 l 5
EndSplineSet
EndChar
StartChar: uni0682
Encoding: 1666 1666
Width: 1024
Flags: HW
Fore
911 1335 m 5
 774 1335 l 5
 801 1483 l 5
 936 1483 l 5
 911 1335 l 5
866 1067 m 5
 729 1067 l 5
 754 1214 l 5
 891 1214 l 5
 866 1067 l 5
EndSplineSet
Ref: 1581 1581 N 1 0 0 1 0 0
EndChar
StartChar: uni0683
Encoding: 1667 1667
Width: 1024
Flags: HW
Fore
897 -47 m 5
 760 -47 l 5
 784 100 l 5
 922 100 l 5
 897 -47 l 5
647 -47 m 5
 510 -47 l 5
 535 100 l 5
 672 100 l 5
 647 -47 l 5
EndSplineSet
Ref: 1581 1581 N 1 0 0 1 0 0
EndChar
StartChar: uni0684
Encoding: 1668 1668
Width: 1024
Flags: HW
Fore
733 94 m 5
 598 94 l 5
 623 242 l 5
 760 242 l 5
 733 94 l 5
688 -174 m 5
 551 -174 l 5
 578 -27 l 5
 713 -27 l 5
 688 -174 l 5
EndSplineSet
Ref: 1581 1581 N 1 0 0 1 0 0
EndChar
StartChar: uni0685
Encoding: 1669 1669
Width: 1024
Flags: HW
Fore
946 1276 m 5
 809 1276 l 5
 834 1423 l 5
 971 1423 l 5
 946 1276 l 5
1036 1067 m 5
 899 1067 l 5
 924 1214 l 5
 1061 1214 l 5
 1036 1067 l 5
786 1067 m 5
 649 1067 l 5
 674 1214 l 5
 811 1214 l 5
 786 1067 l 5
EndSplineSet
Ref: 1581 1581 N 1 0 0 1 0 0
EndChar
StartChar: afii57507
Encoding: 1670 1670
Width: 1024
Flags: HW
Fore
856 14 m 5
 719 14 l 5
 745 162 l 5
 881 162 l 5
 856 14 l 5
606 14 m 5
 469 14 l 5
 494 162 l 5
 633 162 l 5
 606 14 l 5
694 -195 m 5
 557 -195 l 5
 582 -47 l 5
 721 -47 l 5
 694 -195 l 5
EndSplineSet
Ref: 1581 1581 N 1 0 0 1 0 0
Substitution: 1 'fina' uniFB7B
Substitution: 1 'medi' uniFB7D
Substitution: 1 'init' uniFB7C
EndChar
StartChar: uni0687
Encoding: 1671 1671
Width: 1024
Flags: HW
Fore
844 90 m 5
 707 90 l 5
 731 238 l 5
 868 238 l 5
 844 90 l 5
633 29 m 5
 496 29 l 5
 520 176 l 5
 657 176 l 5
 633 29 l 5
807 -119 m 5
 670 -119 l 5
 696 29 l 5
 834 29 l 5
 807 -119 l 5
596 -180 m 5
 461 -180 l 5
 485 -33 l 5
 623 -33 l 5
 596 -180 l 5
EndSplineSet
Ref: 1581 1581 N 1 0 0 1 0 0
EndChar
StartChar: afii57512
Encoding: 1672 1672
Width: 808
Flags: HW
Fore
471 1257 m 5
 586 1399 586 1399 647 1399 c 4
 692 1399 692 1399 721 1356 c 132
 739 1327 745 1317 745 1298 c 0
 745 1290 743 1278 741 1260 c 4
 729 1194 729 1194 670 1151 c 132
 610 1110 610 1110 520 1110 c 6
 342 1110 l 5
 356 1190 l 5
 393 1190 l 5
 453 1528 l 5
 518 1528 l 5
 471 1257 l 5
481 1190 m 5
 535 1190 l 6
 594 1190 594 1190 631 1208 c 132
 668 1229 668 1229 674 1262 c 4
 676 1270 676 1274 676 1278 c 0
 676 1286 674 1290 666 1300 c 132
 653 1319 653 1319 633 1319 c 4
 588 1319 588 1319 481 1190 c 5
EndSplineSet
Ref: 1583 1583 N 1 0 0 1 0 0
Substitution: 1 'fina' uniFB89
Substitution: 1 'medi' uniFB89
EndChar
StartChar: uni0689
Encoding: 1673 1673
Width: 808
Flags: HW
Fore
582 895 m 1
 709 676 770 520 770 424 c 0
 770 412 770 401 768 393 c 0
 743 250 659 143 516 74 c 1
 537 49 547 20 547 -12 c 0
 547 -72 522 -117 485 -150 c 128
 453 -180 418 -195 377 -195 c 0
 340 -195 309 -180 287 -150 c 128
 268 -129 260 -102 260 -72 c 0
 260 -43 268 -20 279 8 c 1
 221 2 170 0 129 0 c 2
 72 0 l 1
 106 195 l 1
 160 195 l 2
 434 195 584 260 606 393 c 0
 608 399 608 408 608 416 c 0
 608 506 535 666 385 895 c 1
 582 895 l 1
389 -125 m 0
 434 -125 469 -84 477 -43 c 0
 477 -37 477 -33 477 -29 c 0
 477 -12 473 0 463 12 c 128
 451 27 438 35 424 35 c 0
 403 35 385 29 367 18 c 128
 348 6 338 -14 332 -43 c 0
 332 -49 330 -55 330 -59 c 0
 330 -76 336 -90 344 -102 c 128
 354 -117 371 -125 389 -125 c 0
EndSplineSet
EndChar
StartChar: uni068A
Encoding: 1674 1674
Width: 808
Flags: HW
Fore
565 -317 m 5
 401 -317 l 5
 430 -139 l 5
 596 -139 l 5
 565 -317 l 5
EndSplineSet
Ref: 1583 1583 N 1 0 0 1 0 0
EndChar
StartChar: uni068B
Encoding: 1675 1675
Width: 808
Flags: HW
Fore
565 -317 m 5
 401 -317 l 5
 430 -139 l 5
 596 -139 l 5
 565 -317 l 5
471 1257 m 5
 586 1399 586 1399 647 1399 c 4
 692 1399 692 1399 721 1356 c 132
 739 1327 745 1317 745 1298 c 0
 745 1290 743 1278 741 1260 c 4
 729 1194 729 1194 670 1151 c 132
 610 1110 610 1110 520 1110 c 6
 342 1110 l 5
 356 1190 l 5
 393 1190 l 5
 453 1528 l 5
 518 1528 l 5
 471 1257 l 5
481 1190 m 5
 535 1190 l 6
 594 1190 594 1190 631 1208 c 132
 668 1229 668 1229 674 1262 c 4
 676 1270 676 1274 676 1278 c 0
 676 1286 674 1290 666 1300 c 132
 653 1319 653 1319 633 1319 c 4
 588 1319 588 1319 481 1190 c 5
EndSplineSet
Ref: 1583 1583 N 1 0 0 1 0 0
EndChar
StartChar: uni068C
Encoding: 1676 1676
Width: 808
Flags: HW
Fore
688 1110 m 5
 551 1110 l 5
 575 1257 l 5
 713 1257 l 5
 688 1110 l 5
438 1110 m 5
 301 1110 l 5
 326 1257 l 5
 463 1257 l 5
 438 1110 l 5
EndSplineSet
Ref: 1583 1583 N 1 0 0 1 0 0
EndChar
StartChar: uni068D
Encoding: 1677 1677
Width: 808
Flags: HW
Fore
582 -287 m 5
 444 -287 l 5
 469 -139 l 5
 606 -139 l 5
 582 -287 l 5
332 -287 m 5
 195 -287 l 5
 219 -139 l 5
 356 -139 l 5
 332 -287 l 5
EndSplineSet
Ref: 1583 1583 N 1 0 0 1 0 0
EndChar
StartChar: uni068E
Encoding: 1678 1678
Width: 808
Flags: HW
Fore
606 1319 m 5
 469 1319 l 5
 494 1466 l 5
 633 1466 l 5
 606 1319 l 5
696 1110 m 5
 559 1110 l 5
 586 1257 l 5
 721 1257 l 5
 696 1110 l 5
446 1110 m 5
 309 1110 l 5
 334 1257 l 5
 473 1257 l 5
 446 1110 l 5
EndSplineSet
Ref: 1583 1583 N 1 0 0 1 0 0
EndChar
StartChar: uni068F
Encoding: 1679 1679
Width: 808
Flags: HW
Fore
733 1319 m 5
 596 1319 l 5
 621 1466 l 5
 758 1466 l 5
 733 1319 l 5
483 1319 m 5
 346 1319 l 5
 371 1466 l 5
 508 1466 l 5
 483 1319 l 5
571 1110 m 5
 434 1110 l 5
 459 1257 l 5
 596 1257 l 5
 571 1110 l 5
EndSplineSet
Ref: 1583 1583 N 1 0 0 1 0 0
EndChar
StartChar: uni0690
Encoding: 1680 1680
Width: 808
Flags: HW
Fore
717 1380 m 5
 582 1380 l 5
 606 1528 l 5
 743 1528 l 5
 717 1380 l 5
508 1319 m 5
 371 1319 l 5
 395 1466 l 5
 532 1466 l 5
 508 1319 l 5
682 1171 m 5
 545 1171 l 5
 571 1319 l 5
 707 1319 l 5
 682 1171 l 5
471 1110 m 5
 334 1110 l 5
 360 1257 l 5
 498 1257 l 5
 471 1110 l 5
EndSplineSet
Ref: 1583 1583 N 1 0 0 1 0 0
Substitution: 1 'fina' uniE890
EndChar
StartChar: afii57513
Encoding: 1681 1681
Width: 792
Flags: HW
Fore
575 932 m 5
 690 1073 690 1073 752 1073 c 4
 797 1073 797 1073 825 1028 c 132
 844 1001 850 991 850 973 c 0
 850 963 848 952 846 934 c 4
 834 868 834 868 774 825 c 132
 715 784 715 784 625 784 c 6
 446 784 l 5
 461 864 l 5
 498 864 l 5
 557 1202 l 5
 623 1202 l 5
 575 932 l 5
586 864 m 5
 639 864 l 6
 696 864 696 864 735 883 c 132
 772 901 772 901 778 936 c 4
 780 944 780 948 780 952 c 0
 780 961 778 965 770 975 c 132
 758 993 758 993 737 993 c 4
 692 993 692 993 586 864 c 5
EndSplineSet
Ref: 1585 1585 N 1 0 0 1 0 0
Substitution: 1 'fina' uniFB8D
Substitution: 1 'medi' uniFB8D
EndChar
StartChar: uni0692
Encoding: 1682 1682
Width: 792
Flags: HW
Fore
801 1077 m 5
 647 821 l 5
 580 821 l 5
 512 1077 l 5
 590 1077 l 5
 627 899 l 5
 721 1077 l 5
 801 1077 l 5
EndSplineSet
Ref: 1585 1585 N 1 0 0 1 0 0
EndChar
StartChar: uni0693
Encoding: 1683 1683
Width: 792
Flags: HW
Fore
721 594 m 1
 731 539 735 481 735 422 c 0
 735 356 729 289 717 219 c 0
 686 31 610 -119 494 -231 c 1
 522 -242 543 -262 557 -289 c 128
 565 -307 569 -328 569 -350 c 0
 569 -406 545 -451 508 -483 c 128
 475 -514 440 -528 401 -528 c 0
 362 -528 332 -514 309 -483 c 128
 293 -461 283 -436 283 -406 c 0
 283 -391 285 -381 287 -369 c 1
 193 -410 86 -430 -31 -430 c 0
 -76 -430 -135 -426 -213 -416 c 1
 -147 -240 l 1
 -94 -250 -45 -256 0 -256 c 0
 315 -256 502 -98 555 219 c 0
 561 256 565 293 565 332 c 0
 565 414 551 502 524 594 c 1
 721 594 l 1
412 -459 m 0
 457 -459 492 -418 500 -377 c 0
 500 -371 500 -367 500 -360 c 0
 500 -346 496 -332 485 -322 c 128
 473 -307 461 -299 446 -299 c 0
 395 -299 362 -332 354 -377 c 0
 354 -383 354 -389 354 -393 c 0
 354 -410 358 -424 367 -434 c 128
 379 -451 393 -459 412 -459 c 0
EndSplineSet
EndChar
StartChar: uni0694
Encoding: 1684 1684
Width: 792
Flags: HW
Fore
627 -547 m 5
 461 -547 l 5
 492 -369 l 5
 657 -369 l 5
 627 -547 l 5
EndSplineSet
Ref: 1585 1585 N 1 0 0 1 0 0
EndChar
StartChar: uni0695
Encoding: 1685 1685
Width: 792
Flags: HW
Fore
793 -295 m 5
 637 -551 l 5
 571 -551 l 5
 504 -295 l 5
 582 -295 l 5
 616 -473 l 5
 713 -295 l 5
 793 -295 l 5
EndSplineSet
Ref: 1585 1585 N 1 0 0 1 0 0
EndChar
StartChar: uni0696
Encoding: 1686 1686
Width: 788
Flags: HW
Fore
721 594 m 1
 731 539 735 481 735 422 c 0
 735 356 729 289 717 219 c 0
 682 12 598 -147 463 -260 c 128
 330 -373 166 -430 -31 -430 c 0
 -76 -430 -135 -426 -213 -416 c 1
 -147 -240 l 1
 -94 -250 -45 -256 0 -256 c 0
 315 -256 502 -98 555 219 c 0
 561 256 565 293 565 332 c 0
 565 414 551 502 524 594 c 1
 721 594 l 1
311 -31 m 1
 145 -31 l 1
 176 147 l 1
 342 147 l 1
 311 -31 l 1
627 -547 m 1
 461 -547 l 1
 492 -369 l 1
 657 -369 l 1
 627 -547 l 1
EndSplineSet
EndChar
StartChar: uni0697
Encoding: 1687 1687
Width: 792
Flags: HW
Fore
821 784 m 5
 684 784 l 5
 709 932 l 5
 846 932 l 5
 821 784 l 5
571 784 m 5
 434 784 l 5
 459 932 l 5
 596 932 l 5
 571 784 l 5
EndSplineSet
Ref: 1585 1585 N 1 0 0 1 0 0
EndChar
StartChar: afii57508
Encoding: 1688 1688
Width: 792
Flags: HW
Fore
731 993 m 5
 592 993 l 5
 618 1141 l 5
 756 1141 l 5
 731 993 l 5
821 784 m 5
 684 784 l 5
 709 932 l 5
 846 932 l 5
 821 784 l 5
571 784 m 5
 434 784 l 5
 459 932 l 5
 596 932 l 5
 571 784 l 5
EndSplineSet
Ref: 1585 1585 N 1 0 0 1 0 0
Substitution: 1 'fina' uniFB8B
Substitution: 1 'medi' uniFB8B
EndChar
StartChar: uni0699
Encoding: 1689 1689
Width: 792
Flags: HW
Fore
817 1055 m 5
 680 1055 l 5
 705 1202 l 5
 842 1202 l 5
 817 1055 l 5
606 993 m 5
 469 993 l 5
 494 1141 l 5
 631 1141 l 5
 606 993 l 5
780 846 m 5
 643 846 l 5
 670 993 l 5
 805 993 l 5
 780 846 l 5
569 784 m 5
 434 784 l 5
 459 932 l 5
 596 932 l 5
 569 784 l 5
EndSplineSet
Ref: 1585 1585 N 1 0 0 1 0 0
EndChar
StartChar: uni069A
Encoding: 1690 1690
Width: 2248
Flags: HW
Fore
2195 422 m 2
 2173 285 2128 180 2062 109 c 128
 1997 37 1915 0 1815 0 c 2
 1800 0 l 2
 1692 0 1618 31 1579 92 c 1
 1526 31 1454 0 1362 0 c 0
 1307 0 1268 16 1243 49 c 1
 1206 -119 1128 -248 1010 -336 c 128
 891 -424 741 -467 563 -467 c 0
 381 -467 246 -428 162 -350 c 128
 96 -291 63 -211 63 -109 c 0
 63 -78 66 -45 72 -12 c 0
 88 76 119 180 166 301 c 1
 311 260 l 1
 272 156 248 66 236 -10 c 0
 231 -27 229 -43 229 -59 c 0
 229 -201 352 -272 598 -272 c 0
 883 -272 1051 -131 1098 150 c 2
 1171 582 l 1
 1333 582 l 1
 1305 418 l 2
 1298 377 1294 342 1294 313 c 0
 1294 287 1298 264 1305 248 c 128
 1317 213 1346 195 1391 195 c 0
 1436 195 1473 213 1497 246 c 128
 1522 281 1542 340 1556 422 c 2
 1583 582 l 1
 1745 582 l 1
 1718 426 l 2
 1712 395 1710 367 1710 342 c 0
 1710 244 1751 195 1833 195 c 2
 1849 195 l 2
 1946 195 2007 272 2034 426 c 2
 2083 709 l 1
 2245 709 l 1
 2195 422 l 2
1753 881 m 1
 1589 881 l 1
 1618 1059 l 1
 1784 1059 l 1
 1753 881 l 1
1683 -342 m 1
 1518 -342 l 1
 1548 -164 l 1
 1712 -164 l 1
 1683 -342 l 1
EndSplineSet
EndChar
StartChar: uni069B
Encoding: 1691 1691
Width: 2248
Flags: HW
Fore
1800 -311 m 5
 1663 -311 l 5
 1690 -164 l 5
 1825 -164 l 5
 1800 -311 l 5
1550 -311 m 5
 1413 -311 l 5
 1438 -164 l 5
 1577 -164 l 5
 1550 -311 l 5
1638 -520 m 5
 1501 -520 l 5
 1526 -373 l 5
 1665 -373 l 5
 1638 -520 l 5
EndSplineSet
Ref: 1587 1587 N 1 0 0 1 0 0
EndChar
StartChar: uni069C
Encoding: 1692 1692
Width: 2248
Flags: HW
Fore
1800 -311 m 5
 1663 -311 l 5
 1690 -164 l 5
 1825 -164 l 5
 1800 -311 l 5
1550 -311 m 5
 1413 -311 l 5
 1438 -164 l 5
 1577 -164 l 5
 1550 -311 l 5
1638 -520 m 5
 1501 -520 l 5
 1526 -373 l 5
 1665 -373 l 5
 1638 -520 l 5
1782 1087 m 5
 1642 1087 l 5
 1669 1235 l 5
 1806 1235 l 5
 1782 1087 l 5
1870 879 m 5
 1735 879 l 5
 1759 1026 l 5
 1896 1026 l 5
 1870 879 l 5
1622 879 m 5
 1485 879 l 5
 1509 1026 l 5
 1647 1026 l 5
 1622 879 l 5
EndSplineSet
Ref: 1587 1587 N 1 0 0 1 0 0
EndChar
StartChar: uni069D
Encoding: 1693 1693
Width: 2430
Flags: HW
Fore
1729 -346 m 5
 1593 -346 l 5
 1618 -199 l 5
 1755 -199 l 5
 1729 -346 l 5
1481 -346 m 5
 1341 -346 l 5
 1368 -199 l 5
 1505 -199 l 5
 1481 -346 l 5
EndSplineSet
Ref: 1589 1589 N 1 0 0 1 0 0
EndChar
StartChar: uni069E
Encoding: 1694 1694
Width: 2430
Flags: HW
Fore
1622 1120 m 5
 1485 1120 l 5
 1509 1268 l 5
 1647 1268 l 5
 1622 1120 l 5
1712 911 m 5
 1575 911 l 5
 1599 1059 l 5
 1737 1059 l 5
 1712 911 l 5
1462 911 m 5
 1325 911 l 5
 1350 1059 l 5
 1487 1059 l 5
 1462 911 l 5
EndSplineSet
Ref: 1589 1589 N 1 0 0 1 0 0
EndChar
StartChar: uni069F
Encoding: 1695 1695
Width: 1585
Flags: HW
Fore
1106 1225 m 5
 969 1225 l 5
 995 1372 l 5
 1133 1372 l 5
 1106 1225 l 5
1196 1016 m 5
 1061 1016 l 5
 1085 1163 l 5
 1223 1163 l 5
 1196 1016 l 5
948 1016 m 5
 809 1016 l 5
 836 1163 l 5
 973 1163 l 5
 948 1016 l 5
EndSplineSet
Ref: 1591 1591 N 1 0 0 1 0 0
EndChar
StartChar: uni06A0
Encoding: 1696 1696
Width: 1118
Flags: HW
Fore
817 1386 m 5
 678 1386 l 5
 705 1534 l 5
 842 1534 l 5
 817 1386 l 5
907 1178 m 5
 770 1178 l 5
 795 1325 l 5
 932 1325 l 5
 907 1178 l 5
657 1178 m 5
 520 1178 l 5
 545 1325 l 5
 682 1325 l 5
 657 1178 l 5
EndSplineSet
Ref: 1593 1593 N 1 0 0 1 0 0
EndChar
StartChar: uni06A1
Encoding: 1697 1697
Width: 1802
Flags: HW
Fore
1587 426 m 1
 1538 412 1503 403 1481 403 c 0
 1382 403 1305 434 1249 498 c 128
 1208 545 1188 606 1188 682 c 0
 1188 711 1192 741 1198 774 c 0
 1214 872 1260 958 1331 1030 c 128
 1405 1104 1479 1139 1554 1139 c 0
 1642 1139 1712 1085 1765 981 c 128
 1800 909 1819 829 1819 735 c 0
 1819 690 1815 641 1804 588 c 0
 1772 387 1669 238 1497 143 c 128
 1327 47 1075 0 743 0 c 0
 539 0 389 39 297 119 c 128
 225 180 188 264 188 371 c 0
 188 401 193 432 199 467 c 0
 213 549 242 639 285 735 c 1
 430 694 l 1
 395 614 373 541 360 469 c 0
 358 453 356 438 356 424 c 0
 356 356 385 305 444 266 c 128
 514 219 627 195 778 195 c 0
 1012 195 1192 213 1319 248 c 128
 1446 285 1534 344 1587 426 c 1
1645 621 m 1
 1651 649 1653 676 1653 702 c 0
 1653 752 1645 799 1628 842 c 128
 1604 909 1567 944 1522 944 c 0
 1485 944 1450 928 1419 897 c 128
 1386 864 1368 823 1360 774 c 0
 1356 762 1356 748 1356 737 c 0
 1356 700 1366 672 1386 647 c 128
 1413 614 1452 598 1503 598 c 0
 1546 598 1593 606 1645 621 c 1
EndSplineSet
EndChar
StartChar: uni06A2
Encoding: 1698 1698
Width: 1802
Flags: HW
Fore
1530 -274 m 5
 1364 -274 l 5
 1395 -96 l 5
 1561 -96 l 5
 1530 -274 l 5
EndSplineSet
Ref: 1697 1697 N 1 0 0 1 0 0
EndChar
StartChar: uni06A3
Encoding: 1699 1699
Width: 1802
Flags: HW
Fore
1530 -274 m 5
 1364 -274 l 5
 1395 -96 l 5
 1561 -96 l 5
 1530 -274 l 5
1620 1405 m 5
 1454 1405 l 5
 1485 1583 l 5
 1651 1583 l 5
 1620 1405 l 5
EndSplineSet
Ref: 1697 1697 N 1 0 0 1 0 0
EndChar
StartChar: afii57505
Encoding: 1700 1700
Width: 1802
Flags: HW
Fore
1642 1614 m 5
 1505 1614 l 5
 1530 1761 l 5
 1667 1761 l 5
 1642 1614 l 5
1733 1405 m 5
 1595 1405 l 5
 1620 1552 l 5
 1757 1552 l 5
 1733 1405 l 5
1483 1405 m 5
 1346 1405 l 5
 1370 1552 l 5
 1507 1552 l 5
 1483 1405 l 5
EndSplineSet
Ref: 1697 1697 N 1 0 0 1 0 0
Substitution: 1 'fina' uniFB6B
Substitution: 1 'medi' uniFB6D
Substitution: 1 'init' uniFB6C
EndChar
StartChar: uni06A5
Encoding: 1701 1701
Width: 1802
Flags: HW
Fore
1649 -244 m 5
 1511 -244 l 5
 1536 -96 l 5
 1673 -96 l 5
 1649 -244 l 5
1399 -244 m 5
 1262 -244 l 5
 1286 -96 l 5
 1423 -96 l 5
 1399 -244 l 5
1487 -453 m 5
 1350 -453 l 5
 1374 -305 l 5
 1511 -305 l 5
 1487 -453 l 5
EndSplineSet
Ref: 1697 1697 N 1 0 0 1 0 0
Substitution: 1 'fina' uniE8A7
Substitution: 1 'medi' uniE8A6
Substitution: 1 'init' uniE8A5
EndChar
StartChar: uni06A6
Encoding: 1702 1702
Width: 1802
Flags: HW
Fore
1755 1677 m 5
 1620 1677 l 5
 1645 1825 l 5
 1782 1825 l 5
 1755 1677 l 5
1546 1616 m 5
 1409 1616 l 5
 1434 1763 l 5
 1571 1763 l 5
 1546 1616 l 5
1720 1468 m 5
 1583 1468 l 5
 1610 1616 l 5
 1745 1616 l 5
 1720 1468 l 5
1509 1407 m 5
 1374 1407 l 5
 1399 1554 l 5
 1536 1554 l 5
 1509 1407 l 5
EndSplineSet
Ref: 1697 1697 N 1 0 0 1 0 0
EndChar
StartChar: uni06A7
Encoding: 1703 1703
Width: 1505
Flags: HW
Fore
1335 1241 m 5
 1169 1241 l 5
 1200 1419 l 5
 1366 1419 l 5
 1335 1241 l 5
1266 213 m 5
 1221 199 1221 199 1161 199 c 4
 1016 199 1016 199 918 301 c 132
 854 365 831 389 831 444 c 0
 831 477 840 520 850 586 c 4
 879 752 879 752 991 862 c 132
 1106 975 1106 975 1229 975 c 4
 1360 975 1360 975 1438 805 c 132
 1481 707 1499 666 1499 600 c 0
 1499 551 1489 487 1468 375 c 4
 1411 35 1411 35 1137 -201 c 132
 862 -438 862 -438 487 -438 c 4
 252 -438 252 -438 141 -313 c 132
 74 -236 47 -205 47 -139 c 0
 47 -100 57 -47 72 37 c 4
 94 168 94 168 156 301 c 5
 301 260 l 5
 254 154 254 154 233 39 c 4
 225 -6 221 -33 221 -55 c 0
 221 -96 238 -115 285 -166 c 132
 356 -244 356 -244 522 -244 c 4
 772 -244 772 -244 975 -115 c 132
 1178 16 1178 16 1266 213 c 5
1325 412 m 5
 1331 469 1335 504 1335 530 c 0
 1335 571 1325 598 1305 666 c 132
 1268 780 1268 780 1204 780 c 4
 1147 780 1147 780 1092 723 c 132
 1036 668 1036 668 1022 586 c 4
 1018 557 1014 541 1014 526 c 0
 1014 498 1026 485 1059 449 c 132
 1108 393 1108 393 1194 393 c 4
 1266 393 1266 393 1325 412 c 5
EndSplineSet
EndChar
StartChar: uni06A8
Encoding: 1704 1704
Width: 1505
Flags: HW
Fore
1358 1450 m 5
 1221 1450 l 5
 1245 1597 l 5
 1382 1597 l 5
 1358 1450 l 5
1448 1241 m 5
 1311 1241 l 5
 1337 1389 l 5
 1473 1389 l 5
 1448 1241 l 5
1198 1241 m 5
 1061 1241 l 5
 1085 1389 l 5
 1225 1389 l 5
 1198 1241 l 5
1266 213 m 5
 1221 199 1221 199 1161 199 c 4
 1016 199 1016 199 918 301 c 132
 854 365 831 389 831 444 c 0
 831 477 840 520 850 586 c 4
 879 752 879 752 991 862 c 132
 1106 975 1106 975 1229 975 c 4
 1360 975 1360 975 1438 805 c 132
 1481 707 1499 666 1499 600 c 0
 1499 551 1489 487 1468 375 c 4
 1411 35 1411 35 1137 -201 c 132
 862 -438 862 -438 487 -438 c 4
 252 -438 252 -438 141 -313 c 132
 74 -236 47 -205 47 -139 c 0
 47 -100 57 -47 72 37 c 4
 94 168 94 168 156 301 c 5
 301 260 l 5
 254 154 254 154 233 39 c 4
 225 -6 221 -33 221 -55 c 0
 221 -96 238 -115 285 -166 c 132
 356 -244 356 -244 522 -244 c 4
 772 -244 772 -244 975 -115 c 132
 1178 16 1178 16 1266 213 c 5
1325 412 m 5
 1331 469 1335 504 1335 530 c 0
 1335 571 1325 598 1305 666 c 132
 1268 780 1268 780 1204 780 c 4
 1147 780 1147 780 1092 723 c 132
 1036 668 1036 668 1022 586 c 4
 1018 557 1014 541 1014 526 c 0
 1014 498 1026 485 1059 449 c 132
 1108 393 1108 393 1194 393 c 4
 1266 393 1266 393 1325 412 c 5
EndSplineSet
EndChar
StartChar: uni06A9
Encoding: 1705 1705
Width: 1558
Flags: HW
Fore
1794 1278 m 1
 1794 1278 1276 1069 1221 1042 c 128
 1192 1028 1143 1001 1137 971 c 0
 1137 967 1137 965 1137 961 c 0
 1137 930 1153 885 1190 823 c 1
 1321 606 l 2
 1350 561 1368 518 1376 475 c 128
 1382 453 1384 428 1384 406 c 0
 1384 385 1382 367 1378 348 c 0
 1360 238 1309 152 1227 90 c 128
 1145 31 1040 0 918 0 c 2
 623 0 l 2
 465 0 346 35 270 106 c 128
 209 160 180 233 180 324 c 0
 180 416 211 518 244 608 c 1
 387 567 l 1
 373 518 360 467 350 408 c 0
 348 395 346 383 346 373 c 0
 346 322 369 281 412 250 c 128
 467 213 549 195 657 195 c 2
 952 195 l 2
 1083 195 1200 248 1219 354 c 0
 1221 365 1221 373 1221 383 c 0
 1221 432 1202 483 1167 543 c 2
 1034 764 l 2
 1008 807 989 844 981 877 c 128
 975 897 973 915 973 936 c 0
 973 1016 1006 1071 1061 1118 c 128
 1108 1157 1176 1196 1264 1233 c 2
 1827 1468 l 1
 1794 1278 l 1
EndSplineSet
Substitution: 1 'fina' uniFB8F
Substitution: 1 'medi' uniFB91
Substitution: 1 'init' uniFB90
EndChar
StartChar: uni06AA
Encoding: 1706 1706
Width: 1992
Flags: HW
Fore
1317 1278 m 1
 1026 1145 860 1067 819 1044 c 128
 776 1024 754 1001 750 979 c 0
 750 977 750 973 750 971 c 0
 750 934 797 903 889 881 c 2
 1739 668 l 1
 1817 647 1878 610 1919 557 c 128
 1950 516 1966 469 1966 416 c 0
 1966 401 1964 385 1962 367 c 0
 1942 254 1890 164 1804 98 c 128
 1718 33 1616 0 1497 0 c 2
 623 0 l 2
 465 0 346 35 270 106 c 128
 209 160 180 233 180 324 c 0
 180 416 211 518 244 608 c 1
 387 567 l 1
 373 518 360 467 350 408 c 0
 348 395 346 383 346 373 c 0
 346 322 369 281 412 250 c 128
 467 213 549 195 657 195 c 2
 1532 195 l 2
 1673 195 1780 252 1800 367 c 0
 1800 373 1802 377 1802 381 c 0
 1802 412 1784 440 1751 465 c 128
 1712 494 1669 514 1626 526 c 2
 811 735 l 2
 733 756 674 791 635 842 c 128
 604 883 588 924 588 963 c 0
 588 971 588 977 590 985 c 0
 598 1036 625 1081 666 1116 c 128
 707 1153 768 1190 846 1227 c 2
 1350 1468 l 1
 1317 1278 l 1
EndSplineSet
EndChar
StartChar: uni06AB
Encoding: 1707 1707
Width: 1558
Flags: HW
Fore
1794 1278 m 1
 1593 1196 l 1
 1618 1171 1630 1141 1630 1106 c 0
 1630 1047 1606 1001 1569 969 c 128
 1536 938 1499 924 1460 924 c 0
 1421 924 1391 938 1368 969 c 128
 1352 991 1343 1018 1343 1047 c 0
 1343 1063 1346 1087 1352 1098 c 1
 1270 1067 1214 1040 1186 1024 c 128
 1155 1006 1141 987 1137 971 c 0
 1137 967 1137 965 1137 961 c 0
 1137 930 1153 885 1190 823 c 1
 1321 606 l 2
 1350 561 1368 518 1376 475 c 128
 1382 453 1384 428 1384 406 c 0
 1384 385 1382 367 1378 348 c 0
 1360 238 1309 152 1227 90 c 128
 1145 31 1040 0 918 0 c 2
 623 0 l 2
 465 0 346 35 270 106 c 128
 209 160 180 233 180 324 c 0
 180 416 211 518 244 608 c 1
 387 567 l 1
 373 518 360 467 350 408 c 0
 348 395 346 383 346 373 c 0
 346 322 369 281 412 250 c 128
 467 213 549 195 657 195 c 2
 952 195 l 2
 1083 195 1200 248 1219 354 c 0
 1221 365 1221 373 1221 383 c 0
 1221 432 1202 483 1167 543 c 2
 1034 764 l 2
 1008 807 989 844 981 877 c 128
 975 897 973 915 973 936 c 0
 973 1016 1006 1071 1061 1118 c 128
 1108 1157 1176 1196 1264 1233 c 2
 1827 1468 l 1
 1794 1278 l 1
1473 993 m 0
 1518 993 1552 1034 1559 1075 c 0
 1561 1079 1561 1085 1561 1090 c 0
 1561 1106 1556 1118 1546 1130 c 128
 1534 1145 1520 1153 1505 1153 c 0
 1454 1153 1421 1120 1413 1075 c 0
 1413 1069 1413 1063 1413 1059 c 0
 1413 1042 1417 1028 1425 1018 c 128
 1438 1001 1452 993 1473 993 c 0
EndSplineSet
EndChar
StartChar: uni06AC
Encoding: 1708 1708
Width: 1425
Flags: HW
Fore
1135 1376 m 5
 969 1376 l 5
 999 1554 l 5
 1163 1554 l 5
 1135 1376 l 5
975 1026 m 5
 924 1016 924 1016 885 995 c 132
 846 975 846 975 842 952 c 4
 842 940 l 0
 842 928 850 924 899 897 c 4
 965 860 965 860 979 834 c 132
 989 815 993 809 993 799 c 0
 993 793 991 784 989 774 c 4
 975 686 975 686 885 635 c 132
 793 582 793 582 647 571 c 5
 659 651 l 5
 770 655 770 655 840 688 c 132
 909 719 909 719 918 768 c 4
 920 774 920 780 920 784 c 0
 920 801 909 807 856 836 c 4
 795 870 795 870 780 895 c 132
 772 911 768 918 768 926 c 0
 768 932 770 938 772 948 c 4
 782 1008 782 1008 842 1051 c 132
 899 1092 899 1092 989 1106 c 5
 975 1026 l 5
1423 649 m 6
 1370 334 1370 334 1178 168 c 132
 983 0 983 0 670 0 c 6
 623 0 l 6
 385 0 385 0 270 106 c 132
 195 174 168 199 168 260 c 0
 168 293 176 338 188 406 c 4
 203 496 203 496 244 608 c 5
 387 567 l 5
 365 496 365 496 350 408 c 4
 344 375 340 350 340 334 c 0
 340 295 358 283 418 248 c 132
 506 195 506 195 657 195 c 6
 698 195 l 6
 936 195 936 195 1079 309 c 132
 1223 424 1223 424 1260 643 c 6
 1401 1466 l 5
 1563 1466 l 5
 1423 649 l 6
EndSplineSet
EndChar
StartChar: uni06AD
Encoding: 1709 1709
Width: 1425
Flags: HW
Fore
975 1026 m 5
 924 1016 924 1016 885 995 c 132
 846 975 846 975 842 952 c 4
 842 940 l 0
 842 928 850 924 899 897 c 4
 965 860 965 860 979 834 c 132
 989 815 993 809 993 799 c 0
 993 793 991 784 989 774 c 4
 975 686 975 686 885 635 c 132
 793 582 793 582 647 571 c 5
 659 651 l 5
 770 655 770 655 840 688 c 132
 909 719 909 719 918 768 c 4
 920 774 920 780 920 784 c 0
 920 801 909 807 856 836 c 4
 795 870 795 870 780 895 c 132
 772 911 768 918 768 926 c 0
 768 932 770 938 772 948 c 4
 782 1008 782 1008 842 1051 c 132
 899 1092 899 1092 989 1106 c 5
 975 1026 l 5
1044 1585 m 5
 907 1585 l 5
 932 1733 l 5
 1069 1733 l 5
 1044 1585 l 5
1135 1376 m 5
 997 1376 l 5
 1024 1524 l 5
 1159 1524 l 5
 1135 1376 l 5
885 1376 m 5
 748 1376 l 5
 772 1524 l 5
 911 1524 l 5
 885 1376 l 5
1423 649 m 6
 1370 334 1370 334 1178 168 c 132
 983 0 983 0 670 0 c 6
 623 0 l 6
 385 0 385 0 270 106 c 132
 195 174 168 199 168 260 c 0
 168 293 176 338 188 406 c 4
 203 496 203 496 244 608 c 5
 387 567 l 5
 365 496 365 496 350 408 c 4
 344 375 340 350 340 334 c 0
 340 295 358 283 418 248 c 132
 506 195 506 195 657 195 c 6
 698 195 l 6
 936 195 936 195 1079 309 c 132
 1223 424 1223 424 1260 643 c 6
 1401 1466 l 5
 1563 1466 l 5
 1423 649 l 6
EndSplineSet
EndChar
StartChar: uni06AE
Encoding: 1710 1710
Width: 1425
Flags: HW
Fore
856 -248 m 5
 721 -248 l 5
 745 -100 l 5
 883 -100 l 5
 856 -248 l 5
608 -248 m 5
 471 -248 l 5
 496 -100 l 5
 633 -100 l 5
 608 -248 l 5
696 -457 m 5
 557 -457 l 5
 584 -309 l 5
 721 -309 l 5
 696 -457 l 5
975 1026 m 5
 924 1016 924 1016 885 995 c 132
 846 975 846 975 842 952 c 4
 842 940 l 0
 842 928 850 924 899 897 c 4
 965 860 965 860 979 834 c 132
 989 815 993 809 993 799 c 0
 993 793 991 784 989 774 c 4
 975 686 975 686 885 635 c 132
 793 582 793 582 647 571 c 5
 659 651 l 5
 770 655 770 655 840 688 c 132
 909 719 909 719 918 768 c 4
 920 774 920 780 920 784 c 0
 920 801 909 807 856 836 c 4
 795 870 795 870 780 895 c 132
 772 911 768 918 768 926 c 0
 768 932 770 938 772 948 c 4
 782 1008 782 1008 842 1051 c 132
 899 1092 899 1092 989 1106 c 5
 975 1026 l 5
1423 649 m 6
 1370 334 1370 334 1178 168 c 132
 983 0 983 0 670 0 c 6
 623 0 l 6
 385 0 385 0 270 106 c 132
 195 174 168 199 168 260 c 0
 168 293 176 338 188 406 c 4
 203 496 203 496 244 608 c 5
 387 567 l 5
 365 496 365 496 350 408 c 4
 344 375 340 350 340 334 c 0
 340 295 358 283 418 248 c 132
 506 195 506 195 657 195 c 6
 698 195 l 6
 936 195 936 195 1079 309 c 132
 1223 424 1223 424 1260 643 c 6
 1401 1466 l 5
 1563 1466 l 5
 1423 649 l 6
EndSplineSet
EndChar
StartChar: afii57509
Encoding: 1711 1711
Width: 1558
Flags: HW
Fore
1794 1278 m 1
 1794 1278 1276 1069 1221 1042 c 128
 1192 1028 1143 1001 1137 971 c 0
 1137 967 1137 965 1137 961 c 0
 1137 930 1153 885 1190 823 c 1
 1321 606 l 2
 1350 561 1368 518 1376 475 c 128
 1382 453 1384 428 1384 406 c 0
 1384 385 1382 367 1378 348 c 0
 1360 238 1309 152 1227 90 c 128
 1145 31 1040 0 918 0 c 2
 623 0 l 2
 465 0 346 35 270 106 c 128
 209 160 180 233 180 324 c 0
 180 416 211 518 244 608 c 1
 387 567 l 1
 373 518 360 467 350 408 c 0
 348 395 346 383 346 373 c 0
 346 322 369 281 412 250 c 128
 467 213 549 195 657 195 c 2
 952 195 l 2
 1083 195 1200 248 1219 354 c 0
 1221 365 1221 373 1221 383 c 0
 1221 432 1202 483 1167 543 c 2
 1034 764 l 2
 1008 807 989 844 981 877 c 128
 975 897 973 915 973 936 c 0
 973 1016 1006 1071 1061 1118 c 128
 1108 1157 1176 1196 1264 1233 c 2
 1827 1468 l 1
 1794 1278 l 1
1839 1546 m 1
 1087 1231 l 1
 1100 1309 l 1
 1853 1624 l 1
 1839 1546 l 1
EndSplineSet
Substitution: 1 'fina' uniFB93
Substitution: 1 'medi' uniFB95
Substitution: 1 'init' uniFB94
EndChar
StartChar: uni06B0
Encoding: 1712 1712
Width: 1558
Flags: HW
Fore
1794 1278 m 1
 1593 1196 l 1
 1618 1171 1630 1141 1630 1106 c 0
 1630 1047 1606 1001 1569 969 c 128
 1536 938 1499 924 1460 924 c 0
 1421 924 1391 938 1368 969 c 128
 1352 991 1343 1018 1343 1047 c 0
 1343 1063 1346 1087 1352 1098 c 1
 1270 1067 1214 1040 1186 1024 c 128
 1155 1006 1141 987 1137 971 c 0
 1137 967 1137 965 1137 961 c 0
 1137 930 1153 885 1190 823 c 1
 1321 606 l 2
 1350 561 1368 518 1376 475 c 128
 1382 453 1384 428 1384 406 c 0
 1384 385 1382 367 1378 348 c 0
 1360 238 1309 152 1227 90 c 128
 1145 31 1040 0 918 0 c 2
 623 0 l 2
 465 0 346 35 270 106 c 128
 209 160 180 233 180 324 c 0
 180 416 211 518 244 608 c 1
 387 567 l 1
 373 518 360 467 350 408 c 0
 348 395 346 383 346 373 c 0
 346 322 369 281 412 250 c 128
 467 213 549 195 657 195 c 2
 952 195 l 2
 1083 195 1200 248 1219 354 c 0
 1221 365 1221 373 1221 383 c 0
 1221 432 1202 483 1167 543 c 2
 1034 764 l 2
 1008 807 989 844 981 877 c 128
 975 897 973 915 973 936 c 0
 973 1016 1006 1071 1061 1118 c 128
 1108 1157 1176 1196 1264 1233 c 2
 1827 1468 l 1
 1794 1278 l 1
1473 993 m 0
 1518 993 1552 1034 1559 1075 c 0
 1561 1079 1561 1085 1561 1090 c 0
 1561 1106 1556 1118 1546 1130 c 128
 1534 1145 1520 1153 1505 1153 c 0
 1454 1153 1421 1120 1413 1075 c 0
 1413 1069 1413 1063 1413 1059 c 0
 1413 1042 1417 1028 1425 1018 c 128
 1438 1001 1452 993 1473 993 c 0
1839 1546 m 1
 1087 1231 l 1
 1100 1309 l 1
 1853 1624 l 1
 1839 1546 l 1
EndSplineSet
EndChar
StartChar: uni06B1
Encoding: 1713 1713
Width: 1558
Flags: HW
Fore
1579 1620 m 5
 1444 1620 l 5
 1468 1767 l 5
 1606 1767 l 5
 1579 1620 l 5
1331 1620 m 5
 1192 1620 l 5
 1219 1767 l 5
 1356 1767 l 5
 1331 1620 l 5
EndSplineSet
Ref: 1711 1711 N 1 0 0 1 0 0
EndChar
StartChar: uni06B2
Encoding: 1714 1714
Width: 1558
Flags: HW
Fore
907 -346 m 5
 770 -346 l 5
 795 -199 l 5
 932 -199 l 5
 907 -346 l 5
657 -346 m 5
 520 -346 l 5
 545 -199 l 5
 684 -199 l 5
 657 -346 l 5
EndSplineSet
Ref: 1711 1711 N 1 0 0 1 0 0
EndChar
StartChar: uni06B3
Encoding: 1715 1715
Width: 1558
Flags: HW
Fore
803 -328 m 5
 666 -328 l 5
 690 -180 l 5
 829 -180 l 5
 803 -328 l 5
764 -555 m 5
 627 -555 l 5
 651 -408 l 5
 791 -408 l 5
 764 -555 l 5
EndSplineSet
Ref: 1711 1711 N 1 0 0 1 0 0
EndChar
StartChar: uni06B4
Encoding: 1716 1716
Width: 1558
Flags: HW
Fore
1298 1782 m 5
 1161 1782 l 5
 1186 1929 l 5
 1323 1929 l 5
 1298 1782 l 5
1389 1573 m 5
 1251 1573 l 5
 1278 1720 l 5
 1413 1720 l 5
 1389 1573 l 5
1139 1573 m 5
 1001 1573 l 5
 1026 1720 l 5
 1165 1720 l 5
 1139 1573 l 5
EndSplineSet
Ref: 1711 1711 N 1 0 0 1 0 0
EndChar
StartChar: uni06B5
Encoding: 1717 1717
Width: 1245
Flags: HW
Fore
1511 1950 m 5
 1356 1694 l 5
 1290 1694 l 5
 1221 1950 l 5
 1300 1950 l 5
 1335 1772 l 5
 1432 1950 l 5
 1511 1950 l 5
EndSplineSet
Ref: 1604 1604 N 1 0 0 1 0 0
EndChar
StartChar: uni06B6
Encoding: 1718 1718
Width: 1245
Flags: HW
Fore
1409 1694 m 5
 1243 1694 l 5
 1274 1872 l 5
 1440 1872 l 5
 1409 1694 l 5
EndSplineSet
Ref: 1604 1604 N 1 0 0 1 0 0
EndChar
StartChar: uni06B7
Encoding: 1719 1719
Width: 1245
Flags: HW
Fore
1432 1903 m 5
 1294 1903 l 5
 1319 2050 l 5
 1456 2050 l 5
 1432 1903 l 5
1522 1694 m 5
 1384 1694 l 5
 1411 1841 l 5
 1546 1841 l 5
 1522 1694 l 5
1272 1694 m 5
 1135 1694 l 5
 1159 1841 l 5
 1298 1841 l 5
 1272 1694 l 5
EndSplineSet
Ref: 1604 1604 N 1 0 0 1 0 0
EndChar
StartChar: afii57514
Encoding: 1722 1722
Width: 1302
Flags: HW
Fore
1270 557 m 1
 1266 440 1257 336 1241 240 c 0
 1214 92 1147 -27 1034 -115 c 128
 922 -205 782 -248 614 -248 c 0
 451 -248 326 -203 244 -115 c 128
 182 -47 150 37 150 139 c 0
 150 172 154 205 160 240 c 0
 176 336 203 440 240 557 c 1
 385 516 l 1
 358 422 336 330 322 242 c 0
 317 221 315 201 315 182 c 0
 315 117 338 63 381 23 c 128
 436 -27 526 -53 651 -53 c 0
 887 -53 1047 45 1079 242 c 0
 1094 330 1104 422 1110 516 c 1
 1270 557 l 1
EndSplineSet
Substitution: 1 'fina' uniFB9F
Substitution: 1 'medi' uniFEE8
Substitution: 1 'init' uniFEE7
EndChar
StartChar: uni06BB
Encoding: 1723 1723
Width: 1302
Flags: HW
Fore
750 897 m 5
 864 1038 864 1038 926 1038 c 4
 971 1038 971 1038 999 993 c 132
 1018 967 1024 956 1024 938 c 0
 1024 928 1022 918 1020 897 c 4
 1008 834 1008 834 948 791 c 132
 889 750 889 750 799 750 c 6
 621 750 l 5
 635 829 l 5
 672 829 l 5
 731 1167 l 5
 797 1167 l 5
 750 897 l 5
760 829 m 5
 813 829 l 6
 872 829 872 829 909 848 c 132
 946 866 946 866 952 901 c 4
 954 909 954 913 954 918 c 0
 954 926 952 930 944 940 c 132
 932 958 932 958 911 958 c 4
 866 958 866 958 760 829 c 5
EndSplineSet
Ref: 1722 1722 N 1 0 0 1 0 0
EndChar
StartChar: uni06BC
Encoding: 1724 1724
Width: 1302
Flags: HW
Fore
1270 557 m 1
 1266 440 1257 336 1241 240 c 0
 1196 -16 1014 -186 758 -236 c 1
 766 -254 770 -274 770 -295 c 0
 770 -352 745 -397 709 -430 c 128
 676 -461 639 -475 600 -475 c 0
 561 -475 532 -461 510 -430 c 128
 492 -408 483 -383 483 -352 c 0
 483 -309 500 -272 520 -242 c 1
 383 -223 283 -172 219 -86 c 128
 174 -23 150 53 150 141 c 0
 150 172 154 205 160 240 c 0
 176 336 203 440 240 557 c 1
 385 516 l 1
 358 422 336 330 322 242 c 0
 317 221 315 201 315 182 c 0
 315 117 338 63 381 23 c 128
 436 -27 526 -53 651 -53 c 0
 887 -53 1047 45 1079 242 c 0
 1094 330 1104 422 1110 516 c 1
 1270 557 l 1
627 -248 m 1
 586 -254 561 -279 553 -324 c 0
 553 -330 553 -336 553 -340 c 0
 553 -356 557 -371 565 -383 c 128
 578 -397 594 -406 612 -406 c 0
 657 -406 692 -362 698 -324 c 0
 700 -319 700 -313 700 -309 c 0
 700 -293 696 -281 688 -270 c 128
 676 -256 664 -248 653 -248 c 2
 627 -248 l 1
874 754 m 1
 709 754 l 1
 739 932 l 1
 905 932 l 1
 874 754 l 1
EndSplineSet
EndChar
StartChar: uni06BD
Encoding: 1725 1725
Width: 1302
Flags: HW
Fore
879 958 m 5
 741 958 l 5
 766 1106 l 5
 903 1106 l 5
 879 958 l 5
969 750 m 5
 831 750 l 5
 856 897 l 5
 993 897 l 5
 969 750 l 5
719 750 m 5
 582 750 l 5
 606 897 l 5
 743 897 l 5
 719 750 l 5
EndSplineSet
Ref: 1722 1722 N 1 0 0 1 0 0
EndChar
